<mxfile host="app.diagrams.net" agent="Mozilla/5.0 (X11; Linux x86_64; rv:126.0) Gecko/20100101 Firefox/126.0" version="24.8.3">
  <diagram name="Page-1" id="0783ab3e-0a74-02c8-0abd-f7b4e66b4bec">
    <mxGraphModel dx="1418" dy="-1462" grid="1" gridSize="10" guides="1" tooltips="1" connect="1" arrows="1" fold="1" page="1" pageScale="1" pageWidth="850" pageHeight="1100" background="none" math="0" shadow="0">
      <root>
        <mxCell id="0" />
        <mxCell id="1" parent="0" />
        <mxCell id="29m7119C-wKjb6nLCyHt-140" value="Global Activity Diagram" style="swimlane;html=1;childLayout=stackLayout;startSize=20;rounded=0;shadow=0;comic=0;labelBackgroundColor=none;strokeWidth=1;fontFamily=Verdana;fontSize=12;align=center;" parent="1" vertex="1">
          <mxGeometry x="20" y="2210" width="1500" height="2130" as="geometry" />
        </mxCell>
        <mxCell id="29m7119C-wKjb6nLCyHt-265" value="" style="endArrow=classic;html=1;rounded=0;edgeStyle=orthogonalEdgeStyle;" parent="29m7119C-wKjb6nLCyHt-140" source="29m7119C-wKjb6nLCyHt-158" target="29m7119C-wKjb6nLCyHt-179" edge="1">
          <mxGeometry width="50" height="50" relative="1" as="geometry">
            <mxPoint x="780" y="430" as="sourcePoint" />
            <mxPoint x="830" y="380" as="targetPoint" />
            <Array as="points">
              <mxPoint x="600" y="340" />
              <mxPoint x="1230" y="340" />
            </Array>
          </mxGeometry>
        </mxCell>
        <mxCell id="29m7119C-wKjb6nLCyHt-267" value="" style="endArrow=classic;html=1;rounded=0;edgeStyle=orthogonalEdgeStyle;" parent="29m7119C-wKjb6nLCyHt-140" source="29m7119C-wKjb6nLCyHt-194" target="29m7119C-wKjb6nLCyHt-157" edge="1">
          <mxGeometry width="50" height="50" relative="1" as="geometry">
            <mxPoint x="830" y="480" as="sourcePoint" />
            <mxPoint x="880" y="430" as="targetPoint" />
            <Array as="points">
              <mxPoint x="500" y="463" />
              <mxPoint x="500" y="235" />
            </Array>
          </mxGeometry>
        </mxCell>
        <mxCell id="29m7119C-wKjb6nLCyHt-268" value="" style="endArrow=classic;html=1;rounded=0;edgeStyle=orthogonalEdgeStyle;" parent="29m7119C-wKjb6nLCyHt-140" source="29m7119C-wKjb6nLCyHt-194" target="29m7119C-wKjb6nLCyHt-269" edge="1">
          <mxGeometry width="50" height="50" relative="1" as="geometry">
            <mxPoint x="1180" y="610" as="sourcePoint" />
            <mxPoint x="590" y="500" as="targetPoint" />
            <Array as="points">
              <mxPoint x="1230" y="490" />
              <mxPoint x="490" y="490" />
            </Array>
          </mxGeometry>
        </mxCell>
        <mxCell id="29m7119C-wKjb6nLCyHt-149" value="User" style="swimlane;html=1;startSize=20;" parent="29m7119C-wKjb6nLCyHt-140" vertex="1">
          <mxGeometry y="20" width="980" height="2110" as="geometry" />
        </mxCell>
        <mxCell id="29m7119C-wKjb6nLCyHt-150" value="" style="ellipse;whiteSpace=wrap;html=1;rounded=0;shadow=0;comic=0;labelBackgroundColor=none;strokeWidth=1;fillColor=#000000;fontFamily=Verdana;fontSize=12;align=center;" parent="29m7119C-wKjb6nLCyHt-149" vertex="1">
          <mxGeometry x="470" y="40" width="40" height="40" as="geometry" />
        </mxCell>
        <mxCell id="29m7119C-wKjb6nLCyHt-153" value="Create account" style="rounded=1;whiteSpace=wrap;html=1;" parent="29m7119C-wKjb6nLCyHt-149" vertex="1">
          <mxGeometry x="320" y="140" width="120" height="30" as="geometry" />
        </mxCell>
        <mxCell id="29m7119C-wKjb6nLCyHt-154" value="Login" style="rounded=1;whiteSpace=wrap;html=1;" parent="29m7119C-wKjb6nLCyHt-149" vertex="1">
          <mxGeometry x="540" y="140" width="120" height="30" as="geometry" />
        </mxCell>
        <mxCell id="29m7119C-wKjb6nLCyHt-157" value="Enter User Name" style="rounded=1;whiteSpace=wrap;html=1;" parent="29m7119C-wKjb6nLCyHt-149" vertex="1">
          <mxGeometry x="540" y="200" width="120" height="30" as="geometry" />
        </mxCell>
        <mxCell id="29m7119C-wKjb6nLCyHt-158" value="Enter Password" style="rounded=1;whiteSpace=wrap;html=1;" parent="29m7119C-wKjb6nLCyHt-149" vertex="1">
          <mxGeometry x="540" y="260" width="120" height="30" as="geometry" />
        </mxCell>
        <mxCell id="29m7119C-wKjb6nLCyHt-162" value="Search" style="rounded=1;whiteSpace=wrap;html=1;" parent="29m7119C-wKjb6nLCyHt-149" vertex="1">
          <mxGeometry x="610" y="540" width="50" height="30" as="geometry" />
        </mxCell>
        <mxCell id="29m7119C-wKjb6nLCyHt-163" value="Browse TV Shows" style="rounded=1;whiteSpace=wrap;html=1;" parent="29m7119C-wKjb6nLCyHt-149" vertex="1">
          <mxGeometry x="683.69" y="540" width="60" height="30" as="geometry" />
        </mxCell>
        <mxCell id="29m7119C-wKjb6nLCyHt-164" value="Browse Movies" style="rounded=1;whiteSpace=wrap;html=1;" parent="29m7119C-wKjb6nLCyHt-149" vertex="1">
          <mxGeometry x="758.69" y="540" width="50" height="30" as="geometry" />
        </mxCell>
        <mxCell id="29m7119C-wKjb6nLCyHt-165" value="Browse Genres" style="rounded=1;whiteSpace=wrap;html=1;" parent="29m7119C-wKjb6nLCyHt-149" vertex="1">
          <mxGeometry x="830" y="540" width="50" height="30" as="geometry" />
        </mxCell>
        <mxCell id="29m7119C-wKjb6nLCyHt-166" value="Browse Top 10" style="rounded=1;whiteSpace=wrap;html=1;" parent="29m7119C-wKjb6nLCyHt-149" vertex="1">
          <mxGeometry x="900" y="540" width="50" height="30" as="geometry" />
        </mxCell>
        <mxCell id="29m7119C-wKjb6nLCyHt-167" value="View Profile" style="rounded=1;whiteSpace=wrap;html=1;" parent="29m7119C-wKjb6nLCyHt-149" vertex="1">
          <mxGeometry x="265" y="540" width="50" height="30" as="geometry" />
        </mxCell>
        <mxCell id="29m7119C-wKjb6nLCyHt-170" value="Input Search String" style="rounded=1;whiteSpace=wrap;html=1;" parent="29m7119C-wKjb6nLCyHt-149" vertex="1">
          <mxGeometry x="589.37" y="720" width="91.25" height="40" as="geometry" />
        </mxCell>
        <mxCell id="29m7119C-wKjb6nLCyHt-198" value="" style="group" parent="29m7119C-wKjb6nLCyHt-149" connectable="0" vertex="1">
          <mxGeometry x="481.19" y="2030" width="40" height="40" as="geometry" />
        </mxCell>
        <mxCell id="29m7119C-wKjb6nLCyHt-199" value="" style="group" parent="29m7119C-wKjb6nLCyHt-198" connectable="0" vertex="1">
          <mxGeometry width="40" height="40" as="geometry" />
        </mxCell>
        <mxCell id="29m7119C-wKjb6nLCyHt-200" value="" style="ellipse;whiteSpace=wrap;html=1;aspect=fixed;" parent="29m7119C-wKjb6nLCyHt-199" vertex="1">
          <mxGeometry width="40" height="40" as="geometry" />
        </mxCell>
        <mxCell id="29m7119C-wKjb6nLCyHt-201" value="" style="ellipse;whiteSpace=wrap;html=1;rounded=0;shadow=0;comic=0;labelBackgroundColor=none;strokeWidth=1;fillColor=#000000;fontFamily=Verdana;fontSize=12;align=center;" parent="29m7119C-wKjb6nLCyHt-199" vertex="1">
          <mxGeometry x="5" y="5" width="30" height="30" as="geometry" />
        </mxCell>
        <mxCell id="29m7119C-wKjb6nLCyHt-202" value="Browse Requested Media" style="rounded=1;whiteSpace=wrap;html=1;" parent="29m7119C-wKjb6nLCyHt-149" vertex="1">
          <mxGeometry x="718.75" y="970" width="140" height="30" as="geometry" />
        </mxCell>
        <mxCell id="29m7119C-wKjb6nLCyHt-203" value="Upgrade Membership" style="rounded=1;whiteSpace=wrap;html=1;" parent="29m7119C-wKjb6nLCyHt-149" vertex="1">
          <mxGeometry x="480" y="720" width="70" height="30" as="geometry" />
        </mxCell>
        <mxCell id="29m7119C-wKjb6nLCyHt-204" value="View Watchlist" style="rounded=1;whiteSpace=wrap;html=1;" parent="29m7119C-wKjb6nLCyHt-149" vertex="1">
          <mxGeometry x="100" y="720" width="60" height="30" as="geometry" />
        </mxCell>
        <mxCell id="29m7119C-wKjb6nLCyHt-205" value="Logout" style="rounded=1;whiteSpace=wrap;html=1;" parent="29m7119C-wKjb6nLCyHt-149" vertex="1">
          <mxGeometry x="290" y="720" width="60" height="30" as="geometry" />
        </mxCell>
        <mxCell id="29m7119C-wKjb6nLCyHt-210" value="Add Media to Watchlist" style="rounded=1;whiteSpace=wrap;html=1;" parent="29m7119C-wKjb6nLCyHt-149" vertex="1">
          <mxGeometry x="877.44" y="1110" width="80" height="30" as="geometry" />
        </mxCell>
        <mxCell id="29m7119C-wKjb6nLCyHt-211" value="Comment on Media" style="rounded=1;whiteSpace=wrap;html=1;" parent="29m7119C-wKjb6nLCyHt-149" vertex="1">
          <mxGeometry x="598.75" y="1110" width="80" height="30" as="geometry" />
        </mxCell>
        <mxCell id="29m7119C-wKjb6nLCyHt-215" value="View Media Comments" style="rounded=1;whiteSpace=wrap;html=1;" parent="29m7119C-wKjb6nLCyHt-149" vertex="1">
          <mxGeometry x="748.75" y="1110" width="80" height="30" as="geometry" />
        </mxCell>
        <mxCell id="29m7119C-wKjb6nLCyHt-225" value="View Watchlist Media" style="rounded=1;whiteSpace=wrap;html=1;" parent="29m7119C-wKjb6nLCyHt-149" vertex="1">
          <mxGeometry x="20" y="990" width="70" height="45" as="geometry" />
        </mxCell>
        <mxCell id="29m7119C-wKjb6nLCyHt-226" value="Remove Watchlist Media" style="rounded=1;whiteSpace=wrap;html=1;" parent="29m7119C-wKjb6nLCyHt-149" vertex="1">
          <mxGeometry x="185" y="990" width="70" height="45" as="geometry" />
        </mxCell>
        <mxCell id="29m7119C-wKjb6nLCyHt-261" value="" style="endArrow=classic;html=1;rounded=0;exitX=0.5;exitY=1;exitDx=0;exitDy=0;edgeStyle=orthogonalEdgeStyle;" parent="29m7119C-wKjb6nLCyHt-149" source="29m7119C-wKjb6nLCyHt-150" target="29m7119C-wKjb6nLCyHt-153" edge="1">
          <mxGeometry width="50" height="50" relative="1" as="geometry">
            <mxPoint x="400" y="290" as="sourcePoint" />
            <mxPoint x="450" y="240" as="targetPoint" />
          </mxGeometry>
        </mxCell>
        <mxCell id="29m7119C-wKjb6nLCyHt-262" value="" style="endArrow=classic;html=1;rounded=0;exitX=0.5;exitY=1;exitDx=0;exitDy=0;edgeStyle=orthogonalEdgeStyle;" parent="29m7119C-wKjb6nLCyHt-149" source="29m7119C-wKjb6nLCyHt-150" target="29m7119C-wKjb6nLCyHt-154" edge="1">
          <mxGeometry width="50" height="50" relative="1" as="geometry">
            <mxPoint x="370" y="280" as="sourcePoint" />
            <mxPoint x="420" y="230" as="targetPoint" />
          </mxGeometry>
        </mxCell>
        <mxCell id="29m7119C-wKjb6nLCyHt-263" value="" style="endArrow=classic;html=1;rounded=0;" parent="29m7119C-wKjb6nLCyHt-149" source="29m7119C-wKjb6nLCyHt-154" target="29m7119C-wKjb6nLCyHt-157" edge="1">
          <mxGeometry width="50" height="50" relative="1" as="geometry">
            <mxPoint x="730" y="220" as="sourcePoint" />
            <mxPoint x="780" y="170" as="targetPoint" />
          </mxGeometry>
        </mxCell>
        <mxCell id="29m7119C-wKjb6nLCyHt-264" value="" style="endArrow=classic;html=1;rounded=0;" parent="29m7119C-wKjb6nLCyHt-149" source="29m7119C-wKjb6nLCyHt-157" target="29m7119C-wKjb6nLCyHt-158" edge="1">
          <mxGeometry width="50" height="50" relative="1" as="geometry">
            <mxPoint x="910" y="310" as="sourcePoint" />
            <mxPoint x="960" y="260" as="targetPoint" />
          </mxGeometry>
        </mxCell>
        <mxCell id="29m7119C-wKjb6nLCyHt-269" value="" style="rounded=0;whiteSpace=wrap;html=1;fillStyle=solid;fillColor=#000000;" parent="29m7119C-wKjb6nLCyHt-149" vertex="1">
          <mxGeometry x="430" y="500" width="120" height="10" as="geometry" />
        </mxCell>
        <mxCell id="29m7119C-wKjb6nLCyHt-270" value="" style="endArrow=classic;html=1;rounded=0;exitX=0.5;exitY=1;exitDx=0;exitDy=0;edgeStyle=orthogonalEdgeStyle;" parent="29m7119C-wKjb6nLCyHt-149" source="29m7119C-wKjb6nLCyHt-269" target="29m7119C-wKjb6nLCyHt-167" edge="1">
          <mxGeometry width="50" height="50" relative="1" as="geometry">
            <mxPoint x="350" y="630" as="sourcePoint" />
            <mxPoint x="400" y="580" as="targetPoint" />
          </mxGeometry>
        </mxCell>
        <mxCell id="29m7119C-wKjb6nLCyHt-271" value="" style="endArrow=classic;html=1;rounded=0;exitX=0.5;exitY=1;exitDx=0;exitDy=0;edgeStyle=orthogonalEdgeStyle;" parent="29m7119C-wKjb6nLCyHt-149" source="29m7119C-wKjb6nLCyHt-269" target="29m7119C-wKjb6nLCyHt-162" edge="1">
          <mxGeometry width="50" height="50" relative="1" as="geometry">
            <mxPoint x="530" y="580" as="sourcePoint" />
            <mxPoint x="580" y="530" as="targetPoint" />
          </mxGeometry>
        </mxCell>
        <mxCell id="29m7119C-wKjb6nLCyHt-272" value="" style="endArrow=classic;html=1;rounded=0;exitX=0.5;exitY=1;exitDx=0;exitDy=0;edgeStyle=orthogonalEdgeStyle;" parent="29m7119C-wKjb6nLCyHt-149" source="29m7119C-wKjb6nLCyHt-269" target="29m7119C-wKjb6nLCyHt-163" edge="1">
          <mxGeometry width="50" height="50" relative="1" as="geometry">
            <mxPoint x="670" y="520" as="sourcePoint" />
            <mxPoint x="720" y="470" as="targetPoint" />
          </mxGeometry>
        </mxCell>
        <mxCell id="29m7119C-wKjb6nLCyHt-273" value="" style="endArrow=classic;html=1;rounded=0;exitX=0.5;exitY=1;exitDx=0;exitDy=0;edgeStyle=orthogonalEdgeStyle;" parent="29m7119C-wKjb6nLCyHt-149" source="29m7119C-wKjb6nLCyHt-269" target="29m7119C-wKjb6nLCyHt-164" edge="1">
          <mxGeometry width="50" height="50" relative="1" as="geometry">
            <mxPoint x="670" y="520" as="sourcePoint" />
            <mxPoint x="720" y="470" as="targetPoint" />
          </mxGeometry>
        </mxCell>
        <mxCell id="29m7119C-wKjb6nLCyHt-274" value="" style="endArrow=classic;html=1;rounded=0;exitX=0.5;exitY=1;exitDx=0;exitDy=0;edgeStyle=orthogonalEdgeStyle;" parent="29m7119C-wKjb6nLCyHt-149" source="29m7119C-wKjb6nLCyHt-269" target="29m7119C-wKjb6nLCyHt-165" edge="1">
          <mxGeometry width="50" height="50" relative="1" as="geometry">
            <mxPoint x="850" y="500" as="sourcePoint" />
            <mxPoint x="900" y="450" as="targetPoint" />
          </mxGeometry>
        </mxCell>
        <mxCell id="29m7119C-wKjb6nLCyHt-275" value="" style="endArrow=classic;html=1;rounded=0;exitX=0.5;exitY=1;exitDx=0;exitDy=0;edgeStyle=orthogonalEdgeStyle;" parent="29m7119C-wKjb6nLCyHt-149" source="29m7119C-wKjb6nLCyHt-269" target="29m7119C-wKjb6nLCyHt-166" edge="1">
          <mxGeometry width="50" height="50" relative="1" as="geometry">
            <mxPoint x="870" y="520" as="sourcePoint" />
            <mxPoint x="920" y="470" as="targetPoint" />
          </mxGeometry>
        </mxCell>
        <mxCell id="29m7119C-wKjb6nLCyHt-284" value="" style="endArrow=classic;html=1;rounded=0;" parent="29m7119C-wKjb6nLCyHt-149" source="29m7119C-wKjb6nLCyHt-162" target="29m7119C-wKjb6nLCyHt-170" edge="1">
          <mxGeometry width="50" height="50" relative="1" as="geometry">
            <mxPoint x="610" y="680" as="sourcePoint" />
            <mxPoint x="660" y="630" as="targetPoint" />
          </mxGeometry>
        </mxCell>
        <mxCell id="29m7119C-wKjb6nLCyHt-285" value="" style="endArrow=classic;html=1;rounded=0;entryX=0.5;entryY=0;entryDx=0;entryDy=0;" parent="29m7119C-wKjb6nLCyHt-149" source="29m7119C-wKjb6nLCyHt-167" target="29m7119C-wKjb6nLCyHt-286" edge="1">
          <mxGeometry width="50" height="50" relative="1" as="geometry">
            <mxPoint x="270" y="650" as="sourcePoint" />
            <mxPoint x="290" y="610" as="targetPoint" />
          </mxGeometry>
        </mxCell>
        <mxCell id="29m7119C-wKjb6nLCyHt-286" value="" style="rounded=0;whiteSpace=wrap;html=1;fillStyle=solid;fillColor=#000000;" parent="29m7119C-wKjb6nLCyHt-149" vertex="1">
          <mxGeometry x="230" y="600" width="120" height="10" as="geometry" />
        </mxCell>
        <mxCell id="29m7119C-wKjb6nLCyHt-287" value="" style="endArrow=classic;html=1;rounded=0;exitX=0.5;exitY=1;exitDx=0;exitDy=0;edgeStyle=orthogonalEdgeStyle;" parent="29m7119C-wKjb6nLCyHt-149" source="29m7119C-wKjb6nLCyHt-286" target="29m7119C-wKjb6nLCyHt-204" edge="1">
          <mxGeometry width="50" height="50" relative="1" as="geometry">
            <mxPoint x="220" y="690" as="sourcePoint" />
            <mxPoint x="270" y="640" as="targetPoint" />
          </mxGeometry>
        </mxCell>
        <mxCell id="29m7119C-wKjb6nLCyHt-288" value="" style="endArrow=classic;html=1;rounded=0;exitX=0.5;exitY=1;exitDx=0;exitDy=0;edgeStyle=orthogonalEdgeStyle;" parent="29m7119C-wKjb6nLCyHt-149" source="29m7119C-wKjb6nLCyHt-286" target="29m7119C-wKjb6nLCyHt-203" edge="1">
          <mxGeometry width="50" height="50" relative="1" as="geometry">
            <mxPoint x="400" y="670" as="sourcePoint" />
            <mxPoint x="450" y="620" as="targetPoint" />
          </mxGeometry>
        </mxCell>
        <mxCell id="29m7119C-wKjb6nLCyHt-289" value="" style="endArrow=classic;html=1;rounded=0;exitX=0.5;exitY=1;exitDx=0;exitDy=0;edgeStyle=orthogonalEdgeStyle;" parent="29m7119C-wKjb6nLCyHt-149" source="29m7119C-wKjb6nLCyHt-286" target="29m7119C-wKjb6nLCyHt-205" edge="1">
          <mxGeometry width="50" height="50" relative="1" as="geometry">
            <mxPoint x="440" y="660" as="sourcePoint" />
            <mxPoint x="490" y="610" as="targetPoint" />
          </mxGeometry>
        </mxCell>
        <mxCell id="29m7119C-wKjb6nLCyHt-290" value="" style="endArrow=classic;html=1;rounded=0;entryX=0.5;entryY=0;entryDx=0;entryDy=0;" parent="29m7119C-wKjb6nLCyHt-149" source="29m7119C-wKjb6nLCyHt-204" target="29m7119C-wKjb6nLCyHt-291" edge="1">
          <mxGeometry width="50" height="50" relative="1" as="geometry">
            <mxPoint x="200" y="760" as="sourcePoint" />
            <mxPoint x="250" y="710" as="targetPoint" />
          </mxGeometry>
        </mxCell>
        <mxCell id="29m7119C-wKjb6nLCyHt-291" value="" style="rounded=0;whiteSpace=wrap;html=1;fillStyle=solid;fillColor=#000000;" parent="29m7119C-wKjb6nLCyHt-149" vertex="1">
          <mxGeometry x="70" y="840" width="120" height="10" as="geometry" />
        </mxCell>
        <mxCell id="29m7119C-wKjb6nLCyHt-292" value="" style="endArrow=classic;html=1;rounded=0;exitX=0.5;exitY=1;exitDx=0;exitDy=0;edgeStyle=orthogonalEdgeStyle;" parent="29m7119C-wKjb6nLCyHt-149" source="29m7119C-wKjb6nLCyHt-291" target="29m7119C-wKjb6nLCyHt-225" edge="1">
          <mxGeometry width="50" height="50" relative="1" as="geometry">
            <mxPoint x="110" y="1070" as="sourcePoint" />
            <mxPoint x="160" y="1020" as="targetPoint" />
          </mxGeometry>
        </mxCell>
        <mxCell id="29m7119C-wKjb6nLCyHt-293" value="" style="endArrow=classic;html=1;rounded=0;exitX=0.5;exitY=1;exitDx=0;exitDy=0;edgeStyle=orthogonalEdgeStyle;" parent="29m7119C-wKjb6nLCyHt-149" source="29m7119C-wKjb6nLCyHt-291" target="29m7119C-wKjb6nLCyHt-226" edge="1">
          <mxGeometry width="50" height="50" relative="1" as="geometry">
            <mxPoint x="330" y="990" as="sourcePoint" />
            <mxPoint x="380" y="940" as="targetPoint" />
          </mxGeometry>
        </mxCell>
        <mxCell id="29m7119C-wKjb6nLCyHt-296" value="" style="endArrow=classic;html=1;rounded=0;edgeStyle=orthogonalEdgeStyle;" parent="29m7119C-wKjb6nLCyHt-149" source="29m7119C-wKjb6nLCyHt-205" target="29m7119C-wKjb6nLCyHt-201" edge="1">
          <mxGeometry width="50" height="50" relative="1" as="geometry">
            <mxPoint x="280" y="1010" as="sourcePoint" />
            <mxPoint x="680" y="1880" as="targetPoint" />
            <Array as="points">
              <mxPoint x="320" y="1980" />
              <mxPoint x="500" y="1980" />
            </Array>
          </mxGeometry>
        </mxCell>
        <mxCell id="29m7119C-wKjb6nLCyHt-303" value="" style="endArrow=classic;html=1;rounded=0;edgeStyle=orthogonalEdgeStyle;" parent="29m7119C-wKjb6nLCyHt-149" source="29m7119C-wKjb6nLCyHt-202" target="29m7119C-wKjb6nLCyHt-215" edge="1">
          <mxGeometry width="50" height="50" relative="1" as="geometry">
            <mxPoint x="740" y="1100" as="sourcePoint" />
            <mxPoint x="790" y="1050" as="targetPoint" />
          </mxGeometry>
        </mxCell>
        <mxCell id="29m7119C-wKjb6nLCyHt-304" value="" style="endArrow=classic;html=1;rounded=0;edgeStyle=orthogonalEdgeStyle;" parent="29m7119C-wKjb6nLCyHt-149" source="29m7119C-wKjb6nLCyHt-202" target="29m7119C-wKjb6nLCyHt-210" edge="1">
          <mxGeometry width="50" height="50" relative="1" as="geometry">
            <mxPoint x="860" y="1090" as="sourcePoint" />
            <mxPoint x="910" y="1040" as="targetPoint" />
            <Array as="points">
              <mxPoint x="789" y="1060" />
              <mxPoint x="917" y="1060" />
            </Array>
          </mxGeometry>
        </mxCell>
        <mxCell id="29m7119C-wKjb6nLCyHt-305" value="" style="endArrow=classic;html=1;rounded=0;edgeStyle=orthogonalEdgeStyle;" parent="29m7119C-wKjb6nLCyHt-149" source="29m7119C-wKjb6nLCyHt-202" target="29m7119C-wKjb6nLCyHt-211" edge="1">
          <mxGeometry width="50" height="50" relative="1" as="geometry">
            <mxPoint x="693.69" y="1100" as="sourcePoint" />
            <mxPoint x="743.69" y="1050" as="targetPoint" />
            <Array as="points">
              <mxPoint x="789" y="1060" />
              <mxPoint x="639" y="1060" />
            </Array>
          </mxGeometry>
        </mxCell>
        <mxCell id="29m7119C-wKjb6nLCyHt-306" value="" style="rounded=0;whiteSpace=wrap;html=1;fillStyle=solid;fillColor=#000000;" parent="29m7119C-wKjb6nLCyHt-149" vertex="1">
          <mxGeometry x="728.75" y="1040" width="120" height="10" as="geometry" />
        </mxCell>
        <mxCell id="29m7119C-wKjb6nLCyHt-307" value="" style="rounded=0;whiteSpace=wrap;html=1;fillStyle=solid;fillColor=#000000;" parent="29m7119C-wKjb6nLCyHt-149" vertex="1">
          <mxGeometry x="728.75" y="1200" width="120" height="10" as="geometry" />
        </mxCell>
        <mxCell id="29m7119C-wKjb6nLCyHt-308" value="" style="endArrow=classic;html=1;rounded=0;entryX=0.25;entryY=0;entryDx=0;entryDy=0;edgeStyle=orthogonalEdgeStyle;" parent="29m7119C-wKjb6nLCyHt-149" source="29m7119C-wKjb6nLCyHt-211" target="29m7119C-wKjb6nLCyHt-307" edge="1">
          <mxGeometry width="50" height="50" relative="1" as="geometry">
            <mxPoint x="660" y="1200" as="sourcePoint" />
            <mxPoint x="710" y="1150" as="targetPoint" />
            <Array as="points">
              <mxPoint x="639" y="1160" />
              <mxPoint x="759" y="1160" />
            </Array>
          </mxGeometry>
        </mxCell>
        <mxCell id="29m7119C-wKjb6nLCyHt-309" value="" style="endArrow=classic;html=1;rounded=0;entryX=0.5;entryY=0;entryDx=0;entryDy=0;" parent="29m7119C-wKjb6nLCyHt-149" source="29m7119C-wKjb6nLCyHt-215" target="29m7119C-wKjb6nLCyHt-307" edge="1">
          <mxGeometry width="50" height="50" relative="1" as="geometry">
            <mxPoint x="850" y="1190" as="sourcePoint" />
            <mxPoint x="900" y="1140" as="targetPoint" />
          </mxGeometry>
        </mxCell>
        <mxCell id="29m7119C-wKjb6nLCyHt-310" value="" style="endArrow=classic;html=1;rounded=0;entryX=0.75;entryY=0;entryDx=0;entryDy=0;edgeStyle=orthogonalEdgeStyle;" parent="29m7119C-wKjb6nLCyHt-149" source="29m7119C-wKjb6nLCyHt-210" target="29m7119C-wKjb6nLCyHt-307" edge="1">
          <mxGeometry width="50" height="50" relative="1" as="geometry">
            <mxPoint x="900" y="1220" as="sourcePoint" />
            <mxPoint x="950" y="1170" as="targetPoint" />
            <Array as="points">
              <mxPoint x="917" y="1160" />
              <mxPoint x="819" y="1160" />
            </Array>
          </mxGeometry>
        </mxCell>
        <mxCell id="29m7119C-wKjb6nLCyHt-311" value="" style="endArrow=classic;html=1;rounded=0;exitX=0.5;exitY=1;exitDx=0;exitDy=0;entryX=0.25;entryY=0;entryDx=0;entryDy=0;edgeStyle=orthogonalEdgeStyle;" parent="29m7119C-wKjb6nLCyHt-149" source="29m7119C-wKjb6nLCyHt-307" target="29m7119C-wKjb6nLCyHt-306" edge="1">
          <mxGeometry width="50" height="50" relative="1" as="geometry">
            <mxPoint x="783.69" y="1230" as="sourcePoint" />
            <mxPoint x="683.69" y="1210" as="targetPoint" />
            <Array as="points">
              <mxPoint x="789" y="1220" />
              <mxPoint x="580" y="1220" />
              <mxPoint x="580" y="1010" />
              <mxPoint x="759" y="1010" />
            </Array>
          </mxGeometry>
        </mxCell>
        <mxCell id="1UZdqRzCrLyL6wv6ZtiY-1" value="" style="endArrow=classic;html=1;rounded=0;exitX=0.5;exitY=1;exitDx=0;exitDy=0;entryX=0.25;entryY=0;entryDx=0;entryDy=0;edgeStyle=orthogonalEdgeStyle;" parent="29m7119C-wKjb6nLCyHt-149" source="29m7119C-wKjb6nLCyHt-291" target="29m7119C-wKjb6nLCyHt-286" edge="1">
          <mxGeometry width="50" height="50" relative="1" as="geometry">
            <mxPoint x="50" y="760" as="sourcePoint" />
            <mxPoint x="100" y="710" as="targetPoint" />
            <Array as="points">
              <mxPoint x="130" y="920" />
              <mxPoint x="30" y="920" />
              <mxPoint x="30" y="580" />
              <mxPoint x="260" y="580" />
            </Array>
          </mxGeometry>
        </mxCell>
        <mxCell id="1UZdqRzCrLyL6wv6ZtiY-2" value="" style="rounded=0;whiteSpace=wrap;html=1;fillStyle=solid;fillColor=#000000;" parent="29m7119C-wKjb6nLCyHt-149" vertex="1">
          <mxGeometry x="70" y="1110" width="120" height="10" as="geometry" />
        </mxCell>
        <mxCell id="1UZdqRzCrLyL6wv6ZtiY-3" value="" style="endArrow=classic;html=1;rounded=0;entryX=0.25;entryY=0;entryDx=0;entryDy=0;edgeStyle=orthogonalEdgeStyle;" parent="29m7119C-wKjb6nLCyHt-149" source="29m7119C-wKjb6nLCyHt-225" target="1UZdqRzCrLyL6wv6ZtiY-2" edge="1">
          <mxGeometry width="50" height="50" relative="1" as="geometry">
            <mxPoint x="110" y="1090" as="sourcePoint" />
            <mxPoint x="160" y="1040" as="targetPoint" />
          </mxGeometry>
        </mxCell>
        <mxCell id="1UZdqRzCrLyL6wv6ZtiY-4" value="" style="endArrow=classic;html=1;rounded=0;entryX=0.75;entryY=0;entryDx=0;entryDy=0;edgeStyle=orthogonalEdgeStyle;" parent="29m7119C-wKjb6nLCyHt-149" source="29m7119C-wKjb6nLCyHt-226" target="1UZdqRzCrLyL6wv6ZtiY-2" edge="1">
          <mxGeometry width="50" height="50" relative="1" as="geometry">
            <mxPoint x="190" y="1220" as="sourcePoint" />
            <mxPoint x="240" y="1170" as="targetPoint" />
          </mxGeometry>
        </mxCell>
        <mxCell id="1UZdqRzCrLyL6wv6ZtiY-5" value="" style="endArrow=classic;html=1;rounded=0;exitX=0.5;exitY=1;exitDx=0;exitDy=0;entryX=0.75;entryY=0;entryDx=0;entryDy=0;edgeStyle=orthogonalEdgeStyle;" parent="29m7119C-wKjb6nLCyHt-149" source="1UZdqRzCrLyL6wv6ZtiY-2" target="29m7119C-wKjb6nLCyHt-291" edge="1">
          <mxGeometry width="50" height="50" relative="1" as="geometry">
            <mxPoint x="150" y="1220" as="sourcePoint" />
            <mxPoint x="200" y="1170" as="targetPoint" />
            <Array as="points">
              <mxPoint x="130" y="1160" />
              <mxPoint x="280" y="1160" />
              <mxPoint x="280" y="820" />
              <mxPoint x="160" y="820" />
            </Array>
          </mxGeometry>
        </mxCell>
        <mxCell id="29m7119C-wKjb6nLCyHt-220" value="[Upgrade]" style="text;html=1;align=center;verticalAlign=middle;resizable=0;points=[];autosize=1;strokeColor=none;fillColor=none;" parent="29m7119C-wKjb6nLCyHt-149" vertex="1">
          <mxGeometry x="580" y="1450" width="80" height="30" as="geometry" />
        </mxCell>
        <mxCell id="1UZdqRzCrLyL6wv6ZtiY-17" value="" style="strokeWidth=2;html=1;shape=mxgraph.flowchart.decision;whiteSpace=wrap;" parent="29m7119C-wKjb6nLCyHt-149" vertex="1">
          <mxGeometry x="360" y="1292" width="30" height="30" as="geometry" />
        </mxCell>
        <mxCell id="1UZdqRzCrLyL6wv6ZtiY-19" value="" style="endArrow=classic;html=1;rounded=0;exitX=0.5;exitY=0;exitDx=0;exitDy=0;exitPerimeter=0;entryX=0.75;entryY=0;entryDx=0;entryDy=0;edgeStyle=orthogonalEdgeStyle;" parent="29m7119C-wKjb6nLCyHt-149" source="1UZdqRzCrLyL6wv6ZtiY-17" target="29m7119C-wKjb6nLCyHt-286" edge="1">
          <mxGeometry width="50" height="50" relative="1" as="geometry">
            <mxPoint x="390" y="1010" as="sourcePoint" />
            <mxPoint x="440" y="960" as="targetPoint" />
            <Array as="points">
              <mxPoint x="375" y="580" />
              <mxPoint x="320" y="580" />
            </Array>
          </mxGeometry>
        </mxCell>
        <mxCell id="1UZdqRzCrLyL6wv6ZtiY-20" value="" style="endArrow=classic;html=1;rounded=0;entryX=0.25;entryY=0;entryDx=0;entryDy=0;edgeStyle=orthogonalEdgeStyle;" parent="29m7119C-wKjb6nLCyHt-149" source="29m7119C-wKjb6nLCyHt-153" target="29m7119C-wKjb6nLCyHt-269" edge="1">
          <mxGeometry width="50" height="50" relative="1" as="geometry">
            <mxPoint x="350" y="360" as="sourcePoint" />
            <mxPoint x="400" y="310" as="targetPoint" />
          </mxGeometry>
        </mxCell>
        <mxCell id="29m7119C-wKjb6nLCyHt-178" value="System" style="swimlane;html=1;startSize=20;" parent="29m7119C-wKjb6nLCyHt-140" vertex="1">
          <mxGeometry x="980" y="20" width="520" height="2110" as="geometry" />
        </mxCell>
        <mxCell id="29m7119C-wKjb6nLCyHt-179" value="Validate Credentials" style="rounded=1;whiteSpace=wrap;html=1;" parent="29m7119C-wKjb6nLCyHt-178" vertex="1">
          <mxGeometry x="190" y="340" width="120" height="30" as="geometry" />
        </mxCell>
        <mxCell id="29m7119C-wKjb6nLCyHt-183" value="Fetch Media By Genre" style="rounded=1;whiteSpace=wrap;html=1;" parent="29m7119C-wKjb6nLCyHt-178" vertex="1">
          <mxGeometry x="180" y="720" width="80" height="30" as="geometry" />
        </mxCell>
        <mxCell id="29m7119C-wKjb6nLCyHt-184" value="Fetch Top 10 Media" style="rounded=1;whiteSpace=wrap;html=1;" parent="29m7119C-wKjb6nLCyHt-178" vertex="1">
          <mxGeometry x="280" y="720" width="70" height="30" as="geometry" />
        </mxCell>
        <mxCell id="29m7119C-wKjb6nLCyHt-185" value="Fetch Movies" style="rounded=1;whiteSpace=wrap;html=1;" parent="29m7119C-wKjb6nLCyHt-178" vertex="1">
          <mxGeometry x="102.5" y="720" width="55" height="30" as="geometry" />
        </mxCell>
        <mxCell id="29m7119C-wKjb6nLCyHt-186" value="Fetch TV Shows" style="rounded=1;whiteSpace=wrap;html=1;" parent="29m7119C-wKjb6nLCyHt-178" vertex="1">
          <mxGeometry x="25" y="720" width="60" height="30" as="geometry" />
        </mxCell>
        <mxCell id="29m7119C-wKjb6nLCyHt-187" value="Fetch Media Based on Search" style="rounded=1;whiteSpace=wrap;html=1;" parent="29m7119C-wKjb6nLCyHt-178" vertex="1">
          <mxGeometry x="329.94" y="840" width="110" height="40" as="geometry" />
        </mxCell>
        <mxCell id="29m7119C-wKjb6nLCyHt-259" value="" style="group" parent="29m7119C-wKjb6nLCyHt-178" connectable="0" vertex="1">
          <mxGeometry x="110" y="420" width="250" height="68" as="geometry" />
        </mxCell>
        <mxCell id="29m7119C-wKjb6nLCyHt-181" value="[Valid Credentials]" style="text;html=1;align=center;verticalAlign=middle;resizable=0;points=[];autosize=1;strokeColor=none;fillColor=none;" parent="29m7119C-wKjb6nLCyHt-259" vertex="1">
          <mxGeometry x="130" y="38" width="120" height="30" as="geometry" />
        </mxCell>
        <mxCell id="29m7119C-wKjb6nLCyHt-182" value="[Invalid Credentials]" style="text;html=1;align=center;verticalAlign=middle;resizable=0;points=[];autosize=1;strokeColor=none;fillColor=none;" parent="29m7119C-wKjb6nLCyHt-259" vertex="1">
          <mxGeometry width="130" height="30" as="geometry" />
        </mxCell>
        <mxCell id="29m7119C-wKjb6nLCyHt-194" value="" style="strokeWidth=2;html=1;shape=mxgraph.flowchart.decision;whiteSpace=wrap;" parent="29m7119C-wKjb6nLCyHt-259" vertex="1">
          <mxGeometry x="125" y="8" width="30" height="30" as="geometry" />
        </mxCell>
        <mxCell id="29m7119C-wKjb6nLCyHt-266" value="" style="endArrow=classic;html=1;rounded=0;" parent="29m7119C-wKjb6nLCyHt-178" source="29m7119C-wKjb6nLCyHt-179" target="29m7119C-wKjb6nLCyHt-194" edge="1">
          <mxGeometry width="50" height="50" relative="1" as="geometry">
            <mxPoint x="250" y="590" as="sourcePoint" />
            <mxPoint x="300" y="540" as="targetPoint" />
          </mxGeometry>
        </mxCell>
        <mxCell id="29m7119C-wKjb6nLCyHt-245" value="[Does not have premium membership]" style="text;html=1;align=center;verticalAlign=middle;resizable=0;points=[];autosize=1;strokeColor=none;fillColor=none;" parent="29m7119C-wKjb6nLCyHt-178" vertex="1">
          <mxGeometry x="255" y="1330" width="230" height="30" as="geometry" />
        </mxCell>
        <mxCell id="29m7119C-wKjb6nLCyHt-221" value="Upgrade Account" style="rounded=1;whiteSpace=wrap;html=1;" parent="29m7119C-wKjb6nLCyHt-178" vertex="1">
          <mxGeometry x="-472.49999999999994" y="1540" width="60" height="30" as="geometry" />
        </mxCell>
        <mxCell id="29m7119C-wKjb6nLCyHt-224" value="Enter Payment Information" style="rounded=1;whiteSpace=wrap;html=1;" parent="29m7119C-wKjb6nLCyHt-178" vertex="1">
          <mxGeometry x="-484.99999999999994" y="1600" width="85" height="50" as="geometry" />
        </mxCell>
        <mxCell id="29m7119C-wKjb6nLCyHt-258" value="" style="group" parent="29m7119C-wKjb6nLCyHt-178" connectable="0" vertex="1">
          <mxGeometry x="-560" y="1420" width="190" height="60" as="geometry" />
        </mxCell>
        <mxCell id="29m7119C-wKjb6nLCyHt-218" value="" style="strokeWidth=2;html=1;shape=mxgraph.flowchart.decision;whiteSpace=wrap;" parent="29m7119C-wKjb6nLCyHt-258" vertex="1">
          <mxGeometry x="101.19000000000005" y="10" width="30" height="30" as="geometry" />
        </mxCell>
        <mxCell id="29m7119C-wKjb6nLCyHt-219" value="[Do not upgrade]" style="text;html=1;align=center;verticalAlign=middle;resizable=0;points=[];autosize=1;strokeColor=none;fillColor=none;" parent="29m7119C-wKjb6nLCyHt-258" vertex="1">
          <mxGeometry x="-30" width="110" height="30" as="geometry" />
        </mxCell>
        <mxCell id="29m7119C-wKjb6nLCyHt-237" value="Validate Payment Information" style="rounded=1;whiteSpace=wrap;html=1;" parent="29m7119C-wKjb6nLCyHt-178" vertex="1">
          <mxGeometry x="190" y="1720" width="120" height="30" as="geometry" />
        </mxCell>
        <mxCell id="29m7119C-wKjb6nLCyHt-243" value="Upgrade Client&#39;s Account to Premium" style="rounded=1;whiteSpace=wrap;html=1;" parent="29m7119C-wKjb6nLCyHt-178" vertex="1">
          <mxGeometry x="190" y="1870" width="120" height="30" as="geometry" />
        </mxCell>
        <mxCell id="29m7119C-wKjb6nLCyHt-256" value="" style="group" parent="29m7119C-wKjb6nLCyHt-178" connectable="0" vertex="1">
          <mxGeometry x="80" y="1770" width="350" height="50" as="geometry" />
        </mxCell>
        <mxCell id="29m7119C-wKjb6nLCyHt-238" value="" style="strokeWidth=2;html=1;shape=mxgraph.flowchart.decision;whiteSpace=wrap;" parent="29m7119C-wKjb6nLCyHt-256" vertex="1">
          <mxGeometry x="155" y="20" width="30" height="30" as="geometry" />
        </mxCell>
        <mxCell id="29m7119C-wKjb6nLCyHt-241" value="[Invalid Payment Information]" style="text;html=1;align=center;verticalAlign=middle;resizable=0;points=[];autosize=1;strokeColor=none;fillColor=none;" parent="29m7119C-wKjb6nLCyHt-256" vertex="1">
          <mxGeometry x="-25" y="-10" width="180" height="30" as="geometry" />
        </mxCell>
        <mxCell id="29m7119C-wKjb6nLCyHt-244" value="" style="strokeWidth=2;html=1;shape=mxgraph.flowchart.decision;whiteSpace=wrap;" parent="29m7119C-wKjb6nLCyHt-178" vertex="1">
          <mxGeometry x="224.99999999999994" y="1292" width="30" height="30" as="geometry" />
        </mxCell>
        <mxCell id="29m7119C-wKjb6nLCyHt-246" value="[Has premium membership]" style="text;html=1;align=center;verticalAlign=middle;resizable=0;points=[];autosize=1;strokeColor=none;fillColor=none;" parent="29m7119C-wKjb6nLCyHt-178" vertex="1">
          <mxGeometry x="45" y="1280" width="170" height="30" as="geometry" />
        </mxCell>
        <mxCell id="29m7119C-wKjb6nLCyHt-297" value="" style="endArrow=classic;html=1;rounded=0;edgeStyle=orthogonalEdgeStyle;entryX=0.203;entryY=-0.035;entryDx=0;entryDy=0;entryPerimeter=0;" parent="29m7119C-wKjb6nLCyHt-178" source="29m7119C-wKjb6nLCyHt-186" target="29m7119C-wKjb6nLCyHt-298" edge="1">
          <mxGeometry width="50" height="50" relative="1" as="geometry">
            <mxPoint x="390" y="730" as="sourcePoint" />
            <mxPoint x="310" y="890" as="targetPoint" />
            <Array as="points">
              <mxPoint x="55" y="810" />
              <mxPoint x="470" y="810" />
              <mxPoint x="470" y="895" />
              <mxPoint x="250" y="895" />
            </Array>
          </mxGeometry>
        </mxCell>
        <mxCell id="29m7119C-wKjb6nLCyHt-298" value="" style="rounded=0;whiteSpace=wrap;html=1;fillStyle=solid;fillColor=#000000;rotation=90;" parent="29m7119C-wKjb6nLCyHt-178" vertex="1">
          <mxGeometry x="159.94" y="940" width="170" height="10" as="geometry" />
        </mxCell>
        <mxCell id="29m7119C-wKjb6nLCyHt-299" value="" style="endArrow=classic;html=1;rounded=0;edgeStyle=orthogonalEdgeStyle;entryX=0.313;entryY=-0.092;entryDx=0;entryDy=0;entryPerimeter=0;" parent="29m7119C-wKjb6nLCyHt-178" source="29m7119C-wKjb6nLCyHt-185" target="29m7119C-wKjb6nLCyHt-298" edge="1">
          <mxGeometry width="50" height="50" relative="1" as="geometry">
            <mxPoint x="150" y="850" as="sourcePoint" />
            <mxPoint x="300" y="940" as="targetPoint" />
            <Array as="points">
              <mxPoint x="130" y="790" />
              <mxPoint x="480" y="790" />
              <mxPoint x="480" y="913" />
            </Array>
          </mxGeometry>
        </mxCell>
        <mxCell id="29m7119C-wKjb6nLCyHt-300" value="" style="endArrow=classic;html=1;rounded=0;edgeStyle=orthogonalEdgeStyle;entryX=0.5;entryY=0;entryDx=0;entryDy=0;" parent="29m7119C-wKjb6nLCyHt-178" source="29m7119C-wKjb6nLCyHt-183" target="29m7119C-wKjb6nLCyHt-298" edge="1">
          <mxGeometry width="50" height="50" relative="1" as="geometry">
            <mxPoint x="190" y="850" as="sourcePoint" />
            <mxPoint x="340" y="940" as="targetPoint" />
            <Array as="points">
              <mxPoint x="220" y="770" />
              <mxPoint x="490" y="770" />
              <mxPoint x="490" y="945" />
            </Array>
          </mxGeometry>
        </mxCell>
        <mxCell id="29m7119C-wKjb6nLCyHt-301" value="" style="endArrow=classic;html=1;rounded=0;edgeStyle=orthogonalEdgeStyle;entryX=0.592;entryY=-0.035;entryDx=0;entryDy=0;entryPerimeter=0;" parent="29m7119C-wKjb6nLCyHt-178" source="29m7119C-wKjb6nLCyHt-184" target="29m7119C-wKjb6nLCyHt-298" edge="1">
          <mxGeometry width="50" height="50" relative="1" as="geometry">
            <mxPoint x="400" y="750" as="sourcePoint" />
            <mxPoint x="360" y="1020" as="targetPoint" />
            <Array as="points">
              <mxPoint x="315" y="760" />
              <mxPoint x="500" y="760" />
              <mxPoint x="500" y="960" />
              <mxPoint x="360" y="960" />
            </Array>
          </mxGeometry>
        </mxCell>
        <mxCell id="1UZdqRzCrLyL6wv6ZtiY-7" value="" style="endArrow=classic;html=1;rounded=0;exitX=0.5;exitY=1;exitDx=0;exitDy=0;exitPerimeter=0;entryX=0.5;entryY=0;entryDx=0;entryDy=0;entryPerimeter=0;edgeStyle=orthogonalEdgeStyle;" parent="29m7119C-wKjb6nLCyHt-178" source="29m7119C-wKjb6nLCyHt-244" target="29m7119C-wKjb6nLCyHt-218" edge="1">
          <mxGeometry width="50" height="50" relative="1" as="geometry">
            <mxPoint x="230" y="1440" as="sourcePoint" />
            <mxPoint x="-440" y="1400" as="targetPoint" />
          </mxGeometry>
        </mxCell>
        <mxCell id="1UZdqRzCrLyL6wv6ZtiY-9" value="" style="endArrow=classic;html=1;rounded=0;exitX=0.5;exitY=1;exitDx=0;exitDy=0;exitPerimeter=0;" parent="29m7119C-wKjb6nLCyHt-178" source="29m7119C-wKjb6nLCyHt-218" target="29m7119C-wKjb6nLCyHt-221" edge="1">
          <mxGeometry width="50" height="50" relative="1" as="geometry">
            <mxPoint x="-500" y="1470" as="sourcePoint" />
            <mxPoint x="-480" y="1490" as="targetPoint" />
          </mxGeometry>
        </mxCell>
        <mxCell id="1UZdqRzCrLyL6wv6ZtiY-10" value="" style="endArrow=classic;html=1;rounded=0;" parent="29m7119C-wKjb6nLCyHt-178" source="29m7119C-wKjb6nLCyHt-221" target="29m7119C-wKjb6nLCyHt-224" edge="1">
          <mxGeometry width="50" height="50" relative="1" as="geometry">
            <mxPoint x="-550" y="1590" as="sourcePoint" />
            <mxPoint x="-500" y="1540" as="targetPoint" />
          </mxGeometry>
        </mxCell>
        <mxCell id="1UZdqRzCrLyL6wv6ZtiY-11" value="" style="endArrow=classic;html=1;rounded=0;edgeStyle=orthogonalEdgeStyle;" parent="29m7119C-wKjb6nLCyHt-178" source="29m7119C-wKjb6nLCyHt-224" target="29m7119C-wKjb6nLCyHt-237" edge="1">
          <mxGeometry width="50" height="50" relative="1" as="geometry">
            <mxPoint x="-230" y="1630" as="sourcePoint" />
            <mxPoint x="-180" y="1580" as="targetPoint" />
          </mxGeometry>
        </mxCell>
        <mxCell id="1UZdqRzCrLyL6wv6ZtiY-12" value="" style="endArrow=classic;html=1;rounded=0;" parent="29m7119C-wKjb6nLCyHt-178" source="29m7119C-wKjb6nLCyHt-237" target="29m7119C-wKjb6nLCyHt-238" edge="1">
          <mxGeometry width="50" height="50" relative="1" as="geometry">
            <mxPoint x="100" y="1690" as="sourcePoint" />
            <mxPoint x="370" y="1770" as="targetPoint" />
          </mxGeometry>
        </mxCell>
        <mxCell id="29m7119C-wKjb6nLCyHt-240" value="[Valid Payment Information]" style="text;html=1;align=center;verticalAlign=middle;resizable=0;points=[];autosize=1;strokeColor=none;fillColor=none;" parent="29m7119C-wKjb6nLCyHt-178" vertex="1">
          <mxGeometry x="269.94" y="1830" width="170" height="30" as="geometry" />
        </mxCell>
        <mxCell id="1UZdqRzCrLyL6wv6ZtiY-13" value="" style="endArrow=classic;html=1;rounded=0;exitX=0.5;exitY=1;exitDx=0;exitDy=0;exitPerimeter=0;" parent="29m7119C-wKjb6nLCyHt-178" source="29m7119C-wKjb6nLCyHt-238" target="29m7119C-wKjb6nLCyHt-243" edge="1">
          <mxGeometry width="50" height="50" relative="1" as="geometry">
            <mxPoint x="100" y="1890" as="sourcePoint" />
            <mxPoint x="150" y="1840" as="targetPoint" />
          </mxGeometry>
        </mxCell>
        <mxCell id="1UZdqRzCrLyL6wv6ZtiY-14" value="" style="endArrow=classic;html=1;rounded=0;exitX=0;exitY=0.5;exitDx=0;exitDy=0;exitPerimeter=0;edgeStyle=orthogonalEdgeStyle;" parent="29m7119C-wKjb6nLCyHt-178" source="29m7119C-wKjb6nLCyHt-238" target="29m7119C-wKjb6nLCyHt-224" edge="1">
          <mxGeometry width="50" height="50" relative="1" as="geometry">
            <mxPoint x="40" y="1880" as="sourcePoint" />
            <mxPoint x="90" y="1830" as="targetPoint" />
          </mxGeometry>
        </mxCell>
        <mxCell id="Gt7SG_tqPe_O46G-OhOc-1" value="" style="endArrow=classic;html=1;rounded=0;entryX=0.071;entryY=0.094;entryDx=0;entryDy=0;entryPerimeter=0;edgeStyle=orthogonalEdgeStyle;" parent="29m7119C-wKjb6nLCyHt-178" source="29m7119C-wKjb6nLCyHt-187" target="29m7119C-wKjb6nLCyHt-298" edge="1">
          <mxGeometry width="50" height="50" relative="1" as="geometry">
            <mxPoint x="280" y="880" as="sourcePoint" />
            <mxPoint x="330" y="830" as="targetPoint" />
          </mxGeometry>
        </mxCell>
        <mxCell id="29m7119C-wKjb6nLCyHt-280" value="" style="endArrow=classic;html=1;rounded=0;edgeStyle=orthogonalEdgeStyle;" parent="29m7119C-wKjb6nLCyHt-140" source="29m7119C-wKjb6nLCyHt-166" target="29m7119C-wKjb6nLCyHt-184" edge="1">
          <mxGeometry width="50" height="50" relative="1" as="geometry">
            <mxPoint x="1050" y="670" as="sourcePoint" />
            <mxPoint x="1100" y="620" as="targetPoint" />
            <Array as="points">
              <mxPoint x="925" y="640" />
              <mxPoint x="1295" y="640" />
            </Array>
          </mxGeometry>
        </mxCell>
        <mxCell id="29m7119C-wKjb6nLCyHt-281" value="" style="endArrow=classic;html=1;rounded=0;edgeStyle=orthogonalEdgeStyle;" parent="29m7119C-wKjb6nLCyHt-140" source="29m7119C-wKjb6nLCyHt-165" target="29m7119C-wKjb6nLCyHt-183" edge="1">
          <mxGeometry width="50" height="50" relative="1" as="geometry">
            <mxPoint x="810" y="710" as="sourcePoint" />
            <mxPoint x="860" y="660" as="targetPoint" />
            <Array as="points">
              <mxPoint x="855" y="660" />
              <mxPoint x="1200" y="660" />
            </Array>
          </mxGeometry>
        </mxCell>
        <mxCell id="29m7119C-wKjb6nLCyHt-282" value="" style="endArrow=classic;html=1;rounded=0;edgeStyle=orthogonalEdgeStyle;" parent="29m7119C-wKjb6nLCyHt-140" source="29m7119C-wKjb6nLCyHt-164" target="29m7119C-wKjb6nLCyHt-185" edge="1">
          <mxGeometry width="50" height="50" relative="1" as="geometry">
            <mxPoint x="810" y="730" as="sourcePoint" />
            <mxPoint x="860" y="680" as="targetPoint" />
            <Array as="points">
              <mxPoint x="784" y="680" />
              <mxPoint x="1110" y="680" />
            </Array>
          </mxGeometry>
        </mxCell>
        <mxCell id="29m7119C-wKjb6nLCyHt-283" value="" style="endArrow=classic;html=1;rounded=0;edgeStyle=orthogonalEdgeStyle;" parent="29m7119C-wKjb6nLCyHt-140" source="29m7119C-wKjb6nLCyHt-163" target="29m7119C-wKjb6nLCyHt-186" edge="1">
          <mxGeometry width="50" height="50" relative="1" as="geometry">
            <mxPoint x="730" y="750" as="sourcePoint" />
            <mxPoint x="780" y="700" as="targetPoint" />
            <Array as="points">
              <mxPoint x="714" y="700" />
              <mxPoint x="1035" y="700" />
            </Array>
          </mxGeometry>
        </mxCell>
        <mxCell id="29m7119C-wKjb6nLCyHt-294" value="" style="endArrow=classic;html=1;rounded=0;entryX=0.5;entryY=0;entryDx=0;entryDy=0;entryPerimeter=0;edgeStyle=orthogonalEdgeStyle;" parent="29m7119C-wKjb6nLCyHt-140" source="29m7119C-wKjb6nLCyHt-203" target="29m7119C-wKjb6nLCyHt-244" edge="1">
          <mxGeometry width="50" height="50" relative="1" as="geometry">
            <mxPoint x="360" y="1030" as="sourcePoint" />
            <mxPoint x="1170" y="1220" as="targetPoint" />
            <Array as="points">
              <mxPoint x="515" y="1280" />
              <mxPoint x="1220" y="1280" />
            </Array>
          </mxGeometry>
        </mxCell>
        <mxCell id="29m7119C-wKjb6nLCyHt-295" value="" style="endArrow=classic;html=1;rounded=0;exitX=0.5;exitY=1;exitDx=0;exitDy=0;edgeStyle=orthogonalEdgeStyle;" parent="29m7119C-wKjb6nLCyHt-140" source="29m7119C-wKjb6nLCyHt-170" target="29m7119C-wKjb6nLCyHt-187" edge="1">
          <mxGeometry width="50" height="50" relative="1" as="geometry">
            <mxPoint x="598.75" y="870" as="sourcePoint" />
            <mxPoint x="648.75" y="820" as="targetPoint" />
            <Array as="points">
              <mxPoint x="635" y="840" />
              <mxPoint x="1365" y="840" />
            </Array>
          </mxGeometry>
        </mxCell>
        <mxCell id="29m7119C-wKjb6nLCyHt-302" value="" style="endArrow=classic;html=1;rounded=0;exitX=0.5;exitY=1;exitDx=0;exitDy=0;edgeStyle=orthogonalEdgeStyle;" parent="29m7119C-wKjb6nLCyHt-140" source="29m7119C-wKjb6nLCyHt-298" target="29m7119C-wKjb6nLCyHt-202" edge="1">
          <mxGeometry width="50" height="50" relative="1" as="geometry">
            <mxPoint x="1090" y="950" as="sourcePoint" />
            <mxPoint x="1140" y="900" as="targetPoint" />
            <Array as="points">
              <mxPoint x="790" y="965" />
            </Array>
          </mxGeometry>
        </mxCell>
        <mxCell id="1UZdqRzCrLyL6wv6ZtiY-6" value="" style="endArrow=classic;html=1;rounded=0;exitX=0;exitY=0.5;exitDx=0;exitDy=0;exitPerimeter=0;entryX=1;entryY=0.5;entryDx=0;entryDy=0;entryPerimeter=0;" parent="29m7119C-wKjb6nLCyHt-140" source="29m7119C-wKjb6nLCyHt-244" target="1UZdqRzCrLyL6wv6ZtiY-17" edge="1">
          <mxGeometry width="50" height="50" relative="1" as="geometry">
            <mxPoint x="1070" y="1410" as="sourcePoint" />
            <mxPoint x="480" y="1327" as="targetPoint" />
          </mxGeometry>
        </mxCell>
        <mxCell id="1UZdqRzCrLyL6wv6ZtiY-8" value="" style="endArrow=classic;html=1;rounded=0;exitX=0;exitY=0.5;exitDx=0;exitDy=0;exitPerimeter=0;entryX=0.5;entryY=1;entryDx=0;entryDy=0;entryPerimeter=0;edgeStyle=orthogonalEdgeStyle;" parent="29m7119C-wKjb6nLCyHt-140" source="29m7119C-wKjb6nLCyHt-218" target="1UZdqRzCrLyL6wv6ZtiY-17" edge="1">
          <mxGeometry width="50" height="50" relative="1" as="geometry">
            <mxPoint x="490" y="1500" as="sourcePoint" />
            <mxPoint x="370" y="1465" as="targetPoint" />
          </mxGeometry>
        </mxCell>
        <mxCell id="1UZdqRzCrLyL6wv6ZtiY-18" value="" style="endArrow=classic;html=1;rounded=0;entryX=0;entryY=0.5;entryDx=0;entryDy=0;entryPerimeter=0;edgeStyle=orthogonalEdgeStyle;" parent="29m7119C-wKjb6nLCyHt-140" source="29m7119C-wKjb6nLCyHt-243" target="1UZdqRzCrLyL6wv6ZtiY-17" edge="1">
          <mxGeometry width="50" height="50" relative="1" as="geometry">
            <mxPoint x="1080" y="2000" as="sourcePoint" />
            <mxPoint x="1130" y="1950" as="targetPoint" />
            <Array as="points">
              <mxPoint x="340" y="1905" />
              <mxPoint x="340" y="1327" />
            </Array>
          </mxGeometry>
        </mxCell>
        <mxCell id="1UZdqRzCrLyL6wv6ZtiY-21" value="Account Creation Activity Diagram" style="swimlane;childLayout=stackLayout;resizeParent=1;resizeParentMax=0;startSize=20;html=1;" parent="1" vertex="1">
          <mxGeometry x="20" y="4410" width="1140" height="3380" as="geometry" />
        </mxCell>
        <mxCell id="1UZdqRzCrLyL6wv6ZtiY-42" value="" style="endArrow=classic;html=1;rounded=0;edgeStyle=orthogonalEdgeStyle;" parent="1UZdqRzCrLyL6wv6ZtiY-21" source="1UZdqRzCrLyL6wv6ZtiY-29" target="1UZdqRzCrLyL6wv6ZtiY-34" edge="1">
          <mxGeometry width="50" height="50" relative="1" as="geometry">
            <mxPoint x="420" y="280" as="sourcePoint" />
            <mxPoint x="470" y="230" as="targetPoint" />
          </mxGeometry>
        </mxCell>
        <mxCell id="1UZdqRzCrLyL6wv6ZtiY-46" value="" style="endArrow=classic;html=1;rounded=0;exitX=0;exitY=0.5;exitDx=0;exitDy=0;edgeStyle=orthogonalEdgeStyle;" parent="1UZdqRzCrLyL6wv6ZtiY-21" source="1UZdqRzCrLyL6wv6ZtiY-41" target="1UZdqRzCrLyL6wv6ZtiY-29" edge="1">
          <mxGeometry width="50" height="50" relative="1" as="geometry">
            <mxPoint x="670" y="550" as="sourcePoint" />
            <mxPoint x="720" y="500" as="targetPoint" />
          </mxGeometry>
        </mxCell>
        <mxCell id="1UZdqRzCrLyL6wv6ZtiY-47" value="" style="endArrow=classic;html=1;rounded=0;exitX=0.5;exitY=1;exitDx=0;exitDy=0;edgeStyle=orthogonalEdgeStyle;" parent="1UZdqRzCrLyL6wv6ZtiY-21" source="1UZdqRzCrLyL6wv6ZtiY-41" target="1UZdqRzCrLyL6wv6ZtiY-30" edge="1">
          <mxGeometry width="50" height="50" relative="1" as="geometry">
            <mxPoint x="860" y="560" as="sourcePoint" />
            <mxPoint x="910" y="510" as="targetPoint" />
          </mxGeometry>
        </mxCell>
        <mxCell id="1UZdqRzCrLyL6wv6ZtiY-48" value="" style="endArrow=classic;html=1;rounded=0;edgeStyle=orthogonalEdgeStyle;" parent="1UZdqRzCrLyL6wv6ZtiY-21" source="1UZdqRzCrLyL6wv6ZtiY-30" target="1UZdqRzCrLyL6wv6ZtiY-35" edge="1">
          <mxGeometry width="50" height="50" relative="1" as="geometry">
            <mxPoint x="430" y="570" as="sourcePoint" />
            <mxPoint x="480" y="520" as="targetPoint" />
          </mxGeometry>
        </mxCell>
        <mxCell id="1UZdqRzCrLyL6wv6ZtiY-54" value="" style="endArrow=classic;html=1;rounded=0;exitX=0;exitY=0.5;exitDx=0;exitDy=0;edgeStyle=orthogonalEdgeStyle;" parent="1UZdqRzCrLyL6wv6ZtiY-21" source="1UZdqRzCrLyL6wv6ZtiY-50" target="1UZdqRzCrLyL6wv6ZtiY-30" edge="1">
          <mxGeometry width="50" height="50" relative="1" as="geometry">
            <mxPoint x="430" y="770" as="sourcePoint" />
            <mxPoint x="480" y="720" as="targetPoint" />
          </mxGeometry>
        </mxCell>
        <mxCell id="1UZdqRzCrLyL6wv6ZtiY-55" value="" style="endArrow=classic;html=1;rounded=0;exitX=0.5;exitY=1;exitDx=0;exitDy=0;edgeStyle=orthogonalEdgeStyle;" parent="1UZdqRzCrLyL6wv6ZtiY-21" source="1UZdqRzCrLyL6wv6ZtiY-50" target="1UZdqRzCrLyL6wv6ZtiY-31" edge="1">
          <mxGeometry width="50" height="50" relative="1" as="geometry">
            <mxPoint x="730" y="820" as="sourcePoint" />
            <mxPoint x="780" y="770" as="targetPoint" />
          </mxGeometry>
        </mxCell>
        <mxCell id="1UZdqRzCrLyL6wv6ZtiY-58" value="" style="endArrow=classic;html=1;rounded=0;edgeStyle=orthogonalEdgeStyle;" parent="1UZdqRzCrLyL6wv6ZtiY-21" source="1UZdqRzCrLyL6wv6ZtiY-31" target="1UZdqRzCrLyL6wv6ZtiY-36" edge="1">
          <mxGeometry width="50" height="50" relative="1" as="geometry">
            <mxPoint x="450" y="830" as="sourcePoint" />
            <mxPoint x="500" y="780" as="targetPoint" />
          </mxGeometry>
        </mxCell>
        <mxCell id="1UZdqRzCrLyL6wv6ZtiY-61" value="" style="endArrow=classic;html=1;rounded=0;exitX=0;exitY=0.5;exitDx=0;exitDy=0;edgeStyle=orthogonalEdgeStyle;" parent="1UZdqRzCrLyL6wv6ZtiY-21" source="1UZdqRzCrLyL6wv6ZtiY-56" target="1UZdqRzCrLyL6wv6ZtiY-31" edge="1">
          <mxGeometry width="50" height="50" relative="1" as="geometry">
            <mxPoint x="670" y="1060" as="sourcePoint" />
            <mxPoint x="720" y="1010" as="targetPoint" />
          </mxGeometry>
        </mxCell>
        <mxCell id="1UZdqRzCrLyL6wv6ZtiY-66" value="" style="endArrow=classic;html=1;rounded=0;edgeStyle=orthogonalEdgeStyle;" parent="1UZdqRzCrLyL6wv6ZtiY-21" source="1UZdqRzCrLyL6wv6ZtiY-62" target="1UZdqRzCrLyL6wv6ZtiY-63" edge="1">
          <mxGeometry width="50" height="50" relative="1" as="geometry">
            <mxPoint x="720" y="1170" as="sourcePoint" />
            <mxPoint x="770" y="1120" as="targetPoint" />
          </mxGeometry>
        </mxCell>
        <mxCell id="1UZdqRzCrLyL6wv6ZtiY-67" value="" style="endArrow=classic;html=1;rounded=0;exitX=0;exitY=0.5;exitDx=0;exitDy=0;edgeStyle=orthogonalEdgeStyle;" parent="1UZdqRzCrLyL6wv6ZtiY-21" source="1UZdqRzCrLyL6wv6ZtiY-64" target="1UZdqRzCrLyL6wv6ZtiY-62" edge="1">
          <mxGeometry width="50" height="50" relative="1" as="geometry">
            <mxPoint x="940" y="1400" as="sourcePoint" />
            <mxPoint x="990" y="1350" as="targetPoint" />
          </mxGeometry>
        </mxCell>
        <mxCell id="1UZdqRzCrLyL6wv6ZtiY-70" value="" style="endArrow=classic;html=1;rounded=0;exitX=0.5;exitY=1;exitDx=0;exitDy=0;edgeStyle=orthogonalEdgeStyle;" parent="1UZdqRzCrLyL6wv6ZtiY-21" source="1UZdqRzCrLyL6wv6ZtiY-56" target="1UZdqRzCrLyL6wv6ZtiY-62" edge="1">
          <mxGeometry width="50" height="50" relative="1" as="geometry">
            <mxPoint x="650" y="1110" as="sourcePoint" />
            <mxPoint x="700" y="1060" as="targetPoint" />
          </mxGeometry>
        </mxCell>
        <mxCell id="1UZdqRzCrLyL6wv6ZtiY-76" value="" style="endArrow=classic;html=1;rounded=0;exitX=1;exitY=0.5;exitDx=0;exitDy=0;edgeStyle=orthogonalEdgeStyle;" parent="1UZdqRzCrLyL6wv6ZtiY-21" source="1UZdqRzCrLyL6wv6ZtiY-73" target="1UZdqRzCrLyL6wv6ZtiY-78" edge="1">
          <mxGeometry width="50" height="50" relative="1" as="geometry">
            <mxPoint x="350" y="1670" as="sourcePoint" />
            <mxPoint x="400" y="1620" as="targetPoint" />
          </mxGeometry>
        </mxCell>
        <mxCell id="1UZdqRzCrLyL6wv6ZtiY-88" value="" style="endArrow=classic;html=1;rounded=0;edgeStyle=orthogonalEdgeStyle;" parent="1UZdqRzCrLyL6wv6ZtiY-21" source="1UZdqRzCrLyL6wv6ZtiY-84" target="1UZdqRzCrLyL6wv6ZtiY-85" edge="1">
          <mxGeometry width="50" height="50" relative="1" as="geometry">
            <mxPoint x="645" y="1830" as="sourcePoint" />
            <mxPoint x="695" y="1780" as="targetPoint" />
            <Array as="points">
              <mxPoint x="860" y="2320" />
            </Array>
          </mxGeometry>
        </mxCell>
        <mxCell id="1UZdqRzCrLyL6wv6ZtiY-90" value="" style="endArrow=classic;html=1;rounded=0;exitX=0;exitY=0.5;exitDx=0;exitDy=0;exitPerimeter=0;edgeStyle=orthogonalEdgeStyle;" parent="1UZdqRzCrLyL6wv6ZtiY-21" source="1UZdqRzCrLyL6wv6ZtiY-86" target="1UZdqRzCrLyL6wv6ZtiY-84" edge="1">
          <mxGeometry width="50" height="50" relative="1" as="geometry">
            <mxPoint x="915" y="2080" as="sourcePoint" />
            <mxPoint x="965" y="2030" as="targetPoint" />
          </mxGeometry>
        </mxCell>
        <mxCell id="1UZdqRzCrLyL6wv6ZtiY-95" value="" style="endArrow=classic;html=1;rounded=0;exitX=0.5;exitY=1;exitDx=0;exitDy=0;exitPerimeter=0;edgeStyle=orthogonalEdgeStyle;" parent="1UZdqRzCrLyL6wv6ZtiY-21" source="1UZdqRzCrLyL6wv6ZtiY-86" target="1UZdqRzCrLyL6wv6ZtiY-94" edge="1">
          <mxGeometry width="50" height="50" relative="1" as="geometry">
            <mxPoint x="840" y="2010" as="sourcePoint" />
            <mxPoint x="890" y="1960" as="targetPoint" />
          </mxGeometry>
        </mxCell>
        <mxCell id="1UZdqRzCrLyL6wv6ZtiY-97" value="" style="endArrow=classic;html=1;rounded=0;edgeStyle=orthogonalEdgeStyle;" parent="1UZdqRzCrLyL6wv6ZtiY-21" source="1UZdqRzCrLyL6wv6ZtiY-94" target="1UZdqRzCrLyL6wv6ZtiY-96" edge="1">
          <mxGeometry width="50" height="50" relative="1" as="geometry">
            <mxPoint x="610" y="2070" as="sourcePoint" />
            <mxPoint x="660" y="2020" as="targetPoint" />
          </mxGeometry>
        </mxCell>
        <mxCell id="1UZdqRzCrLyL6wv6ZtiY-101" value="" style="endArrow=classic;html=1;rounded=0;exitX=0;exitY=0.5;exitDx=0;exitDy=0;exitPerimeter=0;edgeStyle=orthogonalEdgeStyle;" parent="1UZdqRzCrLyL6wv6ZtiY-21" source="1UZdqRzCrLyL6wv6ZtiY-99" target="1UZdqRzCrLyL6wv6ZtiY-94" edge="1">
          <mxGeometry width="50" height="50" relative="1" as="geometry">
            <mxPoint x="740" y="2170" as="sourcePoint" />
            <mxPoint x="790" y="2120" as="targetPoint" />
          </mxGeometry>
        </mxCell>
        <mxCell id="1UZdqRzCrLyL6wv6ZtiY-109" value="" style="endArrow=classic;html=1;rounded=0;edgeStyle=orthogonalEdgeStyle;" parent="1UZdqRzCrLyL6wv6ZtiY-21" source="1UZdqRzCrLyL6wv6ZtiY-104" target="1UZdqRzCrLyL6wv6ZtiY-105" edge="1">
          <mxGeometry width="50" height="50" relative="1" as="geometry">
            <mxPoint x="765" y="2390" as="sourcePoint" />
            <mxPoint x="815" y="2340" as="targetPoint" />
            <Array as="points">
              <mxPoint x="860" y="2840" />
            </Array>
          </mxGeometry>
        </mxCell>
        <mxCell id="1UZdqRzCrLyL6wv6ZtiY-110" value="" style="endArrow=classic;html=1;rounded=0;exitX=0;exitY=0.5;exitDx=0;exitDy=0;exitPerimeter=0;edgeStyle=orthogonalEdgeStyle;" parent="1UZdqRzCrLyL6wv6ZtiY-21" source="1UZdqRzCrLyL6wv6ZtiY-106" target="1UZdqRzCrLyL6wv6ZtiY-104" edge="1">
          <mxGeometry width="50" height="50" relative="1" as="geometry">
            <mxPoint x="895" y="2490" as="sourcePoint" />
            <mxPoint x="945" y="2440" as="targetPoint" />
          </mxGeometry>
        </mxCell>
        <mxCell id="1UZdqRzCrLyL6wv6ZtiY-113" value="" style="endArrow=classic;html=1;rounded=0;exitX=0.5;exitY=1;exitDx=0;exitDy=0;exitPerimeter=0;edgeStyle=orthogonalEdgeStyle;" parent="1UZdqRzCrLyL6wv6ZtiY-21" source="1UZdqRzCrLyL6wv6ZtiY-99" target="1UZdqRzCrLyL6wv6ZtiY-104" edge="1">
          <mxGeometry width="50" height="50" relative="1" as="geometry">
            <mxPoint x="660" y="2250" as="sourcePoint" />
            <mxPoint x="710" y="2200" as="targetPoint" />
          </mxGeometry>
        </mxCell>
        <mxCell id="1UZdqRzCrLyL6wv6ZtiY-120" value="" style="endArrow=classic;html=1;rounded=0;edgeStyle=orthogonalEdgeStyle;" parent="1UZdqRzCrLyL6wv6ZtiY-21" source="1UZdqRzCrLyL6wv6ZtiY-115" target="1UZdqRzCrLyL6wv6ZtiY-116" edge="1">
          <mxGeometry width="50" height="50" relative="1" as="geometry">
            <mxPoint x="745" y="1860" as="sourcePoint" />
            <mxPoint x="795" y="1810" as="targetPoint" />
          </mxGeometry>
        </mxCell>
        <mxCell id="1UZdqRzCrLyL6wv6ZtiY-121" value="" style="endArrow=classic;html=1;rounded=0;exitX=0;exitY=0.5;exitDx=0;exitDy=0;exitPerimeter=0;edgeStyle=orthogonalEdgeStyle;" parent="1UZdqRzCrLyL6wv6ZtiY-21" source="1UZdqRzCrLyL6wv6ZtiY-117" target="1UZdqRzCrLyL6wv6ZtiY-115" edge="1">
          <mxGeometry width="50" height="50" relative="1" as="geometry">
            <mxPoint x="875" y="1960" as="sourcePoint" />
            <mxPoint x="925" y="1910" as="targetPoint" />
          </mxGeometry>
        </mxCell>
        <mxCell id="1UZdqRzCrLyL6wv6ZtiY-124" value="" style="endArrow=classic;html=1;rounded=0;exitX=0.5;exitY=1;exitDx=0;exitDy=0;exitPerimeter=0;edgeStyle=orthogonalEdgeStyle;" parent="1UZdqRzCrLyL6wv6ZtiY-21" source="1UZdqRzCrLyL6wv6ZtiY-117" target="1UZdqRzCrLyL6wv6ZtiY-84" edge="1">
          <mxGeometry width="50" height="50" relative="1" as="geometry">
            <mxPoint x="460" y="1970" as="sourcePoint" />
            <mxPoint x="510" y="1920" as="targetPoint" />
          </mxGeometry>
        </mxCell>
        <mxCell id="1UZdqRzCrLyL6wv6ZtiY-22" value="User" style="swimlane;startSize=20;html=1;" parent="1UZdqRzCrLyL6wv6ZtiY-21" vertex="1">
          <mxGeometry y="20" width="550" height="3360" as="geometry" />
        </mxCell>
        <mxCell id="1UZdqRzCrLyL6wv6ZtiY-25" value="" style="ellipse;whiteSpace=wrap;html=1;rounded=0;shadow=0;comic=0;labelBackgroundColor=none;strokeWidth=1;fillColor=#000000;fontFamily=Verdana;fontSize=12;align=center;" parent="1UZdqRzCrLyL6wv6ZtiY-22" vertex="1">
          <mxGeometry x="255" y="60" width="40" height="40" as="geometry" />
        </mxCell>
        <mxCell id="1UZdqRzCrLyL6wv6ZtiY-26" value="" style="endArrow=classic;html=1;rounded=0;" parent="1UZdqRzCrLyL6wv6ZtiY-22" source="1UZdqRzCrLyL6wv6ZtiY-25" target="1UZdqRzCrLyL6wv6ZtiY-27" edge="1">
          <mxGeometry width="50" height="50" relative="1" as="geometry">
            <mxPoint x="300" y="200" as="sourcePoint" />
            <mxPoint x="350" y="150" as="targetPoint" />
          </mxGeometry>
        </mxCell>
        <mxCell id="1UZdqRzCrLyL6wv6ZtiY-27" value="Create Account" style="rounded=1;whiteSpace=wrap;html=1;" parent="1UZdqRzCrLyL6wv6ZtiY-22" vertex="1">
          <mxGeometry x="215" y="140" width="120" height="60" as="geometry" />
        </mxCell>
        <mxCell id="1UZdqRzCrLyL6wv6ZtiY-28" value="" style="endArrow=classic;html=1;rounded=0;edgeStyle=orthogonalEdgeStyle;" parent="1UZdqRzCrLyL6wv6ZtiY-22" source="1UZdqRzCrLyL6wv6ZtiY-27" target="1UZdqRzCrLyL6wv6ZtiY-29" edge="1">
          <mxGeometry width="50" height="50" relative="1" as="geometry">
            <mxPoint x="90" y="120" as="sourcePoint" />
            <mxPoint x="140" y="70" as="targetPoint" />
          </mxGeometry>
        </mxCell>
        <mxCell id="1UZdqRzCrLyL6wv6ZtiY-29" value="Enter First Name" style="rounded=1;whiteSpace=wrap;html=1;" parent="1UZdqRzCrLyL6wv6ZtiY-22" vertex="1">
          <mxGeometry x="217.5" y="240" width="115" height="30" as="geometry" />
        </mxCell>
        <mxCell id="1UZdqRzCrLyL6wv6ZtiY-30" value="Enter Last Name" style="rounded=1;whiteSpace=wrap;html=1;" parent="1UZdqRzCrLyL6wv6ZtiY-22" vertex="1">
          <mxGeometry x="220" y="510" width="115" height="30" as="geometry" />
        </mxCell>
        <mxCell id="1UZdqRzCrLyL6wv6ZtiY-31" value="Enter Date of Birth" style="rounded=1;whiteSpace=wrap;html=1;" parent="1UZdqRzCrLyL6wv6ZtiY-22" vertex="1">
          <mxGeometry x="220" y="790" width="115" height="30" as="geometry" />
        </mxCell>
        <mxCell id="1UZdqRzCrLyL6wv6ZtiY-62" value="Enter Username" style="rounded=1;whiteSpace=wrap;html=1;" parent="1UZdqRzCrLyL6wv6ZtiY-22" vertex="1">
          <mxGeometry x="220" y="1100" width="115" height="30" as="geometry" />
        </mxCell>
        <mxCell id="1UZdqRzCrLyL6wv6ZtiY-40" value="Choose Membership Type" style="rounded=1;whiteSpace=wrap;html=1;" parent="1UZdqRzCrLyL6wv6ZtiY-22" vertex="1">
          <mxGeometry x="187.5" y="1770" width="180" height="30" as="geometry" />
        </mxCell>
        <mxCell id="1UZdqRzCrLyL6wv6ZtiY-72" value="" style="endArrow=classic;html=1;rounded=0;entryX=0.5;entryY=0;entryDx=0;entryDy=0;" parent="1UZdqRzCrLyL6wv6ZtiY-22" source="1UZdqRzCrLyL6wv6ZtiY-40" target="1UZdqRzCrLyL6wv6ZtiY-73" edge="1">
          <mxGeometry width="50" height="50" relative="1" as="geometry">
            <mxPoint x="290" y="1900" as="sourcePoint" />
            <mxPoint x="340" y="1850" as="targetPoint" />
          </mxGeometry>
        </mxCell>
        <mxCell id="1UZdqRzCrLyL6wv6ZtiY-73" value="" style="rhombus;whiteSpace=wrap;html=1;" parent="1UZdqRzCrLyL6wv6ZtiY-22" vertex="1">
          <mxGeometry x="262.5" y="1850" width="30" height="30" as="geometry" />
        </mxCell>
        <mxCell id="1UZdqRzCrLyL6wv6ZtiY-74" value="[Premium Membership]" style="text;html=1;align=center;verticalAlign=middle;resizable=0;points=[];autosize=1;strokeColor=none;fillColor=none;" parent="1UZdqRzCrLyL6wv6ZtiY-22" vertex="1">
          <mxGeometry x="95" y="1850" width="160" height="30" as="geometry" />
        </mxCell>
        <mxCell id="1UZdqRzCrLyL6wv6ZtiY-75" value="[Regular Membership]" style="text;html=1;align=center;verticalAlign=middle;resizable=0;points=[];autosize=1;strokeColor=none;fillColor=none;" parent="1UZdqRzCrLyL6wv6ZtiY-22" vertex="1">
          <mxGeometry x="292.5" y="1830" width="150" height="30" as="geometry" />
        </mxCell>
        <mxCell id="1UZdqRzCrLyL6wv6ZtiY-84" value="Enter Credit Card Number" style="rounded=1;whiteSpace=wrap;html=1;" parent="1UZdqRzCrLyL6wv6ZtiY-22" vertex="1">
          <mxGeometry x="235" y="2275" width="85" height="50" as="geometry" />
        </mxCell>
        <mxCell id="1UZdqRzCrLyL6wv6ZtiY-91" value="" style="endArrow=classic;html=1;rounded=0;exitX=0.5;exitY=1;exitDx=0;exitDy=0;edgeStyle=orthogonalEdgeStyle;" parent="1UZdqRzCrLyL6wv6ZtiY-22" source="1UZdqRzCrLyL6wv6ZtiY-73" edge="1">
          <mxGeometry width="50" height="50" relative="1" as="geometry">
            <mxPoint x="320" y="1940" as="sourcePoint" />
            <mxPoint x="278" y="2030" as="targetPoint" />
          </mxGeometry>
        </mxCell>
        <mxCell id="1UZdqRzCrLyL6wv6ZtiY-94" value="Enter Card Security Code" style="rounded=1;whiteSpace=wrap;html=1;" parent="1UZdqRzCrLyL6wv6ZtiY-22" vertex="1">
          <mxGeometry x="235" y="2535" width="85" height="50" as="geometry" />
        </mxCell>
        <mxCell id="1UZdqRzCrLyL6wv6ZtiY-104" value="Enter Card Expiration Date" style="rounded=1;whiteSpace=wrap;html=1;" parent="1UZdqRzCrLyL6wv6ZtiY-22" vertex="1">
          <mxGeometry x="235" y="2805" width="85" height="50" as="geometry" />
        </mxCell>
        <mxCell id="1UZdqRzCrLyL6wv6ZtiY-115" value="Enter Cardholder Name" style="rounded=1;whiteSpace=wrap;html=1;" parent="1UZdqRzCrLyL6wv6ZtiY-22" vertex="1">
          <mxGeometry x="235" y="2030" width="85" height="50" as="geometry" />
        </mxCell>
        <mxCell id="1UZdqRzCrLyL6wv6ZtiY-128" value="Enter Password" style="rounded=1;whiteSpace=wrap;html=1;" parent="1UZdqRzCrLyL6wv6ZtiY-22" vertex="1">
          <mxGeometry x="217.5" y="1400" width="115" height="30" as="geometry" />
        </mxCell>
        <mxCell id="1UZdqRzCrLyL6wv6ZtiY-140" value="Reenter Password" style="rounded=1;whiteSpace=wrap;html=1;" parent="1UZdqRzCrLyL6wv6ZtiY-22" vertex="1">
          <mxGeometry x="217.5" y="1605" width="115" height="30" as="geometry" />
        </mxCell>
        <mxCell id="1UZdqRzCrLyL6wv6ZtiY-23" value="System" style="swimlane;startSize=20;html=1;" parent="1UZdqRzCrLyL6wv6ZtiY-21" vertex="1">
          <mxGeometry x="550" y="20" width="590" height="3360" as="geometry" />
        </mxCell>
        <mxCell id="1UZdqRzCrLyL6wv6ZtiY-34" value="Validate First Name Format" style="rounded=1;whiteSpace=wrap;html=1;" parent="1UZdqRzCrLyL6wv6ZtiY-23" vertex="1">
          <mxGeometry x="220" y="340" width="180" height="30" as="geometry" />
        </mxCell>
        <mxCell id="1UZdqRzCrLyL6wv6ZtiY-35" value="Validate Last Name Format" style="rounded=1;whiteSpace=wrap;html=1;" parent="1UZdqRzCrLyL6wv6ZtiY-23" vertex="1">
          <mxGeometry x="220" y="600" width="180" height="30" as="geometry" />
        </mxCell>
        <mxCell id="1UZdqRzCrLyL6wv6ZtiY-36" value="Validate Date of Birth" style="rounded=1;whiteSpace=wrap;html=1;" parent="1UZdqRzCrLyL6wv6ZtiY-23" vertex="1">
          <mxGeometry x="220" y="920" width="180" height="30" as="geometry" />
        </mxCell>
        <mxCell id="1UZdqRzCrLyL6wv6ZtiY-41" value="" style="rhombus;whiteSpace=wrap;html=1;" parent="1UZdqRzCrLyL6wv6ZtiY-23" vertex="1">
          <mxGeometry x="295" y="420" width="30" height="30" as="geometry" />
        </mxCell>
        <mxCell id="1UZdqRzCrLyL6wv6ZtiY-43" value="" style="endArrow=classic;html=1;rounded=0;entryX=0.5;entryY=0;entryDx=0;entryDy=0;" parent="1UZdqRzCrLyL6wv6ZtiY-23" source="1UZdqRzCrLyL6wv6ZtiY-34" target="1UZdqRzCrLyL6wv6ZtiY-41" edge="1">
          <mxGeometry width="50" height="50" relative="1" as="geometry">
            <mxPoint x="200" y="480" as="sourcePoint" />
            <mxPoint x="250" y="430" as="targetPoint" />
          </mxGeometry>
        </mxCell>
        <mxCell id="1UZdqRzCrLyL6wv6ZtiY-44" value="[Valid First Name Format]" style="text;html=1;align=center;verticalAlign=middle;resizable=0;points=[];autosize=1;strokeColor=none;fillColor=none;" parent="1UZdqRzCrLyL6wv6ZtiY-23" vertex="1">
          <mxGeometry x="325" y="440" width="170" height="30" as="geometry" />
        </mxCell>
        <mxCell id="1UZdqRzCrLyL6wv6ZtiY-45" value="[Invalid First Name Format]" style="text;html=1;align=center;verticalAlign=middle;resizable=0;points=[];autosize=1;strokeColor=none;fillColor=none;" parent="1UZdqRzCrLyL6wv6ZtiY-23" vertex="1">
          <mxGeometry x="120" y="398" width="180" height="30" as="geometry" />
        </mxCell>
        <mxCell id="1UZdqRzCrLyL6wv6ZtiY-49" value="" style="endArrow=classic;html=1;rounded=0;entryX=0.5;entryY=0;entryDx=0;entryDy=0;" parent="1UZdqRzCrLyL6wv6ZtiY-23" source="1UZdqRzCrLyL6wv6ZtiY-35" target="1UZdqRzCrLyL6wv6ZtiY-50" edge="1">
          <mxGeometry width="50" height="50" relative="1" as="geometry">
            <mxPoint x="140" y="640" as="sourcePoint" />
            <mxPoint x="190" y="590" as="targetPoint" />
          </mxGeometry>
        </mxCell>
        <mxCell id="1UZdqRzCrLyL6wv6ZtiY-50" value="" style="rhombus;whiteSpace=wrap;html=1;" parent="1UZdqRzCrLyL6wv6ZtiY-23" vertex="1">
          <mxGeometry x="295" y="690" width="30" height="30" as="geometry" />
        </mxCell>
        <mxCell id="1UZdqRzCrLyL6wv6ZtiY-52" value="[Invalid Last Name Format]" style="text;html=1;align=center;verticalAlign=middle;resizable=0;points=[];autosize=1;strokeColor=none;fillColor=none;" parent="1UZdqRzCrLyL6wv6ZtiY-23" vertex="1">
          <mxGeometry x="120" y="670" width="180" height="30" as="geometry" />
        </mxCell>
        <mxCell id="1UZdqRzCrLyL6wv6ZtiY-53" value="[Valid Last Name Format]" style="text;html=1;align=center;verticalAlign=middle;resizable=0;points=[];autosize=1;strokeColor=none;fillColor=none;" parent="1UZdqRzCrLyL6wv6ZtiY-23" vertex="1">
          <mxGeometry x="320" y="710" width="170" height="30" as="geometry" />
        </mxCell>
        <mxCell id="1UZdqRzCrLyL6wv6ZtiY-56" value="" style="rhombus;whiteSpace=wrap;html=1;" parent="1UZdqRzCrLyL6wv6ZtiY-23" vertex="1">
          <mxGeometry x="295" y="1000" width="30" height="30" as="geometry" />
        </mxCell>
        <mxCell id="1UZdqRzCrLyL6wv6ZtiY-57" value="" style="endArrow=classic;html=1;rounded=0;entryX=0.5;entryY=0;entryDx=0;entryDy=0;" parent="1UZdqRzCrLyL6wv6ZtiY-23" source="1UZdqRzCrLyL6wv6ZtiY-36" target="1UZdqRzCrLyL6wv6ZtiY-56" edge="1">
          <mxGeometry width="50" height="50" relative="1" as="geometry">
            <mxPoint x="150" y="1010" as="sourcePoint" />
            <mxPoint x="200" y="960" as="targetPoint" />
          </mxGeometry>
        </mxCell>
        <mxCell id="1UZdqRzCrLyL6wv6ZtiY-59" value="[Valid Date of Birth]" style="text;html=1;align=center;verticalAlign=middle;resizable=0;points=[];autosize=1;strokeColor=none;fillColor=none;" parent="1UZdqRzCrLyL6wv6ZtiY-23" vertex="1">
          <mxGeometry x="335" y="1018" width="140" height="30" as="geometry" />
        </mxCell>
        <mxCell id="1UZdqRzCrLyL6wv6ZtiY-63" value="Validate Username" style="rounded=1;whiteSpace=wrap;html=1;" parent="1UZdqRzCrLyL6wv6ZtiY-23" vertex="1">
          <mxGeometry x="220" y="1210" width="180" height="30" as="geometry" />
        </mxCell>
        <mxCell id="1UZdqRzCrLyL6wv6ZtiY-64" value="" style="rhombus;whiteSpace=wrap;html=1;" parent="1UZdqRzCrLyL6wv6ZtiY-23" vertex="1">
          <mxGeometry x="295" y="1330" width="30" height="30" as="geometry" />
        </mxCell>
        <mxCell id="1UZdqRzCrLyL6wv6ZtiY-65" value="" style="endArrow=classic;html=1;rounded=0;entryX=0.5;entryY=0;entryDx=0;entryDy=0;" parent="1UZdqRzCrLyL6wv6ZtiY-23" source="1UZdqRzCrLyL6wv6ZtiY-63" target="1UZdqRzCrLyL6wv6ZtiY-64" edge="1">
          <mxGeometry width="50" height="50" relative="1" as="geometry">
            <mxPoint x="420" y="1350" as="sourcePoint" />
            <mxPoint x="470" y="1300" as="targetPoint" />
          </mxGeometry>
        </mxCell>
        <mxCell id="1UZdqRzCrLyL6wv6ZtiY-68" value="[Invalid Username]" style="text;html=1;align=center;verticalAlign=middle;resizable=0;points=[];autosize=1;strokeColor=none;fillColor=none;" parent="1UZdqRzCrLyL6wv6ZtiY-23" vertex="1">
          <mxGeometry x="155" y="1310" width="130" height="30" as="geometry" />
        </mxCell>
        <mxCell id="1UZdqRzCrLyL6wv6ZtiY-60" value="[Invalid Date of Birth]" style="text;html=1;align=center;verticalAlign=middle;resizable=0;points=[];autosize=1;strokeColor=none;fillColor=none;" parent="1UZdqRzCrLyL6wv6ZtiY-23" vertex="1">
          <mxGeometry x="150" y="978" width="150" height="30" as="geometry" />
        </mxCell>
        <mxCell id="1UZdqRzCrLyL6wv6ZtiY-69" value="[Valid Username]" style="text;html=1;align=center;verticalAlign=middle;resizable=0;points=[];autosize=1;strokeColor=none;fillColor=none;" parent="1UZdqRzCrLyL6wv6ZtiY-23" vertex="1">
          <mxGeometry x="325" y="1348" width="120" height="30" as="geometry" />
        </mxCell>
        <mxCell id="1UZdqRzCrLyL6wv6ZtiY-78" value="Create Regular Membership" style="rounded=1;whiteSpace=wrap;html=1;" parent="1UZdqRzCrLyL6wv6ZtiY-23" vertex="1">
          <mxGeometry x="220" y="1850" width="180" height="30" as="geometry" />
        </mxCell>
        <mxCell id="1UZdqRzCrLyL6wv6ZtiY-79" value="" style="group" parent="1UZdqRzCrLyL6wv6ZtiY-23" connectable="0" vertex="1">
          <mxGeometry x="287.5" y="3220" width="40" height="40" as="geometry" />
        </mxCell>
        <mxCell id="1UZdqRzCrLyL6wv6ZtiY-80" value="" style="group" parent="1UZdqRzCrLyL6wv6ZtiY-79" connectable="0" vertex="1">
          <mxGeometry width="40" height="40" as="geometry" />
        </mxCell>
        <mxCell id="1UZdqRzCrLyL6wv6ZtiY-81" value="" style="ellipse;whiteSpace=wrap;html=1;aspect=fixed;" parent="1UZdqRzCrLyL6wv6ZtiY-80" vertex="1">
          <mxGeometry width="40" height="40" as="geometry" />
        </mxCell>
        <mxCell id="1UZdqRzCrLyL6wv6ZtiY-82" value="" style="ellipse;whiteSpace=wrap;html=1;rounded=0;shadow=0;comic=0;labelBackgroundColor=none;strokeWidth=1;fillColor=#000000;fontFamily=Verdana;fontSize=12;align=center;" parent="1UZdqRzCrLyL6wv6ZtiY-80" vertex="1">
          <mxGeometry x="5" y="5" width="30" height="30" as="geometry" />
        </mxCell>
        <mxCell id="1UZdqRzCrLyL6wv6ZtiY-83" value="" style="endArrow=classic;html=1;rounded=0;entryX=1;entryY=0.5;entryDx=0;entryDy=0;edgeStyle=orthogonalEdgeStyle;entryPerimeter=0;" parent="1UZdqRzCrLyL6wv6ZtiY-23" source="1UZdqRzCrLyL6wv6ZtiY-78" target="1UZdqRzCrLyL6wv6ZtiY-152" edge="1">
          <mxGeometry width="50" height="50" relative="1" as="geometry">
            <mxPoint x="340" y="1800" as="sourcePoint" />
            <mxPoint x="390" y="1750" as="targetPoint" />
            <Array as="points">
              <mxPoint x="550" y="1865" />
              <mxPoint x="550" y="3175" />
            </Array>
          </mxGeometry>
        </mxCell>
        <mxCell id="1UZdqRzCrLyL6wv6ZtiY-85" value="Validate Credit Card Number Format" style="rounded=1;whiteSpace=wrap;html=1;" parent="1UZdqRzCrLyL6wv6ZtiY-23" vertex="1">
          <mxGeometry x="247.5" y="2370" width="120" height="30" as="geometry" />
        </mxCell>
        <mxCell id="1UZdqRzCrLyL6wv6ZtiY-86" value="" style="strokeWidth=2;html=1;shape=mxgraph.flowchart.decision;whiteSpace=wrap;" parent="1UZdqRzCrLyL6wv6ZtiY-23" vertex="1">
          <mxGeometry x="292.5" y="2440" width="30" height="30" as="geometry" />
        </mxCell>
        <mxCell id="1UZdqRzCrLyL6wv6ZtiY-89" value="" style="endArrow=classic;html=1;rounded=0;" parent="1UZdqRzCrLyL6wv6ZtiY-23" source="1UZdqRzCrLyL6wv6ZtiY-85" target="1UZdqRzCrLyL6wv6ZtiY-86" edge="1">
          <mxGeometry width="50" height="50" relative="1" as="geometry">
            <mxPoint x="422.5" y="2430" as="sourcePoint" />
            <mxPoint x="692.5" y="2510" as="targetPoint" />
          </mxGeometry>
        </mxCell>
        <mxCell id="1UZdqRzCrLyL6wv6ZtiY-92" value="[Invalid Credit Card Number Format]" style="text;html=1;align=center;verticalAlign=middle;resizable=0;points=[];autosize=1;strokeColor=none;fillColor=none;" parent="1UZdqRzCrLyL6wv6ZtiY-23" vertex="1">
          <mxGeometry x="52.5" y="2418" width="240" height="30" as="geometry" />
        </mxCell>
        <mxCell id="1UZdqRzCrLyL6wv6ZtiY-93" value="[Valid Credit Card Number Format]" style="text;html=1;align=center;verticalAlign=middle;resizable=0;points=[];autosize=1;strokeColor=none;fillColor=none;" parent="1UZdqRzCrLyL6wv6ZtiY-23" vertex="1">
          <mxGeometry x="317.5" y="2460" width="220" height="30" as="geometry" />
        </mxCell>
        <mxCell id="1UZdqRzCrLyL6wv6ZtiY-96" value="Validate Security Code Format" style="rounded=1;whiteSpace=wrap;html=1;" parent="1UZdqRzCrLyL6wv6ZtiY-23" vertex="1">
          <mxGeometry x="247.5" y="2630" width="120" height="30" as="geometry" />
        </mxCell>
        <mxCell id="1UZdqRzCrLyL6wv6ZtiY-99" value="" style="strokeWidth=2;html=1;shape=mxgraph.flowchart.decision;whiteSpace=wrap;" parent="1UZdqRzCrLyL6wv6ZtiY-23" vertex="1">
          <mxGeometry x="292.5" y="2710" width="30" height="30" as="geometry" />
        </mxCell>
        <mxCell id="1UZdqRzCrLyL6wv6ZtiY-100" value="" style="endArrow=classic;html=1;rounded=0;entryX=0.5;entryY=0;entryDx=0;entryDy=0;entryPerimeter=0;" parent="1UZdqRzCrLyL6wv6ZtiY-23" source="1UZdqRzCrLyL6wv6ZtiY-96" target="1UZdqRzCrLyL6wv6ZtiY-99" edge="1">
          <mxGeometry width="50" height="50" relative="1" as="geometry">
            <mxPoint x="417.5" y="2710" as="sourcePoint" />
            <mxPoint x="467.5" y="2660" as="targetPoint" />
          </mxGeometry>
        </mxCell>
        <mxCell id="1UZdqRzCrLyL6wv6ZtiY-103" value="[Valid Security Code Format]" style="text;html=1;align=center;verticalAlign=middle;resizable=0;points=[];autosize=1;strokeColor=none;fillColor=none;" parent="1UZdqRzCrLyL6wv6ZtiY-23" vertex="1">
          <mxGeometry x="322.5" y="2730" width="190" height="30" as="geometry" />
        </mxCell>
        <mxCell id="1UZdqRzCrLyL6wv6ZtiY-105" value="Validate Expiration Date" style="rounded=1;whiteSpace=wrap;html=1;" parent="1UZdqRzCrLyL6wv6ZtiY-23" vertex="1">
          <mxGeometry x="247.5" y="2840" width="120" height="30" as="geometry" />
        </mxCell>
        <mxCell id="1UZdqRzCrLyL6wv6ZtiY-106" value="" style="strokeWidth=2;html=1;shape=mxgraph.flowchart.decision;whiteSpace=wrap;" parent="1UZdqRzCrLyL6wv6ZtiY-23" vertex="1">
          <mxGeometry x="292.5" y="2910" width="30" height="30" as="geometry" />
        </mxCell>
        <mxCell id="1UZdqRzCrLyL6wv6ZtiY-107" value="" style="endArrow=classic;html=1;rounded=0;entryX=0.5;entryY=0;entryDx=0;entryDy=0;entryPerimeter=0;" parent="1UZdqRzCrLyL6wv6ZtiY-23" source="1UZdqRzCrLyL6wv6ZtiY-105" target="1UZdqRzCrLyL6wv6ZtiY-106" edge="1">
          <mxGeometry width="50" height="50" relative="1" as="geometry">
            <mxPoint x="572.5" y="3030" as="sourcePoint" />
            <mxPoint x="622.5" y="2980" as="targetPoint" />
          </mxGeometry>
        </mxCell>
        <mxCell id="1UZdqRzCrLyL6wv6ZtiY-111" value="[Invalid Expiration Date]" style="text;html=1;align=center;verticalAlign=middle;resizable=0;points=[];autosize=1;strokeColor=none;fillColor=none;" parent="1UZdqRzCrLyL6wv6ZtiY-23" vertex="1">
          <mxGeometry x="112.5" y="2890" width="170" height="30" as="geometry" />
        </mxCell>
        <mxCell id="1UZdqRzCrLyL6wv6ZtiY-108" value="[Valid Expiration Date]" style="text;html=1;align=center;verticalAlign=middle;resizable=0;points=[];autosize=1;strokeColor=none;fillColor=none;" parent="1UZdqRzCrLyL6wv6ZtiY-23" vertex="1">
          <mxGeometry x="337.5" y="2940" width="150" height="30" as="geometry" />
        </mxCell>
        <mxCell id="1UZdqRzCrLyL6wv6ZtiY-112" value="" style="endArrow=classic;html=1;rounded=0;exitX=0.5;exitY=1;exitDx=0;exitDy=0;exitPerimeter=0;" parent="1UZdqRzCrLyL6wv6ZtiY-23" source="1UZdqRzCrLyL6wv6ZtiY-106" target="1UZdqRzCrLyL6wv6ZtiY-126" edge="1">
          <mxGeometry width="50" height="50" relative="1" as="geometry">
            <mxPoint x="147.5" y="3010" as="sourcePoint" />
            <mxPoint x="307.5" y="3030" as="targetPoint" />
          </mxGeometry>
        </mxCell>
        <mxCell id="1UZdqRzCrLyL6wv6ZtiY-102" value="[Invalid Security Code Format]" style="text;html=1;align=center;verticalAlign=middle;resizable=0;points=[];autosize=1;strokeColor=none;fillColor=none;" parent="1UZdqRzCrLyL6wv6ZtiY-23" vertex="1">
          <mxGeometry x="88.5" y="2688" width="200" height="30" as="geometry" />
        </mxCell>
        <mxCell id="1UZdqRzCrLyL6wv6ZtiY-116" value="Validate Cardholder Name Format" style="rounded=1;whiteSpace=wrap;html=1;" parent="1UZdqRzCrLyL6wv6ZtiY-23" vertex="1">
          <mxGeometry x="250" y="2120" width="120" height="30" as="geometry" />
        </mxCell>
        <mxCell id="1UZdqRzCrLyL6wv6ZtiY-117" value="" style="strokeWidth=2;html=1;shape=mxgraph.flowchart.decision;whiteSpace=wrap;" parent="1UZdqRzCrLyL6wv6ZtiY-23" vertex="1">
          <mxGeometry x="295" y="2200" width="30" height="30" as="geometry" />
        </mxCell>
        <mxCell id="1UZdqRzCrLyL6wv6ZtiY-118" value="" style="endArrow=classic;html=1;rounded=0;entryX=0.5;entryY=0;entryDx=0;entryDy=0;entryPerimeter=0;" parent="1UZdqRzCrLyL6wv6ZtiY-23" source="1UZdqRzCrLyL6wv6ZtiY-116" target="1UZdqRzCrLyL6wv6ZtiY-117" edge="1">
          <mxGeometry width="50" height="50" relative="1" as="geometry">
            <mxPoint x="555" y="2260" as="sourcePoint" />
            <mxPoint x="605" y="2210" as="targetPoint" />
          </mxGeometry>
        </mxCell>
        <mxCell id="1UZdqRzCrLyL6wv6ZtiY-122" value="[Invalid Cardholder Name Format]" style="text;html=1;align=center;verticalAlign=middle;resizable=0;points=[];autosize=1;strokeColor=none;fillColor=none;" parent="1UZdqRzCrLyL6wv6ZtiY-23" vertex="1">
          <mxGeometry x="87.5" y="2170" width="220" height="30" as="geometry" />
        </mxCell>
        <mxCell id="1UZdqRzCrLyL6wv6ZtiY-119" value="[Valid Cardholder Name Format]" style="text;html=1;align=center;verticalAlign=middle;resizable=0;points=[];autosize=1;strokeColor=none;fillColor=none;" parent="1UZdqRzCrLyL6wv6ZtiY-23" vertex="1">
          <mxGeometry x="312.5" y="2230" width="210" height="30" as="geometry" />
        </mxCell>
        <mxCell id="1UZdqRzCrLyL6wv6ZtiY-126" value="Make Payment" style="rounded=1;whiteSpace=wrap;html=1;" parent="1UZdqRzCrLyL6wv6ZtiY-23" vertex="1">
          <mxGeometry x="217.5" y="3000" width="180" height="30" as="geometry" />
        </mxCell>
        <mxCell id="1UZdqRzCrLyL6wv6ZtiY-127" value="Create Premium Membership" style="rounded=1;whiteSpace=wrap;html=1;" parent="1UZdqRzCrLyL6wv6ZtiY-23" vertex="1">
          <mxGeometry x="217.5" y="3100" width="180" height="30" as="geometry" />
        </mxCell>
        <mxCell id="1UZdqRzCrLyL6wv6ZtiY-131" value="Validate Password Format" style="rounded=1;whiteSpace=wrap;html=1;" parent="1UZdqRzCrLyL6wv6ZtiY-23" vertex="1">
          <mxGeometry x="252.5" y="1470" width="115" height="30" as="geometry" />
        </mxCell>
        <mxCell id="1UZdqRzCrLyL6wv6ZtiY-132" value="" style="rhombus;whiteSpace=wrap;html=1;" parent="1UZdqRzCrLyL6wv6ZtiY-23" vertex="1">
          <mxGeometry x="295" y="1540" width="30" height="30" as="geometry" />
        </mxCell>
        <mxCell id="1UZdqRzCrLyL6wv6ZtiY-134" value="" style="endArrow=classic;html=1;rounded=0;entryX=0.5;entryY=0;entryDx=0;entryDy=0;" parent="1UZdqRzCrLyL6wv6ZtiY-23" source="1UZdqRzCrLyL6wv6ZtiY-131" target="1UZdqRzCrLyL6wv6ZtiY-132" edge="1">
          <mxGeometry width="50" height="50" relative="1" as="geometry">
            <mxPoint x="440" y="1510" as="sourcePoint" />
            <mxPoint x="490" y="1460" as="targetPoint" />
          </mxGeometry>
        </mxCell>
        <mxCell id="1UZdqRzCrLyL6wv6ZtiY-135" value="[Valid Password Format]" style="text;html=1;align=center;verticalAlign=middle;resizable=0;points=[];autosize=1;strokeColor=none;fillColor=none;" parent="1UZdqRzCrLyL6wv6ZtiY-23" vertex="1">
          <mxGeometry x="322.5" y="1560" width="160" height="30" as="geometry" />
        </mxCell>
        <mxCell id="1UZdqRzCrLyL6wv6ZtiY-137" value="[Invalid Password Format]" style="text;html=1;align=center;verticalAlign=middle;resizable=0;points=[];autosize=1;strokeColor=none;fillColor=none;" parent="1UZdqRzCrLyL6wv6ZtiY-23" vertex="1">
          <mxGeometry x="112.5" y="1518" width="180" height="30" as="geometry" />
        </mxCell>
        <mxCell id="1UZdqRzCrLyL6wv6ZtiY-142" value="Validate Reentered Password" style="rounded=1;whiteSpace=wrap;html=1;" parent="1UZdqRzCrLyL6wv6ZtiY-23" vertex="1">
          <mxGeometry x="252.5" y="1650" width="115" height="30" as="geometry" />
        </mxCell>
        <mxCell id="1UZdqRzCrLyL6wv6ZtiY-144" value="" style="rhombus;whiteSpace=wrap;html=1;" parent="1UZdqRzCrLyL6wv6ZtiY-23" vertex="1">
          <mxGeometry x="295" y="1710" width="30" height="30" as="geometry" />
        </mxCell>
        <mxCell id="1UZdqRzCrLyL6wv6ZtiY-145" value="" style="endArrow=classic;html=1;rounded=0;entryX=0.5;entryY=0;entryDx=0;entryDy=0;" parent="1UZdqRzCrLyL6wv6ZtiY-23" source="1UZdqRzCrLyL6wv6ZtiY-142" target="1UZdqRzCrLyL6wv6ZtiY-144" edge="1">
          <mxGeometry width="50" height="50" relative="1" as="geometry">
            <mxPoint x="400" y="1730" as="sourcePoint" />
            <mxPoint x="450" y="1680" as="targetPoint" />
          </mxGeometry>
        </mxCell>
        <mxCell id="1UZdqRzCrLyL6wv6ZtiY-146" value="[Valid Password]" style="text;html=1;align=center;verticalAlign=middle;resizable=0;points=[];autosize=1;strokeColor=none;fillColor=none;" parent="1UZdqRzCrLyL6wv6ZtiY-23" vertex="1">
          <mxGeometry x="330" y="1740" width="120" height="30" as="geometry" />
        </mxCell>
        <mxCell id="1UZdqRzCrLyL6wv6ZtiY-147" value="[Invalid Password]" style="text;html=1;align=center;verticalAlign=middle;resizable=0;points=[];autosize=1;strokeColor=none;fillColor=none;" parent="1UZdqRzCrLyL6wv6ZtiY-23" vertex="1">
          <mxGeometry x="150" y="1688" width="130" height="30" as="geometry" />
        </mxCell>
        <mxCell id="1UZdqRzCrLyL6wv6ZtiY-151" value="" style="endArrow=classic;html=1;rounded=0;" parent="1UZdqRzCrLyL6wv6ZtiY-23" source="1UZdqRzCrLyL6wv6ZtiY-126" target="1UZdqRzCrLyL6wv6ZtiY-127" edge="1">
          <mxGeometry width="50" height="50" relative="1" as="geometry">
            <mxPoint x="400" y="3070" as="sourcePoint" />
            <mxPoint x="450" y="3020" as="targetPoint" />
          </mxGeometry>
        </mxCell>
        <mxCell id="1UZdqRzCrLyL6wv6ZtiY-152" value="" style="strokeWidth=2;html=1;shape=mxgraph.flowchart.decision;whiteSpace=wrap;" parent="1UZdqRzCrLyL6wv6ZtiY-23" vertex="1">
          <mxGeometry x="292.5" y="3160" width="30" height="30" as="geometry" />
        </mxCell>
        <mxCell id="1UZdqRzCrLyL6wv6ZtiY-153" value="" style="endArrow=classic;html=1;rounded=0;entryX=0.5;entryY=0;entryDx=0;entryDy=0;entryPerimeter=0;" parent="1UZdqRzCrLyL6wv6ZtiY-23" source="1UZdqRzCrLyL6wv6ZtiY-127" target="1UZdqRzCrLyL6wv6ZtiY-152" edge="1">
          <mxGeometry width="50" height="50" relative="1" as="geometry">
            <mxPoint x="300" y="3200" as="sourcePoint" />
            <mxPoint x="350" y="3150" as="targetPoint" />
          </mxGeometry>
        </mxCell>
        <mxCell id="1UZdqRzCrLyL6wv6ZtiY-154" value="" style="endArrow=classic;html=1;rounded=0;exitX=0.5;exitY=1;exitDx=0;exitDy=0;exitPerimeter=0;entryX=0.5;entryY=0;entryDx=0;entryDy=0;" parent="1UZdqRzCrLyL6wv6ZtiY-23" source="1UZdqRzCrLyL6wv6ZtiY-152" target="1UZdqRzCrLyL6wv6ZtiY-81" edge="1">
          <mxGeometry width="50" height="50" relative="1" as="geometry">
            <mxPoint x="340" y="3350" as="sourcePoint" />
            <mxPoint x="390" y="3300" as="targetPoint" />
          </mxGeometry>
        </mxCell>
        <mxCell id="1UZdqRzCrLyL6wv6ZtiY-129" value="" style="endArrow=classic;html=1;rounded=0;exitX=0.5;exitY=1;exitDx=0;exitDy=0;edgeStyle=orthogonalEdgeStyle;" parent="1UZdqRzCrLyL6wv6ZtiY-21" source="1UZdqRzCrLyL6wv6ZtiY-64" target="1UZdqRzCrLyL6wv6ZtiY-128" edge="1">
          <mxGeometry width="50" height="50" relative="1" as="geometry">
            <mxPoint x="770" y="1440" as="sourcePoint" />
            <mxPoint x="820" y="1390" as="targetPoint" />
          </mxGeometry>
        </mxCell>
        <mxCell id="1UZdqRzCrLyL6wv6ZtiY-133" value="" style="endArrow=classic;html=1;rounded=0;edgeStyle=orthogonalEdgeStyle;" parent="1UZdqRzCrLyL6wv6ZtiY-21" source="1UZdqRzCrLyL6wv6ZtiY-128" target="1UZdqRzCrLyL6wv6ZtiY-131" edge="1">
          <mxGeometry width="50" height="50" relative="1" as="geometry">
            <mxPoint x="390" y="1470" as="sourcePoint" />
            <mxPoint x="440" y="1420" as="targetPoint" />
          </mxGeometry>
        </mxCell>
        <mxCell id="1UZdqRzCrLyL6wv6ZtiY-138" value="" style="endArrow=classic;html=1;rounded=0;exitX=0;exitY=0.5;exitDx=0;exitDy=0;edgeStyle=orthogonalEdgeStyle;" parent="1UZdqRzCrLyL6wv6ZtiY-21" source="1UZdqRzCrLyL6wv6ZtiY-132" target="1UZdqRzCrLyL6wv6ZtiY-128" edge="1">
          <mxGeometry width="50" height="50" relative="1" as="geometry">
            <mxPoint x="590" y="1570" as="sourcePoint" />
            <mxPoint x="640" y="1520" as="targetPoint" />
          </mxGeometry>
        </mxCell>
        <mxCell id="1UZdqRzCrLyL6wv6ZtiY-141" value="" style="endArrow=classic;html=1;rounded=0;exitX=0.5;exitY=1;exitDx=0;exitDy=0;edgeStyle=orthogonalEdgeStyle;" parent="1UZdqRzCrLyL6wv6ZtiY-21" source="1UZdqRzCrLyL6wv6ZtiY-132" target="1UZdqRzCrLyL6wv6ZtiY-140" edge="1">
          <mxGeometry width="50" height="50" relative="1" as="geometry">
            <mxPoint x="850" y="1660" as="sourcePoint" />
            <mxPoint x="900" y="1610" as="targetPoint" />
          </mxGeometry>
        </mxCell>
        <mxCell id="1UZdqRzCrLyL6wv6ZtiY-143" value="" style="endArrow=classic;html=1;rounded=0;edgeStyle=orthogonalEdgeStyle;" parent="1UZdqRzCrLyL6wv6ZtiY-21" source="1UZdqRzCrLyL6wv6ZtiY-140" target="1UZdqRzCrLyL6wv6ZtiY-142" edge="1">
          <mxGeometry width="50" height="50" relative="1" as="geometry">
            <mxPoint x="510" y="1690" as="sourcePoint" />
            <mxPoint x="560" y="1640" as="targetPoint" />
          </mxGeometry>
        </mxCell>
        <mxCell id="1UZdqRzCrLyL6wv6ZtiY-148" value="" style="endArrow=classic;html=1;rounded=0;exitX=0;exitY=0.5;exitDx=0;exitDy=0;edgeStyle=orthogonalEdgeStyle;" parent="1UZdqRzCrLyL6wv6ZtiY-21" source="1UZdqRzCrLyL6wv6ZtiY-144" target="1UZdqRzCrLyL6wv6ZtiY-128" edge="1">
          <mxGeometry width="50" height="50" relative="1" as="geometry">
            <mxPoint x="640" y="1730" as="sourcePoint" />
            <mxPoint x="690" y="1680" as="targetPoint" />
            <Array as="points">
              <mxPoint x="180" y="1745" />
              <mxPoint x="180" y="1435" />
            </Array>
          </mxGeometry>
        </mxCell>
        <mxCell id="1UZdqRzCrLyL6wv6ZtiY-149" value="" style="endArrow=classic;html=1;rounded=0;exitX=0.5;exitY=1;exitDx=0;exitDy=0;edgeStyle=orthogonalEdgeStyle;" parent="1UZdqRzCrLyL6wv6ZtiY-21" source="1UZdqRzCrLyL6wv6ZtiY-144" target="1UZdqRzCrLyL6wv6ZtiY-40" edge="1">
          <mxGeometry width="50" height="50" relative="1" as="geometry">
            <mxPoint x="770" y="1820" as="sourcePoint" />
            <mxPoint x="820" y="1770" as="targetPoint" />
          </mxGeometry>
        </mxCell>
        <mxCell id="1UZdqRzCrLyL6wv6ZtiY-156" value="User Login Activity Diagram" style="swimlane;childLayout=stackLayout;resizeParent=1;resizeParentMax=0;startSize=20;html=1;" parent="1" vertex="1">
          <mxGeometry x="1250" y="4410" width="720" height="1030" as="geometry" />
        </mxCell>
        <mxCell id="1UZdqRzCrLyL6wv6ZtiY-157" value="User" style="swimlane;startSize=20;html=1;" parent="1UZdqRzCrLyL6wv6ZtiY-156" vertex="1">
          <mxGeometry y="20" width="330" height="1010" as="geometry" />
        </mxCell>
        <mxCell id="1UZdqRzCrLyL6wv6ZtiY-160" value="" style="ellipse;whiteSpace=wrap;html=1;rounded=0;shadow=0;comic=0;labelBackgroundColor=none;strokeWidth=1;fillColor=#000000;fontFamily=Verdana;fontSize=12;align=center;" parent="1UZdqRzCrLyL6wv6ZtiY-157" vertex="1">
          <mxGeometry x="145" y="60" width="40" height="40" as="geometry" />
        </mxCell>
        <mxCell id="1UZdqRzCrLyL6wv6ZtiY-162" value="User Login" style="rounded=1;whiteSpace=wrap;html=1;" parent="1UZdqRzCrLyL6wv6ZtiY-157" vertex="1">
          <mxGeometry x="117.5" y="150" width="95" height="30" as="geometry" />
        </mxCell>
        <mxCell id="1UZdqRzCrLyL6wv6ZtiY-163" value="Enter Username" style="rounded=1;whiteSpace=wrap;html=1;" parent="1UZdqRzCrLyL6wv6ZtiY-157" vertex="1">
          <mxGeometry x="113.75" y="250" width="102.5" height="30" as="geometry" />
        </mxCell>
        <mxCell id="1UZdqRzCrLyL6wv6ZtiY-165" value="Enter Password" style="rounded=1;whiteSpace=wrap;html=1;" parent="1UZdqRzCrLyL6wv6ZtiY-157" vertex="1">
          <mxGeometry x="110" y="490" width="110" height="30" as="geometry" />
        </mxCell>
        <mxCell id="1UZdqRzCrLyL6wv6ZtiY-167" value="" style="endArrow=classic;html=1;rounded=0;exitX=0.5;exitY=1;exitDx=0;exitDy=0;edgeStyle=orthogonalEdgeStyle;" parent="1UZdqRzCrLyL6wv6ZtiY-157" source="1UZdqRzCrLyL6wv6ZtiY-160" target="1UZdqRzCrLyL6wv6ZtiY-162" edge="1">
          <mxGeometry width="50" height="50" relative="1" as="geometry">
            <mxPoint x="230" y="120" as="sourcePoint" />
            <mxPoint x="280" y="70" as="targetPoint" />
          </mxGeometry>
        </mxCell>
        <mxCell id="1UZdqRzCrLyL6wv6ZtiY-168" value="" style="endArrow=classic;html=1;rounded=0;edgeStyle=orthogonalEdgeStyle;" parent="1UZdqRzCrLyL6wv6ZtiY-157" source="1UZdqRzCrLyL6wv6ZtiY-162" target="1UZdqRzCrLyL6wv6ZtiY-163" edge="1">
          <mxGeometry width="50" height="50" relative="1" as="geometry">
            <mxPoint x="260" y="220" as="sourcePoint" />
            <mxPoint x="310" y="170" as="targetPoint" />
          </mxGeometry>
        </mxCell>
        <mxCell id="1UZdqRzCrLyL6wv6ZtiY-158" value="System" style="swimlane;startSize=20;html=1;" parent="1UZdqRzCrLyL6wv6ZtiY-156" vertex="1">
          <mxGeometry x="330" y="20" width="390" height="1010" as="geometry" />
        </mxCell>
        <mxCell id="1UZdqRzCrLyL6wv6ZtiY-164" value="Validate Username Format" style="rounded=1;whiteSpace=wrap;html=1;" parent="1UZdqRzCrLyL6wv6ZtiY-158" vertex="1">
          <mxGeometry x="112.5" y="340" width="165" height="30" as="geometry" />
        </mxCell>
        <mxCell id="1UZdqRzCrLyL6wv6ZtiY-166" value="Validate Password Format" style="rounded=1;whiteSpace=wrap;html=1;" parent="1UZdqRzCrLyL6wv6ZtiY-158" vertex="1">
          <mxGeometry x="112.5" y="610" width="165" height="30" as="geometry" />
        </mxCell>
        <mxCell id="1UZdqRzCrLyL6wv6ZtiY-170" value="" style="strokeWidth=2;html=1;shape=mxgraph.flowchart.decision;whiteSpace=wrap;" parent="1UZdqRzCrLyL6wv6ZtiY-158" vertex="1">
          <mxGeometry x="180" y="420" width="30" height="30" as="geometry" />
        </mxCell>
        <mxCell id="1UZdqRzCrLyL6wv6ZtiY-171" value="" style="endArrow=classic;html=1;rounded=0;entryX=0.5;entryY=0;entryDx=0;entryDy=0;entryPerimeter=0;" parent="1UZdqRzCrLyL6wv6ZtiY-158" source="1UZdqRzCrLyL6wv6ZtiY-164" target="1UZdqRzCrLyL6wv6ZtiY-170" edge="1">
          <mxGeometry width="50" height="50" relative="1" as="geometry">
            <mxPoint x="240" y="430" as="sourcePoint" />
            <mxPoint x="290" y="380" as="targetPoint" />
          </mxGeometry>
        </mxCell>
        <mxCell id="1UZdqRzCrLyL6wv6ZtiY-173" value="[Valid Username Format]" style="text;html=1;align=center;verticalAlign=middle;resizable=0;points=[];autosize=1;strokeColor=none;fillColor=none;" parent="1UZdqRzCrLyL6wv6ZtiY-158" vertex="1">
          <mxGeometry x="200" y="438" width="170" height="30" as="geometry" />
        </mxCell>
        <mxCell id="1UZdqRzCrLyL6wv6ZtiY-174" value="[Invalid Username Format]" style="text;html=1;align=center;verticalAlign=middle;resizable=0;points=[];autosize=1;strokeColor=none;fillColor=none;" parent="1UZdqRzCrLyL6wv6ZtiY-158" vertex="1">
          <mxGeometry y="400" width="180" height="30" as="geometry" />
        </mxCell>
        <mxCell id="1UZdqRzCrLyL6wv6ZtiY-177" value="" style="strokeWidth=2;html=1;shape=mxgraph.flowchart.decision;whiteSpace=wrap;" parent="1UZdqRzCrLyL6wv6ZtiY-158" vertex="1">
          <mxGeometry x="180" y="700" width="30" height="30" as="geometry" />
        </mxCell>
        <mxCell id="1UZdqRzCrLyL6wv6ZtiY-178" value="" style="endArrow=classic;html=1;rounded=0;entryX=0.5;entryY=0;entryDx=0;entryDy=0;entryPerimeter=0;" parent="1UZdqRzCrLyL6wv6ZtiY-158" source="1UZdqRzCrLyL6wv6ZtiY-166" target="1UZdqRzCrLyL6wv6ZtiY-177" edge="1">
          <mxGeometry width="50" height="50" relative="1" as="geometry">
            <mxPoint x="260" y="680" as="sourcePoint" />
            <mxPoint x="310" y="630" as="targetPoint" />
          </mxGeometry>
        </mxCell>
        <mxCell id="1UZdqRzCrLyL6wv6ZtiY-180" value="[Valid Password Format]" style="text;html=1;align=center;verticalAlign=middle;resizable=0;points=[];autosize=1;strokeColor=none;fillColor=none;" parent="1UZdqRzCrLyL6wv6ZtiY-158" vertex="1">
          <mxGeometry x="210" y="718" width="160" height="30" as="geometry" />
        </mxCell>
        <mxCell id="1UZdqRzCrLyL6wv6ZtiY-181" value="[Invalid Password Format]" style="text;html=1;align=center;verticalAlign=middle;resizable=0;points=[];autosize=1;strokeColor=none;fillColor=none;" parent="1UZdqRzCrLyL6wv6ZtiY-158" vertex="1">
          <mxGeometry x="10" y="679" width="180" height="30" as="geometry" />
        </mxCell>
        <mxCell id="1UZdqRzCrLyL6wv6ZtiY-182" value="" style="endArrow=classic;html=1;rounded=0;exitX=0.5;exitY=1;exitDx=0;exitDy=0;exitPerimeter=0;" parent="1UZdqRzCrLyL6wv6ZtiY-158" source="1UZdqRzCrLyL6wv6ZtiY-177" edge="1">
          <mxGeometry width="50" height="50" relative="1" as="geometry">
            <mxPoint x="190" y="810" as="sourcePoint" />
            <mxPoint x="195" y="800" as="targetPoint" />
          </mxGeometry>
        </mxCell>
        <mxCell id="1UZdqRzCrLyL6wv6ZtiY-184" value="Attempt Login" style="rounded=1;whiteSpace=wrap;html=1;" parent="1UZdqRzCrLyL6wv6ZtiY-158" vertex="1">
          <mxGeometry x="112.5" y="800" width="165" height="30" as="geometry" />
        </mxCell>
        <mxCell id="1UZdqRzCrLyL6wv6ZtiY-185" value="" style="strokeWidth=2;html=1;shape=mxgraph.flowchart.decision;whiteSpace=wrap;" parent="1UZdqRzCrLyL6wv6ZtiY-158" vertex="1">
          <mxGeometry x="180" y="880" width="30" height="30" as="geometry" />
        </mxCell>
        <mxCell id="1UZdqRzCrLyL6wv6ZtiY-186" value="[Successful Login]" style="text;html=1;align=center;verticalAlign=middle;resizable=0;points=[];autosize=1;strokeColor=none;fillColor=none;" parent="1UZdqRzCrLyL6wv6ZtiY-158" vertex="1">
          <mxGeometry x="200" y="898" width="130" height="30" as="geometry" />
        </mxCell>
        <mxCell id="1UZdqRzCrLyL6wv6ZtiY-187" value="[Failed Login]" style="text;html=1;align=center;verticalAlign=middle;resizable=0;points=[];autosize=1;strokeColor=none;fillColor=none;" parent="1UZdqRzCrLyL6wv6ZtiY-158" vertex="1">
          <mxGeometry x="90" y="860" width="100" height="30" as="geometry" />
        </mxCell>
        <mxCell id="1UZdqRzCrLyL6wv6ZtiY-188" value="" style="endArrow=classic;html=1;rounded=0;entryX=0.5;entryY=0;entryDx=0;entryDy=0;entryPerimeter=0;" parent="1UZdqRzCrLyL6wv6ZtiY-158" source="1UZdqRzCrLyL6wv6ZtiY-184" target="1UZdqRzCrLyL6wv6ZtiY-185" edge="1">
          <mxGeometry width="50" height="50" relative="1" as="geometry">
            <mxPoint x="270" y="890" as="sourcePoint" />
            <mxPoint x="320" y="840" as="targetPoint" />
          </mxGeometry>
        </mxCell>
        <mxCell id="1UZdqRzCrLyL6wv6ZtiY-169" value="" style="endArrow=classic;html=1;rounded=0;edgeStyle=orthogonalEdgeStyle;" parent="1UZdqRzCrLyL6wv6ZtiY-156" source="1UZdqRzCrLyL6wv6ZtiY-163" target="1UZdqRzCrLyL6wv6ZtiY-164" edge="1">
          <mxGeometry width="50" height="50" relative="1" as="geometry">
            <mxPoint x="260" y="290" as="sourcePoint" />
            <mxPoint x="310" y="240" as="targetPoint" />
          </mxGeometry>
        </mxCell>
        <mxCell id="1UZdqRzCrLyL6wv6ZtiY-172" value="" style="endArrow=classic;html=1;rounded=0;exitX=0;exitY=0.5;exitDx=0;exitDy=0;exitPerimeter=0;edgeStyle=orthogonalEdgeStyle;" parent="1UZdqRzCrLyL6wv6ZtiY-156" source="1UZdqRzCrLyL6wv6ZtiY-170" target="1UZdqRzCrLyL6wv6ZtiY-163" edge="1">
          <mxGeometry width="50" height="50" relative="1" as="geometry">
            <mxPoint x="280" y="450" as="sourcePoint" />
            <mxPoint x="330" y="400" as="targetPoint" />
          </mxGeometry>
        </mxCell>
        <mxCell id="1UZdqRzCrLyL6wv6ZtiY-175" value="" style="endArrow=classic;html=1;rounded=0;exitX=0.5;exitY=1;exitDx=0;exitDy=0;exitPerimeter=0;edgeStyle=orthogonalEdgeStyle;" parent="1UZdqRzCrLyL6wv6ZtiY-156" source="1UZdqRzCrLyL6wv6ZtiY-170" target="1UZdqRzCrLyL6wv6ZtiY-165" edge="1">
          <mxGeometry width="50" height="50" relative="1" as="geometry">
            <mxPoint x="490" y="550" as="sourcePoint" />
            <mxPoint x="540" y="500" as="targetPoint" />
          </mxGeometry>
        </mxCell>
        <mxCell id="1UZdqRzCrLyL6wv6ZtiY-176" value="" style="endArrow=classic;html=1;rounded=0;edgeStyle=orthogonalEdgeStyle;" parent="1UZdqRzCrLyL6wv6ZtiY-156" source="1UZdqRzCrLyL6wv6ZtiY-165" target="1UZdqRzCrLyL6wv6ZtiY-166" edge="1">
          <mxGeometry width="50" height="50" relative="1" as="geometry">
            <mxPoint x="420" y="550" as="sourcePoint" />
            <mxPoint x="470" y="500" as="targetPoint" />
          </mxGeometry>
        </mxCell>
        <mxCell id="1UZdqRzCrLyL6wv6ZtiY-179" value="" style="endArrow=classic;html=1;rounded=0;exitX=0;exitY=0.5;exitDx=0;exitDy=0;exitPerimeter=0;edgeStyle=orthogonalEdgeStyle;" parent="1UZdqRzCrLyL6wv6ZtiY-156" source="1UZdqRzCrLyL6wv6ZtiY-177" target="1UZdqRzCrLyL6wv6ZtiY-165" edge="1">
          <mxGeometry width="50" height="50" relative="1" as="geometry">
            <mxPoint x="380" y="710" as="sourcePoint" />
            <mxPoint x="430" y="660" as="targetPoint" />
          </mxGeometry>
        </mxCell>
        <mxCell id="1UZdqRzCrLyL6wv6ZtiY-189" value="" style="endArrow=classic;html=1;rounded=0;exitX=0;exitY=0.5;exitDx=0;exitDy=0;exitPerimeter=0;edgeStyle=orthogonalEdgeStyle;" parent="1UZdqRzCrLyL6wv6ZtiY-156" source="1UZdqRzCrLyL6wv6ZtiY-185" target="1UZdqRzCrLyL6wv6ZtiY-163" edge="1">
          <mxGeometry width="50" height="50" relative="1" as="geometry">
            <mxPoint x="360" y="900" as="sourcePoint" />
            <mxPoint x="410" y="850" as="targetPoint" />
            <Array as="points">
              <mxPoint x="40" y="915" />
              <mxPoint x="40" y="285" />
            </Array>
          </mxGeometry>
        </mxCell>
        <mxCell id="1UZdqRzCrLyL6wv6ZtiY-192" value="" style="group" parent="1" connectable="0" vertex="1">
          <mxGeometry x="1755" y="5390" width="40" height="40" as="geometry" />
        </mxCell>
        <mxCell id="1UZdqRzCrLyL6wv6ZtiY-193" value="" style="group" parent="1UZdqRzCrLyL6wv6ZtiY-192" connectable="0" vertex="1">
          <mxGeometry width="40" height="40" as="geometry" />
        </mxCell>
        <mxCell id="1UZdqRzCrLyL6wv6ZtiY-194" value="" style="ellipse;whiteSpace=wrap;html=1;aspect=fixed;" parent="1UZdqRzCrLyL6wv6ZtiY-193" vertex="1">
          <mxGeometry width="40" height="40" as="geometry" />
        </mxCell>
        <mxCell id="1UZdqRzCrLyL6wv6ZtiY-195" value="" style="ellipse;whiteSpace=wrap;html=1;rounded=0;shadow=0;comic=0;labelBackgroundColor=none;strokeWidth=1;fillColor=#000000;fontFamily=Verdana;fontSize=12;align=center;" parent="1UZdqRzCrLyL6wv6ZtiY-193" vertex="1">
          <mxGeometry x="5" y="5" width="30" height="30" as="geometry" />
        </mxCell>
        <mxCell id="1UZdqRzCrLyL6wv6ZtiY-190" value="" style="endArrow=classic;html=1;rounded=0;exitX=0.5;exitY=1;exitDx=0;exitDy=0;exitPerimeter=0;entryX=0.5;entryY=0;entryDx=0;entryDy=0;" parent="1" source="1UZdqRzCrLyL6wv6ZtiY-185" target="1UZdqRzCrLyL6wv6ZtiY-194" edge="1">
          <mxGeometry width="50" height="50" relative="1" as="geometry">
            <mxPoint x="1810" y="5310" as="sourcePoint" />
            <mxPoint x="1775" y="5370" as="targetPoint" />
          </mxGeometry>
        </mxCell>
        <mxCell id="QW9a7OpeKnFUDcBplcUz-1" value="Search Media Activity Diagram" style="swimlane;childLayout=stackLayout;resizeParent=1;resizeParentMax=0;startSize=20;html=1;" parent="1" vertex="1">
          <mxGeometry x="20" y="7830" width="1550" height="1140" as="geometry" />
        </mxCell>
        <mxCell id="QW9a7OpeKnFUDcBplcUz-2" value="User" style="swimlane;startSize=20;html=1;" parent="QW9a7OpeKnFUDcBplcUz-1" vertex="1">
          <mxGeometry y="20" width="1040" height="1120" as="geometry" />
        </mxCell>
        <mxCell id="QW9a7OpeKnFUDcBplcUz-5" value="" style="ellipse;whiteSpace=wrap;html=1;rounded=0;shadow=0;comic=0;labelBackgroundColor=none;strokeWidth=1;fillColor=#000000;fontFamily=Verdana;fontSize=12;align=center;" parent="QW9a7OpeKnFUDcBplcUz-2" vertex="1">
          <mxGeometry x="500" y="80" width="40" height="40" as="geometry" />
        </mxCell>
        <mxCell id="QW9a7OpeKnFUDcBplcUz-6" value="Search Media" style="rounded=1;whiteSpace=wrap;html=1;" parent="QW9a7OpeKnFUDcBplcUz-2" vertex="1">
          <mxGeometry x="460" y="170" width="120" height="30" as="geometry" />
        </mxCell>
        <mxCell id="QW9a7OpeKnFUDcBplcUz-7" value="" style="endArrow=classic;html=1;rounded=0;exitX=0.5;exitY=1;exitDx=0;exitDy=0;edgeStyle=orthogonalEdgeStyle;" parent="QW9a7OpeKnFUDcBplcUz-2" source="QW9a7OpeKnFUDcBplcUz-5" target="QW9a7OpeKnFUDcBplcUz-6" edge="1">
          <mxGeometry width="50" height="50" relative="1" as="geometry">
            <mxPoint x="610" y="150" as="sourcePoint" />
            <mxPoint x="660" y="100" as="targetPoint" />
          </mxGeometry>
        </mxCell>
        <mxCell id="QW9a7OpeKnFUDcBplcUz-8" value="" style="endArrow=classic;html=1;rounded=0;edgeStyle=orthogonalEdgeStyle;" parent="QW9a7OpeKnFUDcBplcUz-2" source="QW9a7OpeKnFUDcBplcUz-6" target="QW9a7OpeKnFUDcBplcUz-9" edge="1">
          <mxGeometry width="50" height="50" relative="1" as="geometry">
            <mxPoint x="480" y="300" as="sourcePoint" />
            <mxPoint x="530" y="250" as="targetPoint" />
          </mxGeometry>
        </mxCell>
        <mxCell id="QW9a7OpeKnFUDcBplcUz-9" value="Enter Search String" style="rounded=1;whiteSpace=wrap;html=1;" parent="QW9a7OpeKnFUDcBplcUz-2" vertex="1">
          <mxGeometry x="460" y="270" width="120" height="40" as="geometry" />
        </mxCell>
        <mxCell id="QW9a7OpeKnFUDcBplcUz-19" value="Apply Movie Filter" style="rounded=1;whiteSpace=wrap;html=1;" parent="QW9a7OpeKnFUDcBplcUz-2" vertex="1">
          <mxGeometry x="10" y="650" width="100" height="30" as="geometry" />
        </mxCell>
        <mxCell id="QW9a7OpeKnFUDcBplcUz-22" value="" style="rounded=0;whiteSpace=wrap;html=1;fillStyle=solid;fillColor=#000000;" parent="QW9a7OpeKnFUDcBplcUz-2" vertex="1">
          <mxGeometry x="460" y="590" width="120" height="10" as="geometry" />
        </mxCell>
        <mxCell id="QW9a7OpeKnFUDcBplcUz-23" value="Apply TV Show Filter" style="rounded=1;whiteSpace=wrap;html=1;" parent="QW9a7OpeKnFUDcBplcUz-2" vertex="1">
          <mxGeometry x="130" y="650" width="120" height="30" as="geometry" />
        </mxCell>
        <mxCell id="QW9a7OpeKnFUDcBplcUz-24" value="Apply Genre Filter" style="rounded=1;whiteSpace=wrap;html=1;" parent="QW9a7OpeKnFUDcBplcUz-2" vertex="1">
          <mxGeometry x="270" y="650" width="120" height="30" as="geometry" />
        </mxCell>
        <mxCell id="QW9a7OpeKnFUDcBplcUz-25" value="Apply Actor Filter" style="rounded=1;whiteSpace=wrap;html=1;" parent="QW9a7OpeKnFUDcBplcUz-2" vertex="1">
          <mxGeometry x="410" y="650" width="120" height="30" as="geometry" />
        </mxCell>
        <mxCell id="QW9a7OpeKnFUDcBplcUz-32" value="" style="rounded=0;whiteSpace=wrap;html=1;fillStyle=solid;fillColor=#000000;" parent="QW9a7OpeKnFUDcBplcUz-2" vertex="1">
          <mxGeometry x="460" y="760" width="120" height="10" as="geometry" />
        </mxCell>
        <mxCell id="QW9a7OpeKnFUDcBplcUz-34" value="" style="endArrow=classic;html=1;rounded=0;" parent="QW9a7OpeKnFUDcBplcUz-2" source="QW9a7OpeKnFUDcBplcUz-24" edge="1">
          <mxGeometry width="50" height="50" relative="1" as="geometry">
            <mxPoint x="300" y="730" as="sourcePoint" />
            <mxPoint x="350" y="680" as="targetPoint" />
          </mxGeometry>
        </mxCell>
        <mxCell id="QW9a7OpeKnFUDcBplcUz-42" value="Display Results" style="rounded=1;whiteSpace=wrap;html=1;" parent="QW9a7OpeKnFUDcBplcUz-2" vertex="1">
          <mxGeometry x="450.63" y="960" width="138.75" height="30" as="geometry" />
        </mxCell>
        <mxCell id="QW9a7OpeKnFUDcBplcUz-43" value="" style="endArrow=classic;html=1;rounded=0;entryX=0.5;entryY=0;entryDx=0;entryDy=0;" parent="QW9a7OpeKnFUDcBplcUz-2" source="QW9a7OpeKnFUDcBplcUz-42" target="QW9a7OpeKnFUDcBplcUz-47" edge="1">
          <mxGeometry width="50" height="50" relative="1" as="geometry">
            <mxPoint x="589.38" y="1110" as="sourcePoint" />
            <mxPoint x="520.0050000000001" y="1030" as="targetPoint" />
          </mxGeometry>
        </mxCell>
        <mxCell id="QW9a7OpeKnFUDcBplcUz-45" value="" style="group" parent="QW9a7OpeKnFUDcBplcUz-2" connectable="0" vertex="1">
          <mxGeometry x="500.01" y="1060" width="40" height="40" as="geometry" />
        </mxCell>
        <mxCell id="QW9a7OpeKnFUDcBplcUz-46" value="" style="group" parent="QW9a7OpeKnFUDcBplcUz-45" connectable="0" vertex="1">
          <mxGeometry width="40" height="40" as="geometry" />
        </mxCell>
        <mxCell id="QW9a7OpeKnFUDcBplcUz-47" value="" style="ellipse;whiteSpace=wrap;html=1;aspect=fixed;" parent="QW9a7OpeKnFUDcBplcUz-46" vertex="1">
          <mxGeometry width="40" height="40" as="geometry" />
        </mxCell>
        <mxCell id="QW9a7OpeKnFUDcBplcUz-48" value="" style="ellipse;whiteSpace=wrap;html=1;rounded=0;shadow=0;comic=0;labelBackgroundColor=none;strokeWidth=1;fillColor=#000000;fontFamily=Verdana;fontSize=12;align=center;" parent="QW9a7OpeKnFUDcBplcUz-46" vertex="1">
          <mxGeometry x="5" y="5" width="30" height="30" as="geometry" />
        </mxCell>
        <mxCell id="rfYw1Lm2hffCmaHHXfQw-1" value="Apply Director Filter" style="rounded=1;whiteSpace=wrap;html=1;" parent="QW9a7OpeKnFUDcBplcUz-2" vertex="1">
          <mxGeometry x="550" y="650" width="140" height="30" as="geometry" />
        </mxCell>
        <mxCell id="rfYw1Lm2hffCmaHHXfQw-5" value="Apply Release Year Filter" style="rounded=1;whiteSpace=wrap;html=1;" parent="QW9a7OpeKnFUDcBplcUz-2" vertex="1">
          <mxGeometry x="700" y="650" width="120" height="30" as="geometry" />
        </mxCell>
        <mxCell id="rfYw1Lm2hffCmaHHXfQw-6" value="Apply Rating Filter" style="rounded=1;whiteSpace=wrap;html=1;" parent="QW9a7OpeKnFUDcBplcUz-2" vertex="1">
          <mxGeometry x="840" y="650" width="120" height="30" as="geometry" />
        </mxCell>
        <mxCell id="rfYw1Lm2hffCmaHHXfQw-7" value="" style="endArrow=classic;html=1;rounded=0;edgeStyle=orthogonalEdgeStyle;" parent="QW9a7OpeKnFUDcBplcUz-2" source="QW9a7OpeKnFUDcBplcUz-22" target="QW9a7OpeKnFUDcBplcUz-19" edge="1">
          <mxGeometry width="50" height="50" relative="1" as="geometry">
            <mxPoint x="420" y="600" as="sourcePoint" />
            <mxPoint x="410" y="490" as="targetPoint" />
            <Array as="points">
              <mxPoint x="520" y="620" />
              <mxPoint x="60" y="620" />
            </Array>
          </mxGeometry>
        </mxCell>
        <mxCell id="rfYw1Lm2hffCmaHHXfQw-8" value="" style="endArrow=classic;html=1;rounded=0;edgeStyle=orthogonalEdgeStyle;" parent="QW9a7OpeKnFUDcBplcUz-2" source="QW9a7OpeKnFUDcBplcUz-22" target="QW9a7OpeKnFUDcBplcUz-23" edge="1">
          <mxGeometry width="50" height="50" relative="1" as="geometry">
            <mxPoint x="620" y="620" as="sourcePoint" />
            <mxPoint x="670" y="570" as="targetPoint" />
            <Array as="points">
              <mxPoint x="520" y="620" />
              <mxPoint x="190" y="620" />
            </Array>
          </mxGeometry>
        </mxCell>
        <mxCell id="rfYw1Lm2hffCmaHHXfQw-9" value="" style="endArrow=classic;html=1;rounded=0;edgeStyle=orthogonalEdgeStyle;" parent="QW9a7OpeKnFUDcBplcUz-2" source="QW9a7OpeKnFUDcBplcUz-22" target="QW9a7OpeKnFUDcBplcUz-24" edge="1">
          <mxGeometry width="50" height="50" relative="1" as="geometry">
            <mxPoint x="410" y="610" as="sourcePoint" />
            <mxPoint x="460" y="560" as="targetPoint" />
            <Array as="points">
              <mxPoint x="520" y="620" />
              <mxPoint x="330" y="620" />
            </Array>
          </mxGeometry>
        </mxCell>
        <mxCell id="rfYw1Lm2hffCmaHHXfQw-10" value="" style="endArrow=classic;html=1;rounded=0;edgeStyle=orthogonalEdgeStyle;" parent="QW9a7OpeKnFUDcBplcUz-2" source="QW9a7OpeKnFUDcBplcUz-22" target="QW9a7OpeKnFUDcBplcUz-25" edge="1">
          <mxGeometry width="50" height="50" relative="1" as="geometry">
            <mxPoint x="550" y="650" as="sourcePoint" />
            <mxPoint x="600" y="600" as="targetPoint" />
            <Array as="points">
              <mxPoint x="520" y="620" />
              <mxPoint x="470" y="620" />
            </Array>
          </mxGeometry>
        </mxCell>
        <mxCell id="rfYw1Lm2hffCmaHHXfQw-11" value="" style="endArrow=classic;html=1;rounded=0;edgeStyle=orthogonalEdgeStyle;" parent="QW9a7OpeKnFUDcBplcUz-2" source="QW9a7OpeKnFUDcBplcUz-22" target="rfYw1Lm2hffCmaHHXfQw-1" edge="1">
          <mxGeometry width="50" height="50" relative="1" as="geometry">
            <mxPoint x="600" y="630" as="sourcePoint" />
            <mxPoint x="650" y="580" as="targetPoint" />
            <Array as="points">
              <mxPoint x="520" y="620" />
              <mxPoint x="620" y="620" />
            </Array>
          </mxGeometry>
        </mxCell>
        <mxCell id="rfYw1Lm2hffCmaHHXfQw-12" value="" style="endArrow=classic;html=1;rounded=0;edgeStyle=orthogonalEdgeStyle;" parent="QW9a7OpeKnFUDcBplcUz-2" source="QW9a7OpeKnFUDcBplcUz-22" target="rfYw1Lm2hffCmaHHXfQw-5" edge="1">
          <mxGeometry width="50" height="50" relative="1" as="geometry">
            <mxPoint x="660" y="620" as="sourcePoint" />
            <mxPoint x="710" y="570" as="targetPoint" />
            <Array as="points">
              <mxPoint x="520" y="620" />
              <mxPoint x="760" y="620" />
            </Array>
          </mxGeometry>
        </mxCell>
        <mxCell id="rfYw1Lm2hffCmaHHXfQw-13" value="" style="endArrow=classic;html=1;rounded=0;edgeStyle=orthogonalEdgeStyle;" parent="QW9a7OpeKnFUDcBplcUz-2" source="QW9a7OpeKnFUDcBplcUz-22" target="rfYw1Lm2hffCmaHHXfQw-6" edge="1">
          <mxGeometry width="50" height="50" relative="1" as="geometry">
            <mxPoint x="640" y="590" as="sourcePoint" />
            <mxPoint x="690" y="540" as="targetPoint" />
            <Array as="points">
              <mxPoint x="520" y="620" />
              <mxPoint x="900" y="620" />
            </Array>
          </mxGeometry>
        </mxCell>
        <mxCell id="rfYw1Lm2hffCmaHHXfQw-14" value="" style="endArrow=classic;html=1;rounded=0;entryX=0.026;entryY=0.033;entryDx=0;entryDy=0;entryPerimeter=0;edgeStyle=orthogonalEdgeStyle;" parent="QW9a7OpeKnFUDcBplcUz-2" source="QW9a7OpeKnFUDcBplcUz-19" target="QW9a7OpeKnFUDcBplcUz-32" edge="1">
          <mxGeometry width="50" height="50" relative="1" as="geometry">
            <mxPoint x="110" y="760" as="sourcePoint" />
            <mxPoint x="160" y="710" as="targetPoint" />
            <Array as="points">
              <mxPoint x="60" y="740" />
              <mxPoint x="463" y="740" />
            </Array>
          </mxGeometry>
        </mxCell>
        <mxCell id="rfYw1Lm2hffCmaHHXfQw-15" value="" style="endArrow=classic;html=1;rounded=0;entryX=0.124;entryY=0.117;entryDx=0;entryDy=0;entryPerimeter=0;edgeStyle=orthogonalEdgeStyle;" parent="QW9a7OpeKnFUDcBplcUz-2" source="QW9a7OpeKnFUDcBplcUz-23" target="QW9a7OpeKnFUDcBplcUz-32" edge="1">
          <mxGeometry width="50" height="50" relative="1" as="geometry">
            <mxPoint x="280" y="780" as="sourcePoint" />
            <mxPoint x="490" y="740" as="targetPoint" />
            <Array as="points">
              <mxPoint x="190" y="730" />
              <mxPoint x="475" y="730" />
            </Array>
          </mxGeometry>
        </mxCell>
        <mxCell id="rfYw1Lm2hffCmaHHXfQw-16" value="" style="endArrow=classic;html=1;rounded=0;entryX=0.25;entryY=0;entryDx=0;entryDy=0;edgeStyle=orthogonalEdgeStyle;" parent="QW9a7OpeKnFUDcBplcUz-2" source="QW9a7OpeKnFUDcBplcUz-24" target="QW9a7OpeKnFUDcBplcUz-32" edge="1">
          <mxGeometry width="50" height="50" relative="1" as="geometry">
            <mxPoint x="400" y="740" as="sourcePoint" />
            <mxPoint x="450" y="690" as="targetPoint" />
            <Array as="points">
              <mxPoint x="330" y="720" />
              <mxPoint x="490" y="720" />
            </Array>
          </mxGeometry>
        </mxCell>
        <mxCell id="rfYw1Lm2hffCmaHHXfQw-17" value="" style="endArrow=classic;html=1;rounded=0;entryX=0.384;entryY=0.033;entryDx=0;entryDy=0;entryPerimeter=0;edgeStyle=orthogonalEdgeStyle;" parent="QW9a7OpeKnFUDcBplcUz-2" source="QW9a7OpeKnFUDcBplcUz-25" target="QW9a7OpeKnFUDcBplcUz-32" edge="1">
          <mxGeometry width="50" height="50" relative="1" as="geometry">
            <mxPoint x="520" y="740" as="sourcePoint" />
            <mxPoint x="570" y="690" as="targetPoint" />
            <Array as="points">
              <mxPoint x="470" y="710" />
              <mxPoint x="506" y="710" />
            </Array>
          </mxGeometry>
        </mxCell>
        <mxCell id="rfYw1Lm2hffCmaHHXfQw-18" value="" style="endArrow=classic;html=1;rounded=0;entryX=0.613;entryY=-0.133;entryDx=0;entryDy=0;entryPerimeter=0;edgeStyle=orthogonalEdgeStyle;" parent="QW9a7OpeKnFUDcBplcUz-2" source="rfYw1Lm2hffCmaHHXfQw-1" target="QW9a7OpeKnFUDcBplcUz-32" edge="1">
          <mxGeometry width="50" height="50" relative="1" as="geometry">
            <mxPoint x="610" y="760" as="sourcePoint" />
            <mxPoint x="660" y="710" as="targetPoint" />
            <Array as="points">
              <mxPoint x="620" y="710" />
              <mxPoint x="534" y="710" />
            </Array>
          </mxGeometry>
        </mxCell>
        <mxCell id="rfYw1Lm2hffCmaHHXfQw-19" value="" style="endArrow=classic;html=1;rounded=0;entryX=0.75;entryY=0;entryDx=0;entryDy=0;edgeStyle=orthogonalEdgeStyle;" parent="QW9a7OpeKnFUDcBplcUz-2" source="rfYw1Lm2hffCmaHHXfQw-5" target="QW9a7OpeKnFUDcBplcUz-32" edge="1">
          <mxGeometry width="50" height="50" relative="1" as="geometry">
            <mxPoint x="730" y="740" as="sourcePoint" />
            <mxPoint x="780" y="690" as="targetPoint" />
            <Array as="points">
              <mxPoint x="760" y="720" />
              <mxPoint x="550" y="720" />
            </Array>
          </mxGeometry>
        </mxCell>
        <mxCell id="rfYw1Lm2hffCmaHHXfQw-20" value="" style="endArrow=classic;html=1;rounded=0;entryX=0.912;entryY=0.158;entryDx=0;entryDy=0;entryPerimeter=0;edgeStyle=orthogonalEdgeStyle;" parent="QW9a7OpeKnFUDcBplcUz-2" source="rfYw1Lm2hffCmaHHXfQw-6" target="QW9a7OpeKnFUDcBplcUz-32" edge="1">
          <mxGeometry width="50" height="50" relative="1" as="geometry">
            <mxPoint x="690" y="790" as="sourcePoint" />
            <mxPoint x="740" y="740" as="targetPoint" />
            <Array as="points">
              <mxPoint x="900" y="740" />
              <mxPoint x="569" y="740" />
            </Array>
          </mxGeometry>
        </mxCell>
        <mxCell id="QW9a7OpeKnFUDcBplcUz-11" value="" style="endArrow=classic;html=1;rounded=0;edgeStyle=orthogonalEdgeStyle;" parent="QW9a7OpeKnFUDcBplcUz-1" source="QW9a7OpeKnFUDcBplcUz-9" target="QW9a7OpeKnFUDcBplcUz-10" edge="1">
          <mxGeometry width="50" height="50" relative="1" as="geometry">
            <mxPoint x="430" y="290" as="sourcePoint" />
            <mxPoint x="480" y="240" as="targetPoint" />
          </mxGeometry>
        </mxCell>
        <mxCell id="QW9a7OpeKnFUDcBplcUz-3" value="System" style="swimlane;startSize=20;html=1;" parent="QW9a7OpeKnFUDcBplcUz-1" vertex="1">
          <mxGeometry x="1040" y="20" width="510" height="1120" as="geometry" />
        </mxCell>
        <mxCell id="QW9a7OpeKnFUDcBplcUz-10" value="Validate Search String" style="rounded=1;whiteSpace=wrap;html=1;" parent="QW9a7OpeKnFUDcBplcUz-3" vertex="1">
          <mxGeometry x="222.5" y="380" width="127" height="40" as="geometry" />
        </mxCell>
        <mxCell id="QW9a7OpeKnFUDcBplcUz-12" value="" style="endArrow=classic;html=1;rounded=0;entryX=0.5;entryY=0;entryDx=0;entryDy=0;entryPerimeter=0;" parent="QW9a7OpeKnFUDcBplcUz-3" source="QW9a7OpeKnFUDcBplcUz-10" target="QW9a7OpeKnFUDcBplcUz-13" edge="1">
          <mxGeometry width="50" height="50" relative="1" as="geometry">
            <mxPoint x="290" y="510" as="sourcePoint" />
            <mxPoint x="286" y="480" as="targetPoint" />
          </mxGeometry>
        </mxCell>
        <mxCell id="QW9a7OpeKnFUDcBplcUz-13" value="" style="strokeWidth=2;html=1;shape=mxgraph.flowchart.decision;whiteSpace=wrap;" parent="QW9a7OpeKnFUDcBplcUz-3" vertex="1">
          <mxGeometry x="271" y="490" width="30" height="30" as="geometry" />
        </mxCell>
        <mxCell id="QW9a7OpeKnFUDcBplcUz-14" value="[Valid Search String]" style="text;html=1;align=center;verticalAlign=middle;resizable=0;points=[];autosize=1;strokeColor=none;fillColor=none;" parent="QW9a7OpeKnFUDcBplcUz-3" vertex="1">
          <mxGeometry x="301" y="508" width="130" height="30" as="geometry" />
        </mxCell>
        <mxCell id="QW9a7OpeKnFUDcBplcUz-15" value="[Invalid Search String]" style="text;html=1;align=center;verticalAlign=middle;resizable=0;points=[];autosize=1;strokeColor=none;fillColor=none;" parent="QW9a7OpeKnFUDcBplcUz-3" vertex="1">
          <mxGeometry x="120" y="460" width="140" height="30" as="geometry" />
        </mxCell>
        <mxCell id="QW9a7OpeKnFUDcBplcUz-38" value="Fetch Media Results Based on Search and Filter" style="rounded=1;whiteSpace=wrap;html=1;" parent="QW9a7OpeKnFUDcBplcUz-3" vertex="1">
          <mxGeometry x="222.5" y="840" width="137.5" height="60" as="geometry" />
        </mxCell>
        <mxCell id="QW9a7OpeKnFUDcBplcUz-16" value="" style="endArrow=classic;html=1;rounded=0;exitX=0;exitY=0.5;exitDx=0;exitDy=0;exitPerimeter=0;edgeStyle=orthogonalEdgeStyle;" parent="QW9a7OpeKnFUDcBplcUz-1" source="QW9a7OpeKnFUDcBplcUz-13" target="QW9a7OpeKnFUDcBplcUz-9" edge="1">
          <mxGeometry width="50" height="50" relative="1" as="geometry">
            <mxPoint x="740" y="590" as="sourcePoint" />
            <mxPoint x="790" y="540" as="targetPoint" />
          </mxGeometry>
        </mxCell>
        <mxCell id="QW9a7OpeKnFUDcBplcUz-20" value="" style="endArrow=classic;html=1;rounded=0;exitX=0.5;exitY=1;exitDx=0;exitDy=0;exitPerimeter=0;edgeStyle=orthogonalEdgeStyle;" parent="QW9a7OpeKnFUDcBplcUz-1" source="QW9a7OpeKnFUDcBplcUz-13" target="QW9a7OpeKnFUDcBplcUz-22" edge="1">
          <mxGeometry width="50" height="50" relative="1" as="geometry">
            <mxPoint x="870" y="630" as="sourcePoint" />
            <mxPoint x="310" y="570" as="targetPoint" />
          </mxGeometry>
        </mxCell>
        <mxCell id="QW9a7OpeKnFUDcBplcUz-37" value="" style="endArrow=classic;html=1;rounded=0;edgeStyle=orthogonalEdgeStyle;" parent="QW9a7OpeKnFUDcBplcUz-1" source="QW9a7OpeKnFUDcBplcUz-32" target="QW9a7OpeKnFUDcBplcUz-38" edge="1">
          <mxGeometry width="50" height="50" relative="1" as="geometry">
            <mxPoint x="340" y="860" as="sourcePoint" />
            <mxPoint x="850" y="820" as="targetPoint" />
            <Array as="points">
              <mxPoint x="520" y="830" />
              <mxPoint x="1330" y="830" />
            </Array>
          </mxGeometry>
        </mxCell>
        <mxCell id="QW9a7OpeKnFUDcBplcUz-40" value="" style="endArrow=classic;html=1;rounded=0;edgeStyle=orthogonalEdgeStyle;" parent="QW9a7OpeKnFUDcBplcUz-1" source="QW9a7OpeKnFUDcBplcUz-38" target="QW9a7OpeKnFUDcBplcUz-42" edge="1">
          <mxGeometry width="50" height="50" relative="1" as="geometry">
            <mxPoint x="910" y="1010" as="sourcePoint" />
            <mxPoint x="280" y="970" as="targetPoint" />
            <Array as="points">
              <mxPoint x="1330" y="950" />
              <mxPoint x="520" y="950" />
            </Array>
          </mxGeometry>
        </mxCell>
        <mxCell id="Gt7SG_tqPe_O46G-OhOc-3" value="Browse Media Activity Diagram" style="swimlane;childLayout=stackLayout;resizeParent=1;resizeParentMax=0;startSize=20;html=1;" parent="1" vertex="1">
          <mxGeometry x="1665" y="7830" width="1390" height="1300" as="geometry" />
        </mxCell>
        <mxCell id="Gt7SG_tqPe_O46G-OhOc-4" value="User" style="swimlane;startSize=20;html=1;" parent="Gt7SG_tqPe_O46G-OhOc-3" vertex="1">
          <mxGeometry y="20" width="710" height="1280" as="geometry" />
        </mxCell>
        <mxCell id="Gt7SG_tqPe_O46G-OhOc-7" value="" style="ellipse;whiteSpace=wrap;html=1;rounded=0;shadow=0;comic=0;labelBackgroundColor=none;strokeWidth=1;fillColor=#000000;fontFamily=Verdana;fontSize=12;align=center;" parent="Gt7SG_tqPe_O46G-OhOc-4" vertex="1">
          <mxGeometry x="335" y="70" width="40" height="40" as="geometry" />
        </mxCell>
        <mxCell id="Gt7SG_tqPe_O46G-OhOc-8" value="" style="endArrow=classic;html=1;rounded=0;edgeStyle=orthogonalEdgeStyle;" parent="Gt7SG_tqPe_O46G-OhOc-4" source="Gt7SG_tqPe_O46G-OhOc-7" target="Gt7SG_tqPe_O46G-OhOc-9" edge="1">
          <mxGeometry width="50" height="50" relative="1" as="geometry">
            <mxPoint x="435" y="170" as="sourcePoint" />
            <mxPoint x="355" y="190" as="targetPoint" />
          </mxGeometry>
        </mxCell>
        <mxCell id="Gt7SG_tqPe_O46G-OhOc-9" value="Browse Media" style="rounded=1;whiteSpace=wrap;html=1;" parent="Gt7SG_tqPe_O46G-OhOc-4" vertex="1">
          <mxGeometry x="292.5" y="160" width="125" height="30" as="geometry" />
        </mxCell>
        <mxCell id="Gt7SG_tqPe_O46G-OhOc-13" value="" style="rounded=0;whiteSpace=wrap;html=1;fillStyle=solid;fillColor=#000000;" parent="Gt7SG_tqPe_O46G-OhOc-4" vertex="1">
          <mxGeometry x="295" y="240" width="120" height="10" as="geometry" />
        </mxCell>
        <mxCell id="Gt7SG_tqPe_O46G-OhOc-14" value="" style="endArrow=classic;html=1;rounded=0;edgeStyle=orthogonalEdgeStyle;" parent="Gt7SG_tqPe_O46G-OhOc-4" source="Gt7SG_tqPe_O46G-OhOc-9" target="Gt7SG_tqPe_O46G-OhOc-13" edge="1">
          <mxGeometry width="50" height="50" relative="1" as="geometry">
            <mxPoint x="435" y="210" as="sourcePoint" />
            <mxPoint x="385" y="220" as="targetPoint" />
          </mxGeometry>
        </mxCell>
        <mxCell id="Gt7SG_tqPe_O46G-OhOc-15" value="" style="endArrow=classic;html=1;rounded=0;entryX=0.5;entryY=0;entryDx=0;entryDy=0;entryPerimeter=0;edgeStyle=orthogonalEdgeStyle;" parent="Gt7SG_tqPe_O46G-OhOc-4" source="Gt7SG_tqPe_O46G-OhOc-13" target="Gt7SG_tqPe_O46G-OhOc-16" edge="1">
          <mxGeometry width="50" height="50" relative="1" as="geometry">
            <mxPoint x="395" y="290" as="sourcePoint" />
            <mxPoint x="405" y="290" as="targetPoint" />
          </mxGeometry>
        </mxCell>
        <mxCell id="Gt7SG_tqPe_O46G-OhOc-16" value="" style="strokeWidth=2;html=1;shape=mxgraph.flowchart.decision;whiteSpace=wrap;" parent="Gt7SG_tqPe_O46G-OhOc-4" vertex="1">
          <mxGeometry x="415" y="310" width="30" height="30" as="geometry" />
        </mxCell>
        <mxCell id="Gt7SG_tqPe_O46G-OhOc-17" value="[Has Premium Membership]" style="text;html=1;align=center;verticalAlign=middle;resizable=0;points=[];autosize=1;strokeColor=none;fillColor=none;" parent="Gt7SG_tqPe_O46G-OhOc-4" vertex="1">
          <mxGeometry x="460" y="328" width="190" height="30" as="geometry" />
        </mxCell>
        <mxCell id="Gt7SG_tqPe_O46G-OhOc-18" value="[Does not Have Premium Membership]" style="text;html=1;align=center;verticalAlign=middle;resizable=0;points=[];autosize=1;strokeColor=none;fillColor=none;" parent="Gt7SG_tqPe_O46G-OhOc-4" vertex="1">
          <mxGeometry x="445" y="280" width="250" height="30" as="geometry" />
        </mxCell>
        <mxCell id="Gt7SG_tqPe_O46G-OhOc-19" value="" style="endArrow=classic;html=1;rounded=0;exitX=1;exitY=0.5;exitDx=0;exitDy=0;exitPerimeter=0;entryX=0.75;entryY=0;entryDx=0;entryDy=0;edgeStyle=orthogonalEdgeStyle;" parent="Gt7SG_tqPe_O46G-OhOc-4" source="Gt7SG_tqPe_O46G-OhOc-16" target="Gt7SG_tqPe_O46G-OhOc-13" edge="1">
          <mxGeometry width="50" height="50" relative="1" as="geometry">
            <mxPoint x="505" y="250" as="sourcePoint" />
            <mxPoint x="555" y="200" as="targetPoint" />
            <Array as="points">
              <mxPoint x="685" y="325" />
              <mxPoint x="685" y="220" />
              <mxPoint x="385" y="220" />
            </Array>
          </mxGeometry>
        </mxCell>
        <mxCell id="Gt7SG_tqPe_O46G-OhOc-21" value="" style="rounded=0;whiteSpace=wrap;html=1;fillStyle=solid;fillColor=#000000;" parent="Gt7SG_tqPe_O46G-OhOc-4" vertex="1">
          <mxGeometry x="125" y="470" width="120" height="10" as="geometry" />
        </mxCell>
        <mxCell id="Gt7SG_tqPe_O46G-OhOc-22" value="" style="endArrow=classic;html=1;rounded=0;edgeStyle=orthogonalEdgeStyle;" parent="Gt7SG_tqPe_O46G-OhOc-4" source="Gt7SG_tqPe_O46G-OhOc-13" target="Gt7SG_tqPe_O46G-OhOc-21" edge="1">
          <mxGeometry width="50" height="50" relative="1" as="geometry">
            <mxPoint x="255" y="330" as="sourcePoint" />
            <mxPoint x="305" y="280" as="targetPoint" />
            <Array as="points">
              <mxPoint x="355" y="280" />
              <mxPoint x="185" y="280" />
            </Array>
          </mxGeometry>
        </mxCell>
        <mxCell id="Gt7SG_tqPe_O46G-OhOc-23" value="" style="endArrow=classic;html=1;rounded=0;exitX=0.5;exitY=1;exitDx=0;exitDy=0;exitPerimeter=0;edgeStyle=orthogonalEdgeStyle;entryX=0.5;entryY=0;entryDx=0;entryDy=0;" parent="Gt7SG_tqPe_O46G-OhOc-4" source="Gt7SG_tqPe_O46G-OhOc-16" target="Gt7SG_tqPe_O46G-OhOc-24" edge="1">
          <mxGeometry width="50" height="50" relative="1" as="geometry">
            <mxPoint x="455" y="420" as="sourcePoint" />
            <mxPoint x="430" y="370" as="targetPoint" />
          </mxGeometry>
        </mxCell>
        <mxCell id="Gt7SG_tqPe_O46G-OhOc-24" value="" style="rounded=0;whiteSpace=wrap;html=1;fillStyle=solid;fillColor=#000000;" parent="Gt7SG_tqPe_O46G-OhOc-4" vertex="1">
          <mxGeometry x="370" y="380" width="120" height="10" as="geometry" />
        </mxCell>
        <mxCell id="Gt7SG_tqPe_O46G-OhOc-25" value="" style="endArrow=classic;html=1;rounded=0;entryX=0.75;entryY=0;entryDx=0;entryDy=0;edgeStyle=orthogonalEdgeStyle;" parent="Gt7SG_tqPe_O46G-OhOc-4" source="Gt7SG_tqPe_O46G-OhOc-24" target="Gt7SG_tqPe_O46G-OhOc-21" edge="1">
          <mxGeometry width="50" height="50" relative="1" as="geometry">
            <mxPoint x="405" y="470" as="sourcePoint" />
            <mxPoint x="455" y="420" as="targetPoint" />
            <Array as="points">
              <mxPoint x="430" y="420" />
              <mxPoint x="215" y="420" />
            </Array>
          </mxGeometry>
        </mxCell>
        <mxCell id="Gt7SG_tqPe_O46G-OhOc-26" value="Browse TV Shows" style="rounded=1;whiteSpace=wrap;html=1;" parent="Gt7SG_tqPe_O46G-OhOc-4" vertex="1">
          <mxGeometry x="15" y="550" width="75" height="30" as="geometry" />
        </mxCell>
        <mxCell id="Gt7SG_tqPe_O46G-OhOc-27" value="Browse Movies" style="rounded=1;whiteSpace=wrap;html=1;" parent="Gt7SG_tqPe_O46G-OhOc-4" vertex="1">
          <mxGeometry x="105" y="550" width="105" height="30" as="geometry" />
        </mxCell>
        <mxCell id="Gt7SG_tqPe_O46G-OhOc-28" value="Browse Genres" style="rounded=1;whiteSpace=wrap;html=1;" parent="Gt7SG_tqPe_O46G-OhOc-4" vertex="1">
          <mxGeometry x="225" y="550" width="125" height="30" as="geometry" />
        </mxCell>
        <mxCell id="Gt7SG_tqPe_O46G-OhOc-29" value="Browse Top 10" style="rounded=1;whiteSpace=wrap;html=1;" parent="Gt7SG_tqPe_O46G-OhOc-4" vertex="1">
          <mxGeometry x="420" y="550" width="103" height="30" as="geometry" />
        </mxCell>
        <mxCell id="Gt7SG_tqPe_O46G-OhOc-30" value="Browse Recommended" style="rounded=1;whiteSpace=wrap;html=1;" parent="Gt7SG_tqPe_O46G-OhOc-4" vertex="1">
          <mxGeometry x="535" y="550" width="145" height="30" as="geometry" />
        </mxCell>
        <mxCell id="Gt7SG_tqPe_O46G-OhOc-31" value="" style="endArrow=classic;html=1;rounded=0;edgeStyle=orthogonalEdgeStyle;" parent="Gt7SG_tqPe_O46G-OhOc-4" source="Gt7SG_tqPe_O46G-OhOc-24" target="Gt7SG_tqPe_O46G-OhOc-29" edge="1">
          <mxGeometry width="50" height="50" relative="1" as="geometry">
            <mxPoint x="475" y="470" as="sourcePoint" />
            <mxPoint x="525" y="420" as="targetPoint" />
          </mxGeometry>
        </mxCell>
        <mxCell id="Gt7SG_tqPe_O46G-OhOc-32" value="" style="endArrow=classic;html=1;rounded=0;edgeStyle=orthogonalEdgeStyle;" parent="Gt7SG_tqPe_O46G-OhOc-4" source="Gt7SG_tqPe_O46G-OhOc-24" target="Gt7SG_tqPe_O46G-OhOc-30" edge="1">
          <mxGeometry width="50" height="50" relative="1" as="geometry">
            <mxPoint x="555" y="440" as="sourcePoint" />
            <mxPoint x="605" y="390" as="targetPoint" />
            <Array as="points">
              <mxPoint x="430" y="470" />
              <mxPoint x="608" y="470" />
            </Array>
          </mxGeometry>
        </mxCell>
        <mxCell id="Gt7SG_tqPe_O46G-OhOc-33" value="" style="endArrow=classic;html=1;rounded=0;exitX=0.5;exitY=1;exitDx=0;exitDy=0;edgeStyle=orthogonalEdgeStyle;" parent="Gt7SG_tqPe_O46G-OhOc-4" source="Gt7SG_tqPe_O46G-OhOc-21" target="Gt7SG_tqPe_O46G-OhOc-26" edge="1">
          <mxGeometry width="50" height="50" relative="1" as="geometry">
            <mxPoint x="265" y="510" as="sourcePoint" />
            <mxPoint x="315" y="460" as="targetPoint" />
          </mxGeometry>
        </mxCell>
        <mxCell id="Gt7SG_tqPe_O46G-OhOc-34" value="" style="endArrow=classic;html=1;rounded=0;exitX=0.5;exitY=1;exitDx=0;exitDy=0;edgeStyle=orthogonalEdgeStyle;" parent="Gt7SG_tqPe_O46G-OhOc-4" source="Gt7SG_tqPe_O46G-OhOc-21" target="Gt7SG_tqPe_O46G-OhOc-27" edge="1">
          <mxGeometry width="50" height="50" relative="1" as="geometry">
            <mxPoint x="215" y="530" as="sourcePoint" />
            <mxPoint x="265" y="480" as="targetPoint" />
          </mxGeometry>
        </mxCell>
        <mxCell id="Gt7SG_tqPe_O46G-OhOc-35" value="" style="endArrow=classic;html=1;rounded=0;exitX=0.5;exitY=1;exitDx=0;exitDy=0;edgeStyle=orthogonalEdgeStyle;" parent="Gt7SG_tqPe_O46G-OhOc-4" source="Gt7SG_tqPe_O46G-OhOc-21" target="Gt7SG_tqPe_O46G-OhOc-28" edge="1">
          <mxGeometry width="50" height="50" relative="1" as="geometry">
            <mxPoint x="265" y="530" as="sourcePoint" />
            <mxPoint x="315" y="480" as="targetPoint" />
          </mxGeometry>
        </mxCell>
        <mxCell id="Gt7SG_tqPe_O46G-OhOc-54" value="Display Media" style="rounded=1;whiteSpace=wrap;html=1;" parent="Gt7SG_tqPe_O46G-OhOc-4" vertex="1">
          <mxGeometry x="305" y="1090" width="125" height="30" as="geometry" />
        </mxCell>
        <mxCell id="Gt7SG_tqPe_O46G-OhOc-5" value="System" style="swimlane;startSize=20;html=1;" parent="Gt7SG_tqPe_O46G-OhOc-3" vertex="1">
          <mxGeometry x="710" y="20" width="680" height="1280" as="geometry" />
        </mxCell>
        <mxCell id="Gt7SG_tqPe_O46G-OhOc-36" value="Fetch Movies" style="rounded=1;whiteSpace=wrap;html=1;" parent="Gt7SG_tqPe_O46G-OhOc-5" vertex="1">
          <mxGeometry x="150" y="700" width="85" height="30" as="geometry" />
        </mxCell>
        <mxCell id="Gt7SG_tqPe_O46G-OhOc-37" value="Fetch TV Shows" style="rounded=1;whiteSpace=wrap;html=1;" parent="Gt7SG_tqPe_O46G-OhOc-5" vertex="1">
          <mxGeometry x="25" y="700" width="110" height="30" as="geometry" />
        </mxCell>
        <mxCell id="Gt7SG_tqPe_O46G-OhOc-38" value="Fetch Media by Genres" style="rounded=1;whiteSpace=wrap;html=1;" parent="Gt7SG_tqPe_O46G-OhOc-5" vertex="1">
          <mxGeometry x="250" y="700" width="125" height="30" as="geometry" />
        </mxCell>
        <mxCell id="Gt7SG_tqPe_O46G-OhOc-39" value="Fetch Top 10" style="rounded=1;whiteSpace=wrap;html=1;" parent="Gt7SG_tqPe_O46G-OhOc-5" vertex="1">
          <mxGeometry x="425" y="700" width="95" height="30" as="geometry" />
        </mxCell>
        <mxCell id="Gt7SG_tqPe_O46G-OhOc-40" value="Fetch Recommended" style="rounded=1;whiteSpace=wrap;html=1;" parent="Gt7SG_tqPe_O46G-OhOc-5" vertex="1">
          <mxGeometry x="535" y="700" width="125" height="30" as="geometry" />
        </mxCell>
        <mxCell id="Gt7SG_tqPe_O46G-OhOc-46" value="" style="rounded=0;whiteSpace=wrap;html=1;fillStyle=solid;fillColor=#000000;rotation=-90;" parent="Gt7SG_tqPe_O46G-OhOc-5" vertex="1">
          <mxGeometry x="-35" y="950" width="120" height="10" as="geometry" />
        </mxCell>
        <mxCell id="Gt7SG_tqPe_O46G-OhOc-48" value="" style="endArrow=classic;html=1;rounded=0;entryX=0.893;entryY=1.114;entryDx=0;entryDy=0;entryPerimeter=0;edgeStyle=orthogonalEdgeStyle;" parent="Gt7SG_tqPe_O46G-OhOc-5" source="Gt7SG_tqPe_O46G-OhOc-37" target="Gt7SG_tqPe_O46G-OhOc-46" edge="1">
          <mxGeometry width="50" height="50" relative="1" as="geometry">
            <mxPoint x="95" y="830" as="sourcePoint" />
            <mxPoint x="145" y="780" as="targetPoint" />
            <Array as="points">
              <mxPoint x="80" y="908" />
            </Array>
          </mxGeometry>
        </mxCell>
        <mxCell id="Gt7SG_tqPe_O46G-OhOc-49" value="" style="endArrow=classic;html=1;rounded=0;entryX=0.75;entryY=1;entryDx=0;entryDy=0;edgeStyle=orthogonalEdgeStyle;" parent="Gt7SG_tqPe_O46G-OhOc-5" source="Gt7SG_tqPe_O46G-OhOc-36" target="Gt7SG_tqPe_O46G-OhOc-46" edge="1">
          <mxGeometry width="50" height="50" relative="1" as="geometry">
            <mxPoint x="205" y="800" as="sourcePoint" />
            <mxPoint x="255" y="750" as="targetPoint" />
            <Array as="points">
              <mxPoint x="193" y="925" />
            </Array>
          </mxGeometry>
        </mxCell>
        <mxCell id="Gt7SG_tqPe_O46G-OhOc-50" value="" style="endArrow=classic;html=1;rounded=0;edgeStyle=orthogonalEdgeStyle;entryX=0.611;entryY=1.252;entryDx=0;entryDy=0;entryPerimeter=0;" parent="Gt7SG_tqPe_O46G-OhOc-5" source="Gt7SG_tqPe_O46G-OhOc-38" target="Gt7SG_tqPe_O46G-OhOc-46" edge="1">
          <mxGeometry width="50" height="50" relative="1" as="geometry">
            <mxPoint x="305" y="830" as="sourcePoint" />
            <mxPoint x="105" y="942" as="targetPoint" />
            <Array as="points">
              <mxPoint x="315" y="942" />
            </Array>
          </mxGeometry>
        </mxCell>
        <mxCell id="Gt7SG_tqPe_O46G-OhOc-51" value="" style="endArrow=classic;html=1;rounded=0;entryX=0.5;entryY=1;entryDx=0;entryDy=0;edgeStyle=orthogonalEdgeStyle;" parent="Gt7SG_tqPe_O46G-OhOc-5" source="Gt7SG_tqPe_O46G-OhOc-39" target="Gt7SG_tqPe_O46G-OhOc-46" edge="1">
          <mxGeometry width="50" height="50" relative="1" as="geometry">
            <mxPoint x="505" y="810" as="sourcePoint" />
            <mxPoint x="555" y="760" as="targetPoint" />
            <Array as="points">
              <mxPoint x="475" y="955" />
            </Array>
          </mxGeometry>
        </mxCell>
        <mxCell id="Gt7SG_tqPe_O46G-OhOc-52" value="" style="endArrow=classic;html=1;rounded=0;entryX=0.25;entryY=1;entryDx=0;entryDy=0;edgeStyle=orthogonalEdgeStyle;" parent="Gt7SG_tqPe_O46G-OhOc-5" source="Gt7SG_tqPe_O46G-OhOc-40" target="Gt7SG_tqPe_O46G-OhOc-46" edge="1">
          <mxGeometry width="50" height="50" relative="1" as="geometry">
            <mxPoint x="585" y="810" as="sourcePoint" />
            <mxPoint x="635" y="760" as="targetPoint" />
            <Array as="points">
              <mxPoint x="595" y="985" />
            </Array>
          </mxGeometry>
        </mxCell>
        <mxCell id="Gt7SG_tqPe_O46G-OhOc-41" value="" style="endArrow=classic;html=1;rounded=0;edgeStyle=orthogonalEdgeStyle;" parent="Gt7SG_tqPe_O46G-OhOc-3" source="Gt7SG_tqPe_O46G-OhOc-30" target="Gt7SG_tqPe_O46G-OhOc-40" edge="1">
          <mxGeometry width="50" height="50" relative="1" as="geometry">
            <mxPoint x="785" y="640" as="sourcePoint" />
            <mxPoint x="835" y="590" as="targetPoint" />
            <Array as="points">
              <mxPoint x="607" y="620" />
              <mxPoint x="1307" y="620" />
            </Array>
          </mxGeometry>
        </mxCell>
        <mxCell id="Gt7SG_tqPe_O46G-OhOc-42" value="" style="endArrow=classic;html=1;rounded=0;edgeStyle=orthogonalEdgeStyle;" parent="Gt7SG_tqPe_O46G-OhOc-3" source="Gt7SG_tqPe_O46G-OhOc-29" target="Gt7SG_tqPe_O46G-OhOc-39" edge="1">
          <mxGeometry width="50" height="50" relative="1" as="geometry">
            <mxPoint x="515" y="710" as="sourcePoint" />
            <mxPoint x="565" y="660" as="targetPoint" />
            <Array as="points">
              <mxPoint x="471" y="640" />
              <mxPoint x="1183" y="640" />
            </Array>
          </mxGeometry>
        </mxCell>
        <mxCell id="Gt7SG_tqPe_O46G-OhOc-43" value="" style="endArrow=classic;html=1;rounded=0;edgeStyle=orthogonalEdgeStyle;" parent="Gt7SG_tqPe_O46G-OhOc-3" source="Gt7SG_tqPe_O46G-OhOc-28" target="Gt7SG_tqPe_O46G-OhOc-38" edge="1">
          <mxGeometry width="50" height="50" relative="1" as="geometry">
            <mxPoint x="445" y="740" as="sourcePoint" />
            <mxPoint x="495" y="690" as="targetPoint" />
            <Array as="points">
              <mxPoint x="287" y="660" />
              <mxPoint x="1023" y="660" />
            </Array>
          </mxGeometry>
        </mxCell>
        <mxCell id="Gt7SG_tqPe_O46G-OhOc-44" value="" style="endArrow=classic;html=1;rounded=0;edgeStyle=orthogonalEdgeStyle;" parent="Gt7SG_tqPe_O46G-OhOc-3" source="Gt7SG_tqPe_O46G-OhOc-27" target="Gt7SG_tqPe_O46G-OhOc-36" edge="1">
          <mxGeometry width="50" height="50" relative="1" as="geometry">
            <mxPoint x="195" y="690" as="sourcePoint" />
            <mxPoint x="245" y="640" as="targetPoint" />
            <Array as="points">
              <mxPoint x="157" y="680" />
              <mxPoint x="903" y="680" />
            </Array>
          </mxGeometry>
        </mxCell>
        <mxCell id="Gt7SG_tqPe_O46G-OhOc-45" value="" style="endArrow=classic;html=1;rounded=0;edgeStyle=orthogonalEdgeStyle;" parent="Gt7SG_tqPe_O46G-OhOc-3" source="Gt7SG_tqPe_O46G-OhOc-26" target="Gt7SG_tqPe_O46G-OhOc-37" edge="1">
          <mxGeometry width="50" height="50" relative="1" as="geometry">
            <mxPoint x="145" y="660" as="sourcePoint" />
            <mxPoint x="195" y="610" as="targetPoint" />
            <Array as="points">
              <mxPoint x="53" y="700" />
              <mxPoint x="790" y="700" />
            </Array>
          </mxGeometry>
        </mxCell>
        <mxCell id="Gt7SG_tqPe_O46G-OhOc-53" value="" style="endArrow=classic;html=1;rounded=0;edgeStyle=orthogonalEdgeStyle;" parent="Gt7SG_tqPe_O46G-OhOc-3" source="Gt7SG_tqPe_O46G-OhOc-46" target="Gt7SG_tqPe_O46G-OhOc-54" edge="1">
          <mxGeometry width="50" height="50" relative="1" as="geometry">
            <mxPoint x="615" y="880" as="sourcePoint" />
            <mxPoint x="625" y="975" as="targetPoint" />
          </mxGeometry>
        </mxCell>
        <mxCell id="Gt7SG_tqPe_O46G-OhOc-12" value="" style="rounded=0;whiteSpace=wrap;html=1;fillStyle=solid;fillColor=#000000;" parent="1" vertex="1">
          <mxGeometry x="790" y="4560" width="120" height="10" as="geometry" />
        </mxCell>
        <mxCell id="Gt7SG_tqPe_O46G-OhOc-56" value="" style="group" parent="1" connectable="0" vertex="1">
          <mxGeometry x="2012.5" y="9070" width="40" height="40" as="geometry" />
        </mxCell>
        <mxCell id="Gt7SG_tqPe_O46G-OhOc-57" value="" style="group" parent="Gt7SG_tqPe_O46G-OhOc-56" connectable="0" vertex="1">
          <mxGeometry width="40" height="40" as="geometry" />
        </mxCell>
        <mxCell id="Gt7SG_tqPe_O46G-OhOc-58" value="" style="ellipse;whiteSpace=wrap;html=1;aspect=fixed;" parent="Gt7SG_tqPe_O46G-OhOc-57" vertex="1">
          <mxGeometry width="40" height="40" as="geometry" />
        </mxCell>
        <mxCell id="Gt7SG_tqPe_O46G-OhOc-59" value="" style="ellipse;whiteSpace=wrap;html=1;rounded=0;shadow=0;comic=0;labelBackgroundColor=none;strokeWidth=1;fillColor=#000000;fontFamily=Verdana;fontSize=12;align=center;" parent="Gt7SG_tqPe_O46G-OhOc-57" vertex="1">
          <mxGeometry x="5" y="5" width="30" height="30" as="geometry" />
        </mxCell>
        <mxCell id="Gt7SG_tqPe_O46G-OhOc-60" value="" style="endArrow=classic;html=1;rounded=0;entryX=0.5;entryY=0;entryDx=0;entryDy=0;edgeStyle=orthogonalEdgeStyle;" parent="1" source="Gt7SG_tqPe_O46G-OhOc-54" target="Gt7SG_tqPe_O46G-OhOc-58" edge="1">
          <mxGeometry width="50" height="50" relative="1" as="geometry">
            <mxPoint x="2090" y="9040" as="sourcePoint" />
            <mxPoint x="2140" y="8990" as="targetPoint" />
          </mxGeometry>
        </mxCell>
        <mxCell id="Gt7SG_tqPe_O46G-OhOc-61" value="View Media Activity Diagram" style="swimlane;childLayout=stackLayout;resizeParent=1;resizeParentMax=0;startSize=20;html=1;" parent="1" vertex="1">
          <mxGeometry x="3210" y="7830" width="1420" height="1790" as="geometry" />
        </mxCell>
        <mxCell id="Gt7SG_tqPe_O46G-OhOc-62" value="User" style="swimlane;startSize=20;html=1;" parent="Gt7SG_tqPe_O46G-OhOc-61" vertex="1">
          <mxGeometry y="20" width="710" height="1770" as="geometry" />
        </mxCell>
        <mxCell id="Gt7SG_tqPe_O46G-OhOc-65" value="" style="ellipse;whiteSpace=wrap;html=1;rounded=0;shadow=0;comic=0;labelBackgroundColor=none;strokeWidth=1;fillColor=#000000;fontFamily=Verdana;fontSize=12;align=center;" parent="Gt7SG_tqPe_O46G-OhOc-62" vertex="1">
          <mxGeometry x="335" y="100" width="40" height="40" as="geometry" />
        </mxCell>
        <mxCell id="Gt7SG_tqPe_O46G-OhOc-66" value="View Media" style="rounded=1;whiteSpace=wrap;html=1;" parent="Gt7SG_tqPe_O46G-OhOc-62" vertex="1">
          <mxGeometry x="302.5" y="210" width="105" height="30" as="geometry" />
        </mxCell>
        <mxCell id="Gt7SG_tqPe_O46G-OhOc-67" value="" style="endArrow=classic;html=1;rounded=0;exitX=0.5;exitY=1;exitDx=0;exitDy=0;edgeStyle=orthogonalEdgeStyle;" parent="Gt7SG_tqPe_O46G-OhOc-62" source="Gt7SG_tqPe_O46G-OhOc-65" target="Gt7SG_tqPe_O46G-OhOc-66" edge="1">
          <mxGeometry width="50" height="50" relative="1" as="geometry">
            <mxPoint x="380" y="180" as="sourcePoint" />
            <mxPoint x="430" y="130" as="targetPoint" />
          </mxGeometry>
        </mxCell>
        <mxCell id="Gt7SG_tqPe_O46G-OhOc-73" value="Display Media Details" style="rounded=1;whiteSpace=wrap;html=1;" parent="Gt7SG_tqPe_O46G-OhOc-62" vertex="1">
          <mxGeometry x="302.5" y="470" width="105" height="30" as="geometry" />
        </mxCell>
        <mxCell id="Gt7SG_tqPe_O46G-OhOc-74" value="" style="endArrow=classic;html=1;rounded=0;" parent="Gt7SG_tqPe_O46G-OhOc-62" source="Gt7SG_tqPe_O46G-OhOc-73" target="Gt7SG_tqPe_O46G-OhOc-76" edge="1">
          <mxGeometry width="50" height="50" relative="1" as="geometry">
            <mxPoint x="380" y="570" as="sourcePoint" />
            <mxPoint x="355" y="560" as="targetPoint" />
            <Array as="points">
              <mxPoint x="355" y="540" />
            </Array>
          </mxGeometry>
        </mxCell>
        <mxCell id="Gt7SG_tqPe_O46G-OhOc-76" value="" style="rounded=0;whiteSpace=wrap;html=1;fillStyle=solid;fillColor=#000000;" parent="Gt7SG_tqPe_O46G-OhOc-62" vertex="1">
          <mxGeometry x="295" y="580" width="120" height="10" as="geometry" />
        </mxCell>
        <mxCell id="Gt7SG_tqPe_O46G-OhOc-77" value="Review Media" style="rounded=1;whiteSpace=wrap;html=1;" parent="Gt7SG_tqPe_O46G-OhOc-62" vertex="1">
          <mxGeometry x="210" y="660" width="105" height="30" as="geometry" />
        </mxCell>
        <mxCell id="Gt7SG_tqPe_O46G-OhOc-79" value="Add Media to Watchlist" style="rounded=1;whiteSpace=wrap;html=1;" parent="Gt7SG_tqPe_O46G-OhOc-62" vertex="1">
          <mxGeometry x="500" y="660" width="105" height="30" as="geometry" />
        </mxCell>
        <mxCell id="Gt7SG_tqPe_O46G-OhOc-80" value="" style="endArrow=classic;html=1;rounded=0;edgeStyle=orthogonalEdgeStyle;" parent="Gt7SG_tqPe_O46G-OhOc-62" source="Gt7SG_tqPe_O46G-OhOc-76" target="Gt7SG_tqPe_O46G-OhOc-77" edge="1">
          <mxGeometry width="50" height="50" relative="1" as="geometry">
            <mxPoint x="300" y="700" as="sourcePoint" />
            <mxPoint x="350" y="650" as="targetPoint" />
            <Array as="points">
              <mxPoint x="355" y="620" />
              <mxPoint x="263" y="620" />
            </Array>
          </mxGeometry>
        </mxCell>
        <mxCell id="Gt7SG_tqPe_O46G-OhOc-81" value="" style="endArrow=classic;html=1;rounded=0;edgeStyle=orthogonalEdgeStyle;" parent="Gt7SG_tqPe_O46G-OhOc-62" source="Gt7SG_tqPe_O46G-OhOc-76" target="Gt7SG_tqPe_O46G-OhOc-79" edge="1">
          <mxGeometry width="50" height="50" relative="1" as="geometry">
            <mxPoint x="440" y="660" as="sourcePoint" />
            <mxPoint x="490" y="610" as="targetPoint" />
            <Array as="points">
              <mxPoint x="355" y="620" />
              <mxPoint x="553" y="620" />
            </Array>
          </mxGeometry>
        </mxCell>
        <mxCell id="Gt7SG_tqPe_O46G-OhOc-85" value="Choose Rating" style="rounded=1;whiteSpace=wrap;html=1;" parent="Gt7SG_tqPe_O46G-OhOc-62" vertex="1">
          <mxGeometry x="210" y="1140" width="105" height="30" as="geometry" />
        </mxCell>
        <mxCell id="Gt7SG_tqPe_O46G-OhOc-88" value="" style="endArrow=classic;html=1;rounded=0;entryX=0.5;entryY=0;entryDx=0;entryDy=0;entryPerimeter=0;" parent="Gt7SG_tqPe_O46G-OhOc-62" source="Gt7SG_tqPe_O46G-OhOc-77" target="Gt7SG_tqPe_O46G-OhOc-89" edge="1">
          <mxGeometry width="50" height="50" relative="1" as="geometry">
            <mxPoint x="260" y="770" as="sourcePoint" />
            <mxPoint x="310" y="720" as="targetPoint" />
          </mxGeometry>
        </mxCell>
        <mxCell id="Gt7SG_tqPe_O46G-OhOc-89" value="" style="strokeWidth=2;html=1;shape=mxgraph.flowchart.decision;whiteSpace=wrap;" parent="Gt7SG_tqPe_O46G-OhOc-62" vertex="1">
          <mxGeometry x="247.5" y="780" width="30" height="30" as="geometry" />
        </mxCell>
        <mxCell id="Gt7SG_tqPe_O46G-OhOc-91" value="[User Has 5 Reviews Written]" style="text;html=1;align=center;verticalAlign=middle;resizable=0;points=[];autosize=1;strokeColor=none;fillColor=none;" parent="Gt7SG_tqPe_O46G-OhOc-62" vertex="1">
          <mxGeometry x="277.5" y="800" width="190" height="30" as="geometry" />
        </mxCell>
        <mxCell id="Gt7SG_tqPe_O46G-OhOc-92" value="[User Has Less Than 5 Reviews Written]" style="text;html=1;align=center;verticalAlign=middle;resizable=0;points=[];autosize=1;strokeColor=none;fillColor=none;" parent="Gt7SG_tqPe_O46G-OhOc-62" vertex="1">
          <mxGeometry x="10" y="758" width="250" height="30" as="geometry" />
        </mxCell>
        <mxCell id="Gt7SG_tqPe_O46G-OhOc-93" value="" style="endArrow=classic;html=1;rounded=0;exitX=0.5;exitY=1;exitDx=0;exitDy=0;exitPerimeter=0;edgeStyle=orthogonalEdgeStyle;entryX=0.5;entryY=0;entryDx=0;entryDy=0;entryPerimeter=0;" parent="Gt7SG_tqPe_O46G-OhOc-62" source="Gt7SG_tqPe_O46G-OhOc-89" target="Gt7SG_tqPe_O46G-OhOc-94" edge="1">
          <mxGeometry width="50" height="50" relative="1" as="geometry">
            <mxPoint x="250" y="910" as="sourcePoint" />
            <mxPoint x="263" y="880" as="targetPoint" />
          </mxGeometry>
        </mxCell>
        <mxCell id="Gt7SG_tqPe_O46G-OhOc-94" value="" style="strokeWidth=2;html=1;shape=mxgraph.flowchart.decision;whiteSpace=wrap;" parent="Gt7SG_tqPe_O46G-OhOc-62" vertex="1">
          <mxGeometry x="367.5" y="880" width="30" height="30" as="geometry" />
        </mxCell>
        <mxCell id="Gt7SG_tqPe_O46G-OhOc-95" value="[User Has Premium Membership]" style="text;html=1;align=center;verticalAlign=middle;resizable=0;points=[];autosize=1;strokeColor=none;fillColor=none;" parent="Gt7SG_tqPe_O46G-OhOc-62" vertex="1">
          <mxGeometry x="160" y="860" width="220" height="30" as="geometry" />
        </mxCell>
        <mxCell id="Gt7SG_tqPe_O46G-OhOc-96" value="[User Does Not Have Premium Membership]" style="text;html=1;align=center;verticalAlign=middle;resizable=0;points=[];autosize=1;strokeColor=none;fillColor=none;" parent="Gt7SG_tqPe_O46G-OhOc-62" vertex="1">
          <mxGeometry x="400" y="860" width="280" height="30" as="geometry" />
        </mxCell>
        <mxCell id="Gt7SG_tqPe_O46G-OhOc-97" value="" style="endArrow=classic;html=1;rounded=0;exitX=0;exitY=0.5;exitDx=0;exitDy=0;exitPerimeter=0;entryX=0.5;entryY=0;entryDx=0;entryDy=0;entryPerimeter=0;edgeStyle=orthogonalEdgeStyle;" parent="Gt7SG_tqPe_O46G-OhOc-62" source="Gt7SG_tqPe_O46G-OhOc-89" target="Gt7SG_tqPe_O46G-OhOc-98" edge="1">
          <mxGeometry width="50" height="50" relative="1" as="geometry">
            <mxPoint x="120" y="850" as="sourcePoint" />
            <mxPoint x="70" y="930" as="targetPoint" />
          </mxGeometry>
        </mxCell>
        <mxCell id="Gt7SG_tqPe_O46G-OhOc-98" value="" style="strokeWidth=2;html=1;shape=mxgraph.flowchart.decision;whiteSpace=wrap;" parent="Gt7SG_tqPe_O46G-OhOc-62" vertex="1">
          <mxGeometry x="110" y="970" width="30" height="30" as="geometry" />
        </mxCell>
        <mxCell id="Gt7SG_tqPe_O46G-OhOc-99" value="" style="endArrow=classic;html=1;rounded=0;exitX=0;exitY=0.5;exitDx=0;exitDy=0;exitPerimeter=0;entryX=1;entryY=0.5;entryDx=0;entryDy=0;entryPerimeter=0;edgeStyle=orthogonalEdgeStyle;" parent="Gt7SG_tqPe_O46G-OhOc-62" source="Gt7SG_tqPe_O46G-OhOc-94" target="Gt7SG_tqPe_O46G-OhOc-98" edge="1">
          <mxGeometry width="50" height="50" relative="1" as="geometry">
            <mxPoint x="300" y="980" as="sourcePoint" />
            <mxPoint x="350" y="930" as="targetPoint" />
          </mxGeometry>
        </mxCell>
        <mxCell id="Gt7SG_tqPe_O46G-OhOc-100" value="" style="endArrow=classic;html=1;rounded=0;exitX=1;exitY=0.5;exitDx=0;exitDy=0;exitPerimeter=0;edgeStyle=orthogonalEdgeStyle;" parent="Gt7SG_tqPe_O46G-OhOc-62" source="Gt7SG_tqPe_O46G-OhOc-94" target="Gt7SG_tqPe_O46G-OhOc-101" edge="1">
          <mxGeometry width="50" height="50" relative="1" as="geometry">
            <mxPoint x="420" y="960" as="sourcePoint" />
            <mxPoint x="470" y="910" as="targetPoint" />
          </mxGeometry>
        </mxCell>
        <mxCell id="Gt7SG_tqPe_O46G-OhOc-101" value="Display Error Message: Max Reviews Written" style="rounded=1;whiteSpace=wrap;html=1;" parent="Gt7SG_tqPe_O46G-OhOc-62" vertex="1">
          <mxGeometry x="480" y="970" width="120" height="50" as="geometry" />
        </mxCell>
        <mxCell id="Gt7SG_tqPe_O46G-OhOc-103" value="" style="group" parent="Gt7SG_tqPe_O46G-OhOc-62" connectable="0" vertex="1">
          <mxGeometry x="335" y="1710" width="40" height="40" as="geometry" />
        </mxCell>
        <mxCell id="Gt7SG_tqPe_O46G-OhOc-104" value="" style="group" parent="Gt7SG_tqPe_O46G-OhOc-103" connectable="0" vertex="1">
          <mxGeometry width="40" height="40" as="geometry" />
        </mxCell>
        <mxCell id="Gt7SG_tqPe_O46G-OhOc-105" value="" style="ellipse;whiteSpace=wrap;html=1;aspect=fixed;" parent="Gt7SG_tqPe_O46G-OhOc-104" vertex="1">
          <mxGeometry width="40" height="40" as="geometry" />
        </mxCell>
        <mxCell id="Gt7SG_tqPe_O46G-OhOc-106" value="" style="ellipse;whiteSpace=wrap;html=1;rounded=0;shadow=0;comic=0;labelBackgroundColor=none;strokeWidth=1;fillColor=#000000;fontFamily=Verdana;fontSize=12;align=center;" parent="Gt7SG_tqPe_O46G-OhOc-104" vertex="1">
          <mxGeometry x="5" y="5" width="30" height="30" as="geometry" />
        </mxCell>
        <mxCell id="Gt7SG_tqPe_O46G-OhOc-110" value="" style="endArrow=classic;html=1;rounded=0;exitX=0.5;exitY=1;exitDx=0;exitDy=0;exitPerimeter=0;edgeStyle=orthogonalEdgeStyle;" parent="Gt7SG_tqPe_O46G-OhOc-62" source="Gt7SG_tqPe_O46G-OhOc-98" target="Gt7SG_tqPe_O46G-OhOc-85" edge="1">
          <mxGeometry width="50" height="50" relative="1" as="geometry">
            <mxPoint x="160" y="1100" as="sourcePoint" />
            <mxPoint x="210" y="1050" as="targetPoint" />
          </mxGeometry>
        </mxCell>
        <mxCell id="Gt7SG_tqPe_O46G-OhOc-111" value="Write Comment" style="rounded=1;whiteSpace=wrap;html=1;" parent="Gt7SG_tqPe_O46G-OhOc-62" vertex="1">
          <mxGeometry x="210" y="1230" width="105" height="30" as="geometry" />
        </mxCell>
        <mxCell id="Gt7SG_tqPe_O46G-OhOc-112" value="" style="endArrow=classic;html=1;rounded=0;edgeStyle=orthogonalEdgeStyle;" parent="Gt7SG_tqPe_O46G-OhOc-62" source="Gt7SG_tqPe_O46G-OhOc-85" target="Gt7SG_tqPe_O46G-OhOc-111" edge="1">
          <mxGeometry width="50" height="50" relative="1" as="geometry">
            <mxPoint x="320" y="1210" as="sourcePoint" />
            <mxPoint x="370" y="1160" as="targetPoint" />
          </mxGeometry>
        </mxCell>
        <mxCell id="Gt7SG_tqPe_O46G-OhOc-115" value="" style="endArrow=classic;html=1;rounded=0;entryX=0.5;entryY=0;entryDx=0;entryDy=0;entryPerimeter=0;edgeStyle=orthogonalEdgeStyle;" parent="Gt7SG_tqPe_O46G-OhOc-62" source="Gt7SG_tqPe_O46G-OhOc-101" target="Gt7SG_tqPe_O46G-OhOc-116" edge="1">
          <mxGeometry width="50" height="50" relative="1" as="geometry">
            <mxPoint x="550" y="1130" as="sourcePoint" />
            <mxPoint x="350" y="1360" as="targetPoint" />
            <Array as="points">
              <mxPoint x="540" y="1360" />
              <mxPoint x="355" y="1360" />
            </Array>
          </mxGeometry>
        </mxCell>
        <mxCell id="Gt7SG_tqPe_O46G-OhOc-116" value="" style="strokeWidth=2;html=1;shape=mxgraph.flowchart.decision;whiteSpace=wrap;" parent="Gt7SG_tqPe_O46G-OhOc-62" vertex="1">
          <mxGeometry x="340" y="1420" width="30" height="30" as="geometry" />
        </mxCell>
        <mxCell id="Gt7SG_tqPe_O46G-OhOc-119" value="" style="rounded=0;whiteSpace=wrap;html=1;fillStyle=solid;fillColor=#000000;" parent="Gt7SG_tqPe_O46G-OhOc-62" vertex="1">
          <mxGeometry x="295" y="1610" width="120" height="10" as="geometry" />
        </mxCell>
        <mxCell id="Gt7SG_tqPe_O46G-OhOc-120" value="" style="endArrow=classic;html=1;rounded=0;exitX=0.5;exitY=1;exitDx=0;exitDy=0;exitPerimeter=0;entryX=0.5;entryY=0;entryDx=0;entryDy=0;" parent="Gt7SG_tqPe_O46G-OhOc-62" source="Gt7SG_tqPe_O46G-OhOc-116" target="Gt7SG_tqPe_O46G-OhOc-119" edge="1">
          <mxGeometry width="50" height="50" relative="1" as="geometry">
            <mxPoint x="320" y="1530" as="sourcePoint" />
            <mxPoint x="370" y="1480" as="targetPoint" />
          </mxGeometry>
        </mxCell>
        <mxCell id="Gt7SG_tqPe_O46G-OhOc-121" value="" style="endArrow=classic;html=1;rounded=0;exitX=0.5;exitY=1;exitDx=0;exitDy=0;entryX=0.5;entryY=0;entryDx=0;entryDy=0;" parent="Gt7SG_tqPe_O46G-OhOc-62" source="Gt7SG_tqPe_O46G-OhOc-119" target="Gt7SG_tqPe_O46G-OhOc-105" edge="1">
          <mxGeometry width="50" height="50" relative="1" as="geometry">
            <mxPoint x="440" y="1680" as="sourcePoint" />
            <mxPoint x="490" y="1630" as="targetPoint" />
          </mxGeometry>
        </mxCell>
        <mxCell id="Gt7SG_tqPe_O46G-OhOc-63" value="System" style="swimlane;startSize=20;html=1;" parent="Gt7SG_tqPe_O46G-OhOc-61" vertex="1">
          <mxGeometry x="710" y="20" width="710" height="1770" as="geometry" />
        </mxCell>
        <mxCell id="Gt7SG_tqPe_O46G-OhOc-71" value="Fetch Media Details" style="rounded=1;whiteSpace=wrap;html=1;" parent="Gt7SG_tqPe_O46G-OhOc-63" vertex="1">
          <mxGeometry x="295" y="313" width="165" height="57" as="geometry" />
        </mxCell>
        <mxCell id="Gt7SG_tqPe_O46G-OhOc-84" value="Add Media to User&#39;s Watchlist" style="rounded=1;whiteSpace=wrap;html=1;" parent="Gt7SG_tqPe_O46G-OhOc-63" vertex="1">
          <mxGeometry x="317.5" y="810" width="122.5" height="50" as="geometry" />
        </mxCell>
        <mxCell id="Gt7SG_tqPe_O46G-OhOc-114" value="Publish User Review" style="rounded=1;whiteSpace=wrap;html=1;" parent="Gt7SG_tqPe_O46G-OhOc-63" vertex="1">
          <mxGeometry x="321.38" y="1330" width="112.25" height="40" as="geometry" />
        </mxCell>
        <mxCell id="Gt7SG_tqPe_O46G-OhOc-70" value="" style="endArrow=classic;html=1;rounded=0;edgeStyle=orthogonalEdgeStyle;" parent="Gt7SG_tqPe_O46G-OhOc-61" source="Gt7SG_tqPe_O46G-OhOc-66" target="Gt7SG_tqPe_O46G-OhOc-71" edge="1">
          <mxGeometry width="50" height="50" relative="1" as="geometry">
            <mxPoint x="400" y="360" as="sourcePoint" />
            <mxPoint x="450" y="310" as="targetPoint" />
            <Array as="points">
              <mxPoint x="355" y="300" />
              <mxPoint x="1088" y="300" />
            </Array>
          </mxGeometry>
        </mxCell>
        <mxCell id="Gt7SG_tqPe_O46G-OhOc-72" value="" style="endArrow=classic;html=1;rounded=0;edgeStyle=orthogonalEdgeStyle;" parent="Gt7SG_tqPe_O46G-OhOc-61" source="Gt7SG_tqPe_O46G-OhOc-71" target="Gt7SG_tqPe_O46G-OhOc-73" edge="1">
          <mxGeometry width="50" height="50" relative="1" as="geometry">
            <mxPoint x="930" y="450" as="sourcePoint" />
            <mxPoint x="370" y="420" as="targetPoint" />
            <Array as="points">
              <mxPoint x="1088" y="430" />
              <mxPoint x="355" y="430" />
            </Array>
          </mxGeometry>
        </mxCell>
        <mxCell id="Gt7SG_tqPe_O46G-OhOc-83" value="" style="endArrow=classic;html=1;rounded=0;edgeStyle=orthogonalEdgeStyle;" parent="Gt7SG_tqPe_O46G-OhOc-61" source="Gt7SG_tqPe_O46G-OhOc-79" target="Gt7SG_tqPe_O46G-OhOc-84" edge="1">
          <mxGeometry width="50" height="50" relative="1" as="geometry">
            <mxPoint x="600" y="790" as="sourcePoint" />
            <mxPoint x="650" y="740" as="targetPoint" />
            <Array as="points">
              <mxPoint x="553" y="770" />
              <mxPoint x="1088" y="770" />
            </Array>
          </mxGeometry>
        </mxCell>
        <mxCell id="Gt7SG_tqPe_O46G-OhOc-113" value="" style="endArrow=classic;html=1;rounded=0;edgeStyle=orthogonalEdgeStyle;" parent="Gt7SG_tqPe_O46G-OhOc-61" source="Gt7SG_tqPe_O46G-OhOc-111" target="Gt7SG_tqPe_O46G-OhOc-114" edge="1">
          <mxGeometry width="50" height="50" relative="1" as="geometry">
            <mxPoint x="420" y="1330" as="sourcePoint" />
            <mxPoint x="940" y="1310" as="targetPoint" />
            <Array as="points">
              <mxPoint x="262" y="1310" />
              <mxPoint x="1088" y="1310" />
            </Array>
          </mxGeometry>
        </mxCell>
        <mxCell id="Gt7SG_tqPe_O46G-OhOc-117" value="" style="endArrow=classic;html=1;rounded=0;entryX=1;entryY=0.5;entryDx=0;entryDy=0;entryPerimeter=0;edgeStyle=orthogonalEdgeStyle;" parent="Gt7SG_tqPe_O46G-OhOc-61" source="Gt7SG_tqPe_O46G-OhOc-114" target="Gt7SG_tqPe_O46G-OhOc-116" edge="1">
          <mxGeometry width="50" height="50" relative="1" as="geometry">
            <mxPoint x="1090" y="1560" as="sourcePoint" />
            <mxPoint x="1140" y="1510" as="targetPoint" />
            <Array as="points">
              <mxPoint x="1088" y="1455" />
            </Array>
          </mxGeometry>
        </mxCell>
        <mxCell id="Gt7SG_tqPe_O46G-OhOc-109" value="" style="endArrow=classic;html=1;rounded=0;entryX=0.75;entryY=0;entryDx=0;entryDy=0;edgeStyle=orthogonalEdgeStyle;" parent="Gt7SG_tqPe_O46G-OhOc-61" source="Gt7SG_tqPe_O46G-OhOc-84" target="Gt7SG_tqPe_O46G-OhOc-119" edge="1">
          <mxGeometry width="50" height="50" relative="1" as="geometry">
            <mxPoint x="990" y="1050" as="sourcePoint" />
            <mxPoint x="1040" y="1000" as="targetPoint" />
            <Array as="points">
              <mxPoint x="1089" y="990" />
              <mxPoint x="1270" y="990" />
              <mxPoint x="1270" y="1560" />
              <mxPoint x="385" y="1560" />
            </Array>
          </mxGeometry>
        </mxCell>
        <mxCell id="Gt7SG_tqPe_O46G-OhOc-122" value="View Profile Activity Diagram" style="swimlane;childLayout=stackLayout;resizeParent=1;resizeParentMax=0;startSize=20;html=1;" parent="1" vertex="1">
          <mxGeometry x="4715" y="7840" width="1660" height="1330" as="geometry" />
        </mxCell>
        <mxCell id="Gt7SG_tqPe_O46G-OhOc-123" value="User" style="swimlane;startSize=20;html=1;" parent="Gt7SG_tqPe_O46G-OhOc-122" vertex="1">
          <mxGeometry y="20" width="900" height="1310" as="geometry" />
        </mxCell>
        <mxCell id="Gt7SG_tqPe_O46G-OhOc-126" value="" style="ellipse;whiteSpace=wrap;html=1;rounded=0;shadow=0;comic=0;labelBackgroundColor=none;strokeWidth=1;fillColor=#000000;fontFamily=Verdana;fontSize=12;align=center;" parent="Gt7SG_tqPe_O46G-OhOc-123" vertex="1">
          <mxGeometry x="365" y="80" width="40" height="40" as="geometry" />
        </mxCell>
        <mxCell id="Gt7SG_tqPe_O46G-OhOc-127" value="View Profile" style="rounded=1;whiteSpace=wrap;html=1;" parent="Gt7SG_tqPe_O46G-OhOc-123" vertex="1">
          <mxGeometry x="342.5" y="180" width="85" height="35" as="geometry" />
        </mxCell>
        <mxCell id="Gt7SG_tqPe_O46G-OhOc-128" value="" style="endArrow=classic;html=1;rounded=0;exitX=0.5;exitY=1;exitDx=0;exitDy=0;edgeStyle=orthogonalEdgeStyle;" parent="Gt7SG_tqPe_O46G-OhOc-123" source="Gt7SG_tqPe_O46G-OhOc-126" target="Gt7SG_tqPe_O46G-OhOc-127" edge="1">
          <mxGeometry width="50" height="50" relative="1" as="geometry">
            <mxPoint x="450" y="160" as="sourcePoint" />
            <mxPoint x="500" y="110" as="targetPoint" />
          </mxGeometry>
        </mxCell>
        <mxCell id="Gt7SG_tqPe_O46G-OhOc-129" value="" style="endArrow=classic;html=1;rounded=0;edgeStyle=orthogonalEdgeStyle;" parent="Gt7SG_tqPe_O46G-OhOc-123" source="Gt7SG_tqPe_O46G-OhOc-127" target="Gt7SG_tqPe_O46G-OhOc-131" edge="1">
          <mxGeometry width="50" height="50" relative="1" as="geometry">
            <mxPoint x="470" y="160" as="sourcePoint" />
            <mxPoint x="385" y="280" as="targetPoint" />
          </mxGeometry>
        </mxCell>
        <mxCell id="Gt7SG_tqPe_O46G-OhOc-131" value="" style="rounded=0;whiteSpace=wrap;html=1;fillStyle=solid;fillColor=#000000;" parent="Gt7SG_tqPe_O46G-OhOc-123" vertex="1">
          <mxGeometry x="325" y="270" width="120" height="10" as="geometry" />
        </mxCell>
        <mxCell id="Gt7SG_tqPe_O46G-OhOc-132" value="" style="endArrow=classic;html=1;rounded=0;exitX=0.5;exitY=1;exitDx=0;exitDy=0;entryX=0.5;entryY=0;entryDx=0;entryDy=0;entryPerimeter=0;edgeStyle=orthogonalEdgeStyle;" parent="Gt7SG_tqPe_O46G-OhOc-123" source="Gt7SG_tqPe_O46G-OhOc-131" target="Gt7SG_tqPe_O46G-OhOc-134" edge="1">
          <mxGeometry width="50" height="50" relative="1" as="geometry">
            <mxPoint x="460" y="320" as="sourcePoint" />
            <mxPoint x="520" y="340" as="targetPoint" />
          </mxGeometry>
        </mxCell>
        <mxCell id="Gt7SG_tqPe_O46G-OhOc-134" value="" style="strokeWidth=2;html=1;shape=mxgraph.flowchart.decision;whiteSpace=wrap;" parent="Gt7SG_tqPe_O46G-OhOc-123" vertex="1">
          <mxGeometry x="580" y="340" width="30" height="30" as="geometry" />
        </mxCell>
        <mxCell id="Gt7SG_tqPe_O46G-OhOc-135" value="[Does Not Have Premium Membership]" style="text;html=1;align=center;verticalAlign=middle;resizable=0;points=[];autosize=1;strokeColor=none;fillColor=none;" parent="Gt7SG_tqPe_O46G-OhOc-123" vertex="1">
          <mxGeometry x="342.5" y="370" width="250" height="30" as="geometry" />
        </mxCell>
        <mxCell id="Gt7SG_tqPe_O46G-OhOc-136" value="[Has Premium Membership]" style="text;html=1;align=center;verticalAlign=middle;resizable=0;points=[];autosize=1;strokeColor=none;fillColor=none;" parent="Gt7SG_tqPe_O46G-OhOc-123" vertex="1">
          <mxGeometry x="610" y="320" width="190" height="30" as="geometry" />
        </mxCell>
        <mxCell id="Gt7SG_tqPe_O46G-OhOc-137" value="" style="endArrow=classic;html=1;rounded=0;exitX=1;exitY=0.5;exitDx=0;exitDy=0;exitPerimeter=0;entryX=0.75;entryY=0;entryDx=0;entryDy=0;edgeStyle=orthogonalEdgeStyle;" parent="Gt7SG_tqPe_O46G-OhOc-123" source="Gt7SG_tqPe_O46G-OhOc-134" target="Gt7SG_tqPe_O46G-OhOc-131" edge="1">
          <mxGeometry width="50" height="50" relative="1" as="geometry">
            <mxPoint x="660" y="410" as="sourcePoint" />
            <mxPoint x="710" y="360" as="targetPoint" />
            <Array as="points">
              <mxPoint x="800" y="355" />
              <mxPoint x="800" y="260" />
              <mxPoint x="415" y="260" />
            </Array>
          </mxGeometry>
        </mxCell>
        <mxCell id="Gt7SG_tqPe_O46G-OhOc-138" value="" style="endArrow=classic;html=1;rounded=0;exitX=0.5;exitY=1;exitDx=0;exitDy=0;exitPerimeter=0;edgeStyle=orthogonalEdgeStyle;" parent="Gt7SG_tqPe_O46G-OhOc-123" source="Gt7SG_tqPe_O46G-OhOc-134" target="Gt7SG_tqPe_O46G-OhOc-139" edge="1">
          <mxGeometry width="50" height="50" relative="1" as="geometry">
            <mxPoint x="640" y="440" as="sourcePoint" />
            <mxPoint x="590" y="460" as="targetPoint" />
          </mxGeometry>
        </mxCell>
        <mxCell id="Gt7SG_tqPe_O46G-OhOc-139" value="" style="rounded=0;whiteSpace=wrap;html=1;fillStyle=solid;fillColor=#000000;" parent="Gt7SG_tqPe_O46G-OhOc-123" vertex="1">
          <mxGeometry x="535" y="480" width="120" height="10" as="geometry" />
        </mxCell>
        <mxCell id="Gt7SG_tqPe_O46G-OhOc-140" value="" style="rounded=0;whiteSpace=wrap;html=1;fillStyle=solid;fillColor=#000000;" parent="Gt7SG_tqPe_O46G-OhOc-123" vertex="1">
          <mxGeometry x="205" y="580" width="120" height="10" as="geometry" />
        </mxCell>
        <mxCell id="Gt7SG_tqPe_O46G-OhOc-141" value="" style="endArrow=classic;html=1;rounded=0;entryX=0.75;entryY=0;entryDx=0;entryDy=0;edgeStyle=orthogonalEdgeStyle;" parent="Gt7SG_tqPe_O46G-OhOc-123" source="Gt7SG_tqPe_O46G-OhOc-139" target="Gt7SG_tqPe_O46G-OhOc-140" edge="1">
          <mxGeometry width="50" height="50" relative="1" as="geometry">
            <mxPoint x="600" y="590" as="sourcePoint" />
            <mxPoint x="650" y="540" as="targetPoint" />
            <Array as="points">
              <mxPoint x="595" y="540" />
              <mxPoint x="295" y="540" />
            </Array>
          </mxGeometry>
        </mxCell>
        <mxCell id="Gt7SG_tqPe_O46G-OhOc-142" value="" style="endArrow=classic;html=1;rounded=0;entryX=0.25;entryY=0;entryDx=0;entryDy=0;edgeStyle=orthogonalEdgeStyle;" parent="Gt7SG_tqPe_O46G-OhOc-123" source="Gt7SG_tqPe_O46G-OhOc-131" target="Gt7SG_tqPe_O46G-OhOc-140" edge="1">
          <mxGeometry width="50" height="50" relative="1" as="geometry">
            <mxPoint x="300" y="370" as="sourcePoint" />
            <mxPoint x="350" y="320" as="targetPoint" />
            <Array as="points">
              <mxPoint x="385" y="310" />
              <mxPoint x="235" y="310" />
            </Array>
          </mxGeometry>
        </mxCell>
        <mxCell id="Gt7SG_tqPe_O46G-OhOc-144" value="Enter Payment Information" style="rounded=1;whiteSpace=wrap;html=1;" parent="Gt7SG_tqPe_O46G-OhOc-123" vertex="1">
          <mxGeometry x="570" y="680" width="120" height="50" as="geometry" />
        </mxCell>
        <mxCell id="Gt7SG_tqPe_O46G-OhOc-145" value="" style="endArrow=classic;html=1;rounded=0;edgeStyle=orthogonalEdgeStyle;" parent="Gt7SG_tqPe_O46G-OhOc-123" source="Gt7SG_tqPe_O46G-OhOc-139" target="Gt7SG_tqPe_O46G-OhOc-144" edge="1">
          <mxGeometry width="50" height="50" relative="1" as="geometry">
            <mxPoint x="610" y="530" as="sourcePoint" />
            <mxPoint x="680" y="570" as="targetPoint" />
            <Array as="points">
              <mxPoint x="595" y="540" />
              <mxPoint x="630" y="540" />
            </Array>
          </mxGeometry>
        </mxCell>
        <mxCell id="Gt7SG_tqPe_O46G-OhOc-155" value="Logout" style="rounded=1;whiteSpace=wrap;html=1;" parent="Gt7SG_tqPe_O46G-OhOc-123" vertex="1">
          <mxGeometry x="35" y="680" width="70" height="30" as="geometry" />
        </mxCell>
        <mxCell id="Gt7SG_tqPe_O46G-OhOc-156" value="View Watchlist" style="rounded=1;whiteSpace=wrap;html=1;" parent="Gt7SG_tqPe_O46G-OhOc-123" vertex="1">
          <mxGeometry x="315" y="680" width="112.5" height="30" as="geometry" />
        </mxCell>
        <mxCell id="Gt7SG_tqPe_O46G-OhOc-157" value="" style="endArrow=classic;html=1;rounded=0;edgeStyle=orthogonalEdgeStyle;" parent="Gt7SG_tqPe_O46G-OhOc-123" source="Gt7SG_tqPe_O46G-OhOc-140" target="Gt7SG_tqPe_O46G-OhOc-156" edge="1">
          <mxGeometry width="50" height="50" relative="1" as="geometry">
            <mxPoint x="355" y="650" as="sourcePoint" />
            <mxPoint x="405" y="600" as="targetPoint" />
            <Array as="points">
              <mxPoint x="265" y="640" />
              <mxPoint x="368" y="640" />
            </Array>
          </mxGeometry>
        </mxCell>
        <mxCell id="Gt7SG_tqPe_O46G-OhOc-158" value="" style="endArrow=classic;html=1;rounded=0;edgeStyle=orthogonalEdgeStyle;" parent="Gt7SG_tqPe_O46G-OhOc-123" source="Gt7SG_tqPe_O46G-OhOc-140" target="Gt7SG_tqPe_O46G-OhOc-155" edge="1">
          <mxGeometry width="50" height="50" relative="1" as="geometry">
            <mxPoint x="235" y="750" as="sourcePoint" />
            <mxPoint x="285" y="700" as="targetPoint" />
            <Array as="points">
              <mxPoint x="265" y="640" />
              <mxPoint x="70" y="640" />
            </Array>
          </mxGeometry>
        </mxCell>
        <mxCell id="Gt7SG_tqPe_O46G-OhOc-159" value="" style="endArrow=classic;html=1;rounded=0;edgeStyle=orthogonalEdgeStyle;" parent="Gt7SG_tqPe_O46G-OhOc-123" source="Gt7SG_tqPe_O46G-OhOc-156" target="Gt7SG_tqPe_O46G-OhOc-160" edge="1">
          <mxGeometry width="50" height="50" relative="1" as="geometry">
            <mxPoint x="415" y="820" as="sourcePoint" />
            <mxPoint x="465" y="770" as="targetPoint" />
          </mxGeometry>
        </mxCell>
        <mxCell id="Gt7SG_tqPe_O46G-OhOc-160" value="" style="rounded=0;whiteSpace=wrap;html=1;fillStyle=solid;fillColor=#000000;" parent="Gt7SG_tqPe_O46G-OhOc-123" vertex="1">
          <mxGeometry x="311.25" y="780" width="120" height="10" as="geometry" />
        </mxCell>
        <mxCell id="Gt7SG_tqPe_O46G-OhOc-161" value="Remove Watchlist Media" style="rounded=1;whiteSpace=wrap;html=1;" parent="Gt7SG_tqPe_O46G-OhOc-123" vertex="1">
          <mxGeometry x="427.5" y="880" width="102.5" height="50" as="geometry" />
        </mxCell>
        <mxCell id="Gt7SG_tqPe_O46G-OhOc-162" value="View Watchlist Media" style="rounded=1;whiteSpace=wrap;html=1;" parent="Gt7SG_tqPe_O46G-OhOc-123" vertex="1">
          <mxGeometry x="235" y="880" width="102.5" height="50" as="geometry" />
        </mxCell>
        <mxCell id="Gt7SG_tqPe_O46G-OhOc-189" value="" style="rounded=0;whiteSpace=wrap;html=1;fillStyle=solid;fillColor=#000000;" parent="Gt7SG_tqPe_O46G-OhOc-123" vertex="1">
          <mxGeometry x="325" y="1170" width="120" height="10" as="geometry" />
        </mxCell>
        <mxCell id="Gt7SG_tqPe_O46G-OhOc-190" value="" style="group" parent="Gt7SG_tqPe_O46G-OhOc-123" connectable="0" vertex="1">
          <mxGeometry x="365" y="1250" width="40" height="40" as="geometry" />
        </mxCell>
        <mxCell id="Gt7SG_tqPe_O46G-OhOc-191" value="" style="group" parent="Gt7SG_tqPe_O46G-OhOc-190" connectable="0" vertex="1">
          <mxGeometry width="40" height="40" as="geometry" />
        </mxCell>
        <mxCell id="Gt7SG_tqPe_O46G-OhOc-192" value="" style="ellipse;whiteSpace=wrap;html=1;aspect=fixed;" parent="Gt7SG_tqPe_O46G-OhOc-191" vertex="1">
          <mxGeometry width="40" height="40" as="geometry" />
        </mxCell>
        <mxCell id="Gt7SG_tqPe_O46G-OhOc-193" value="" style="ellipse;whiteSpace=wrap;html=1;rounded=0;shadow=0;comic=0;labelBackgroundColor=none;strokeWidth=1;fillColor=#000000;fontFamily=Verdana;fontSize=12;align=center;" parent="Gt7SG_tqPe_O46G-OhOc-191" vertex="1">
          <mxGeometry x="5" y="5" width="30" height="30" as="geometry" />
        </mxCell>
        <mxCell id="Gt7SG_tqPe_O46G-OhOc-194" value="" style="endArrow=classic;html=1;rounded=0;entryX=0.25;entryY=0;entryDx=0;entryDy=0;edgeStyle=orthogonalEdgeStyle;" parent="Gt7SG_tqPe_O46G-OhOc-123" source="Gt7SG_tqPe_O46G-OhOc-155" target="Gt7SG_tqPe_O46G-OhOc-189" edge="1">
          <mxGeometry width="50" height="50" relative="1" as="geometry">
            <mxPoint x="205" y="1050" as="sourcePoint" />
            <mxPoint x="255" y="1000" as="targetPoint" />
            <Array as="points">
              <mxPoint x="70" y="1110" />
              <mxPoint x="355" y="1110" />
            </Array>
          </mxGeometry>
        </mxCell>
        <mxCell id="Gt7SG_tqPe_O46G-OhOc-195" value="" style="endArrow=classic;html=1;rounded=0;entryX=0.5;entryY=0;entryDx=0;entryDy=0;edgeStyle=orthogonalEdgeStyle;" parent="Gt7SG_tqPe_O46G-OhOc-123" source="Gt7SG_tqPe_O46G-OhOc-162" target="Gt7SG_tqPe_O46G-OhOc-189" edge="1">
          <mxGeometry width="50" height="50" relative="1" as="geometry">
            <mxPoint x="435" y="1090" as="sourcePoint" />
            <mxPoint x="485" y="1040" as="targetPoint" />
          </mxGeometry>
        </mxCell>
        <mxCell id="Gt7SG_tqPe_O46G-OhOc-196" value="" style="endArrow=classic;html=1;rounded=0;entryX=0.5;entryY=0;entryDx=0;entryDy=0;edgeStyle=orthogonalEdgeStyle;" parent="Gt7SG_tqPe_O46G-OhOc-123" source="Gt7SG_tqPe_O46G-OhOc-161" target="Gt7SG_tqPe_O46G-OhOc-189" edge="1">
          <mxGeometry width="50" height="50" relative="1" as="geometry">
            <mxPoint x="525" y="1120" as="sourcePoint" />
            <mxPoint x="575" y="1070" as="targetPoint" />
          </mxGeometry>
        </mxCell>
        <mxCell id="Gt7SG_tqPe_O46G-OhOc-198" value="" style="endArrow=classic;html=1;rounded=0;exitX=0.5;exitY=1;exitDx=0;exitDy=0;entryX=0.5;entryY=0;entryDx=0;entryDy=0;" parent="Gt7SG_tqPe_O46G-OhOc-123" source="Gt7SG_tqPe_O46G-OhOc-189" target="Gt7SG_tqPe_O46G-OhOc-192" edge="1">
          <mxGeometry width="50" height="50" relative="1" as="geometry">
            <mxPoint x="425" y="1250" as="sourcePoint" />
            <mxPoint x="475" y="1200" as="targetPoint" />
          </mxGeometry>
        </mxCell>
        <mxCell id="Gt7SG_tqPe_O46G-OhOc-199" value="" style="endArrow=classic;html=1;rounded=0;edgeStyle=orthogonalEdgeStyle;" parent="Gt7SG_tqPe_O46G-OhOc-123" source="Gt7SG_tqPe_O46G-OhOc-160" target="Gt7SG_tqPe_O46G-OhOc-162" edge="1">
          <mxGeometry width="50" height="50" relative="1" as="geometry">
            <mxPoint x="365" y="870" as="sourcePoint" />
            <mxPoint x="415" y="820" as="targetPoint" />
          </mxGeometry>
        </mxCell>
        <mxCell id="Gt7SG_tqPe_O46G-OhOc-200" value="" style="endArrow=classic;html=1;rounded=0;edgeStyle=orthogonalEdgeStyle;" parent="Gt7SG_tqPe_O46G-OhOc-123" source="Gt7SG_tqPe_O46G-OhOc-160" target="Gt7SG_tqPe_O46G-OhOc-161" edge="1">
          <mxGeometry width="50" height="50" relative="1" as="geometry">
            <mxPoint x="455" y="850" as="sourcePoint" />
            <mxPoint x="505" y="800" as="targetPoint" />
          </mxGeometry>
        </mxCell>
        <mxCell id="Gt7SG_tqPe_O46G-OhOc-124" value="System" style="swimlane;startSize=20;html=1;" parent="Gt7SG_tqPe_O46G-OhOc-122" vertex="1">
          <mxGeometry x="900" y="20" width="760" height="1310" as="geometry" />
        </mxCell>
        <mxCell id="Gt7SG_tqPe_O46G-OhOc-147" value="Validate Payment Information" style="rounded=1;whiteSpace=wrap;html=1;" parent="Gt7SG_tqPe_O46G-OhOc-124" vertex="1">
          <mxGeometry x="320" y="810" width="120" height="60" as="geometry" />
        </mxCell>
        <mxCell id="Gt7SG_tqPe_O46G-OhOc-148" value="" style="endArrow=classic;html=1;rounded=0;entryX=0.5;entryY=0;entryDx=0;entryDy=0;entryPerimeter=0;" parent="Gt7SG_tqPe_O46G-OhOc-124" source="Gt7SG_tqPe_O46G-OhOc-147" target="Gt7SG_tqPe_O46G-OhOc-149" edge="1">
          <mxGeometry width="50" height="50" relative="1" as="geometry">
            <mxPoint x="410" y="930" as="sourcePoint" />
            <mxPoint x="380" y="930" as="targetPoint" />
          </mxGeometry>
        </mxCell>
        <mxCell id="Gt7SG_tqPe_O46G-OhOc-149" value="" style="strokeWidth=2;html=1;shape=mxgraph.flowchart.decision;whiteSpace=wrap;" parent="Gt7SG_tqPe_O46G-OhOc-124" vertex="1">
          <mxGeometry x="365" y="940" width="30" height="30" as="geometry" />
        </mxCell>
        <mxCell id="Gt7SG_tqPe_O46G-OhOc-150" value="[Valid Payment Information]" style="text;html=1;align=center;verticalAlign=middle;resizable=0;points=[];autosize=1;strokeColor=none;fillColor=none;" parent="Gt7SG_tqPe_O46G-OhOc-124" vertex="1">
          <mxGeometry x="395" y="970" width="190" height="30" as="geometry" />
        </mxCell>
        <mxCell id="Gt7SG_tqPe_O46G-OhOc-151" value="[Invalid Payment Information]" style="text;html=1;align=center;verticalAlign=middle;resizable=0;points=[];autosize=1;strokeColor=none;fillColor=none;" parent="Gt7SG_tqPe_O46G-OhOc-124" vertex="1">
          <mxGeometry x="165" y="920" width="200" height="30" as="geometry" />
        </mxCell>
        <mxCell id="Gt7SG_tqPe_O46G-OhOc-153" value="" style="endArrow=classic;html=1;rounded=0;exitX=0.5;exitY=1;exitDx=0;exitDy=0;exitPerimeter=0;edgeStyle=orthogonalEdgeStyle;" parent="Gt7SG_tqPe_O46G-OhOc-124" source="Gt7SG_tqPe_O46G-OhOc-149" target="Gt7SG_tqPe_O46G-OhOc-154" edge="1">
          <mxGeometry width="50" height="50" relative="1" as="geometry">
            <mxPoint x="430" y="1070" as="sourcePoint" />
            <mxPoint x="380" y="1050" as="targetPoint" />
          </mxGeometry>
        </mxCell>
        <mxCell id="Gt7SG_tqPe_O46G-OhOc-154" value="Upgrade Membership to Premium" style="rounded=1;whiteSpace=wrap;html=1;" parent="Gt7SG_tqPe_O46G-OhOc-124" vertex="1">
          <mxGeometry x="320" y="1060" width="120" height="60" as="geometry" />
        </mxCell>
        <mxCell id="Gt7SG_tqPe_O46G-OhOc-146" value="" style="endArrow=classic;html=1;rounded=0;edgeStyle=orthogonalEdgeStyle;" parent="Gt7SG_tqPe_O46G-OhOc-122" source="Gt7SG_tqPe_O46G-OhOc-144" target="Gt7SG_tqPe_O46G-OhOc-147" edge="1">
          <mxGeometry width="50" height="50" relative="1" as="geometry">
            <mxPoint x="770" y="730" as="sourcePoint" />
            <mxPoint x="1240" y="810" as="targetPoint" />
            <Array as="points">
              <mxPoint x="660" y="790" />
              <mxPoint x="1280" y="790" />
            </Array>
          </mxGeometry>
        </mxCell>
        <mxCell id="Gt7SG_tqPe_O46G-OhOc-152" value="" style="endArrow=classic;html=1;rounded=0;exitX=0;exitY=0.5;exitDx=0;exitDy=0;exitPerimeter=0;edgeStyle=orthogonalEdgeStyle;" parent="Gt7SG_tqPe_O46G-OhOc-122" source="Gt7SG_tqPe_O46G-OhOc-149" target="Gt7SG_tqPe_O46G-OhOc-144" edge="1">
          <mxGeometry width="50" height="50" relative="1" as="geometry">
            <mxPoint x="1160" y="1030" as="sourcePoint" />
            <mxPoint x="1210" y="980" as="targetPoint" />
            <Array as="points">
              <mxPoint x="600" y="975" />
            </Array>
          </mxGeometry>
        </mxCell>
        <mxCell id="Gt7SG_tqPe_O46G-OhOc-197" value="" style="endArrow=classic;html=1;rounded=0;entryX=0.75;entryY=0;entryDx=0;entryDy=0;edgeStyle=orthogonalEdgeStyle;" parent="Gt7SG_tqPe_O46G-OhOc-122" source="Gt7SG_tqPe_O46G-OhOc-154" target="Gt7SG_tqPe_O46G-OhOc-189" edge="1">
          <mxGeometry width="50" height="50" relative="1" as="geometry">
            <mxPoint x="775" y="1160" as="sourcePoint" />
            <mxPoint x="805" y="1110" as="targetPoint" />
            <Array as="points">
              <mxPoint x="1280" y="1160" />
              <mxPoint x="415" y="1160" />
            </Array>
          </mxGeometry>
        </mxCell>
      </root>
    </mxGraphModel>
  </diagram>
</mxfile>
